<?xml version="1.0" encoding="utf-8"?>
<!-- Generator: Adobe Illustrator 19.0.0, SVG Export Plug-In . SVG Version: 6.00 Build 0)  -->
<svg version="1.1" xmlns="http://www.w3.org/2000/svg" xmlns:xlink="http://www.w3.org/1999/xlink" x="0px" y="0px"
	 viewBox="-7 9 16 16" style="enable-background:new -7 9 16 16;" xml:space="preserve">
<style type="text/css">
	.icon_x002D_folder{fill:#DCB67A;}
	.st0{fill:#424242;}
</style>
<path id="XMLID_576_" class="icon_x002D_folder" d="M7,11c0,0,1,0,1,1c0,2.4,0,8.2,0,9c0,1-1,1-1,1V12H1l-1,2h-4v3h8l3,5H-4l-3-5h2
	c0,0,0-2,0-3s1.2-1,1-1h3.5l1-2H7z"/>
<path id="XMLID_755_" class="st0" d="M-4,17v-3h4l1-2h6v10l-3-5H-4z"/>
</svg>
