<svg id="Bases" xmlns="http://www.w3.org/2000/svg" viewBox="0 0 32 32"><defs><style>.cls-1{fill:#dcdbdd;}.cls-2{fill:#2a2a2a;}.cls-3{fill:#f77737;}</style></defs><title>config.grunt</title><g id="_编组_" data-name="&lt;编组&gt;"><g id="_编组_2" data-name="&lt;编组&gt;"><path class="cls-1" d="M25,4.9l.41.48-.62.13a2.54,2.54,0,0,0-1.48.89,1.55,1.55,0,0,0-.11.57,1.4,1.4,0,0,0,.05.41c0,.1,0,.2.05.3h-.08A4.91,4.91,0,0,1,23.17,7a1.56,1.56,0,0,1,.12-.61A1.43,1.43,0,0,1,23.62,6a2.92,2.92,0,0,1,1.19-.57l.5-.1L25,5a3.53,3.53,0,0,0-3.5-.67,5.71,5.71,0,0,0-2.46,2,.09.09,0,0,0-.07,0,5.77,5.77,0,0,1,2.51-2A4,4,0,0,1,22.68,4,3.48,3.48,0,0,1,25,4.9Z"/><path class="cls-1" d="M25,5l.33.38-.5.1A2.92,2.92,0,0,0,23.62,6l0,0,.07-.22c.1,0,.16,0,0-.05l.1-.3-.07,0-.16,0A3.92,3.92,0,0,1,24.11,5a3.29,3.29,0,0,0-2.36-.19,4.24,4.24,0,0,0-2,1.68A5,5,0,0,0,19,6.24a5.71,5.71,0,0,1,2.46-2A3.53,3.53,0,0,1,25,5Z"/><path class="cls-1" d="M25.64,14.39c0,1.12-1.14,1.73-2.05,2.22l-.42.23a1.7,1.7,0,0,0-.62,1.33,28.94,28.94,0,0,0,.19,3.15,2.3,2.3,0,0,1-.7.45h0a31.63,31.63,0,0,1-.17-3.84,2.12,2.12,0,0,1,1-1.74l.42-.24c.76-.4,1.54-.83,1.54-1.55a1,1,0,0,0-.45-.92l0,0-.1-.09c-.09-.66-.17-1.5-.17-1.5a9.85,9.85,0,0,1-.22-1.44.34.34,0,0,1,.06-.12A2,2,0,0,0,24.33,9a.61.61,0,0,0-.34-.4,1.67,1.67,0,0,0-.77-.15,6.18,6.18,0,0,0-1.67.3,12.61,12.61,0,0,0-3.25,1.92l0,0-.28.19.17-.29a6.56,6.56,0,0,1,2.7-2.36.41.41,0,0,1,.06.11v0l0,0,.92-.2-.08-.1a1.2,1.2,0,0,0-.11-.17,4,4,0,0,1,.57-.13l-.11.11-.1.09,1,.31,0,0a.7.7,0,0,0,.29-.59,2.58,2.58,0,0,1,1,.23,1.35,1.35,0,0,1,.71.86,2.63,2.63,0,0,1-.6,2,4.13,4.13,0,0,0,.09,1.91.65.65,0,0,0,.22.22l.11.09A1.62,1.62,0,0,1,25.64,14.39Z"/><path class="cls-1" d="M24,19.12a3.68,3.68,0,0,1,1,3.59,3.41,3.41,0,0,1-2.38,2.77,2.46,2.46,0,0,0,.27-.89h-.06a2.9,2.9,0,0,0,1.13-1,3.73,3.73,0,0,0,.19-3c-.56,1.75-2.41,2.24-3.78,2.3a6,6,0,0,1-.41-.72,6,6,0,0,0,2-.35c0,.06,0,.13,0,.19.28-.18.47-.22.75-.4l0-.25A3.65,3.65,0,0,0,24,19.12Z"/><path class="cls-1" d="M24.18,13.38a3.6,3.6,0,0,0,.13.75,4.64,4.64,0,0,1-.8-2.25,5.69,5.69,0,0,1,.26-2.18,6,6,0,0,0,0,.74A4.29,4.29,0,0,0,23.85,13,1.26,1.26,0,0,0,24.18,13.38Z"/><path class="cls-1" d="M24,11.88s.08.84.17,1.5a1.26,1.26,0,0,1-.33-.41,4.29,4.29,0,0,1-.06-2.53A9.85,9.85,0,0,0,24,11.88Z"/><path class="cls-1" d="M23.76,5.38l-.1.3h-.05l0,0,.09-.27a.86.86,0,0,0-.23,0l.09-.06.16,0Z"/><path class="cls-1" d="M23.66,5.68c.15,0,.09,0,0,.05Z"/><path class="cls-1" d="M23.67,5.43l-.09.27-.1.06.09-.28-.21,0,.08-.06A.86.86,0,0,1,23.67,5.43Z"/><path class="cls-1" d="M23.66,5.68v.05l-.08,0v0l0,0Z"/><path class="cls-1" d="M23.65,5.73,23.58,6l-.08,0a1.84,1.84,0,0,0-.57-.08L23,5.76h0a2.6,2.6,0,0,1,.52.09l0-.1h0Z"/><path class="cls-1" d="M23.58,6l0,0a1.43,1.43,0,0,0-.33.36,1.56,1.56,0,0,0-.12.61,4.91,4.91,0,0,0,.09.71H23.2a4.38,4.38,0,0,0-.82.08,2,2,0,0,0,.2-.84A1.84,1.84,0,0,1,22.79,6l.13-.2h0a1.84,1.84,0,0,1,.57.08Z"/><path class="cls-2" d="M23.93,5a3,3,0,0,0-.49.27,2.84,2.84,0,0,0-.47,0,2.55,2.55,0,0,0-1.46.45,3,3,0,0,0-1.05,1.14l-.36-.19-.24-.11a4.24,4.24,0,0,1,1.91-1.64,3,3,0,0,1,.9-.14A3.37,3.37,0,0,1,23.93,5Z"/><path class="cls-1" d="M23.44,5.3A3,3,0,0,1,23.93,5a3.37,3.37,0,0,0-1.26-.26,3,3,0,0,0-.9.14,4.24,4.24,0,0,0-1.91,1.64l-.07,0a4.24,4.24,0,0,1,2-1.68A3.29,3.29,0,0,1,24.11,5a3.92,3.92,0,0,0-.58.29Z"/><path class="cls-1" d="M23.58,5.7v0h-.09Z"/><path class="cls-1" d="M23.57,5.48l-.09.28a2.28,2.28,0,0,0-.42-.06l.29-.26h0Z"/><path class="cls-1" d="M23.56,5.75l0,.1A2.6,2.6,0,0,0,23,5.76l0-.06a2.28,2.28,0,0,1,.42.06Z"/><path class="cls-1" d="M23.53,5.32l-.09.06-.08,0a.16.16,0,0,1,.08-.06Z"/><path class="cls-1" d="M23.44,5.3a.16.16,0,0,0-.08.06h0a2.53,2.53,0,0,0-1.8.41,2.93,2.93,0,0,0-1,1.12l-.06,0h0a3,3,0,0,1,1.05-1.14A2.55,2.55,0,0,1,23,5.26,2.84,2.84,0,0,1,23.44,5.3Z"/><path class="cls-1" d="M23.36,5.36l.08,0-.08.06h-.1l.09-.07Z"/><path class="cls-1" d="M23.34,7.68a.7.7,0,0,1-.29.59l0,0-1-.31.1-.09.11-.11.1,0a.7.7,0,0,1-.16.19l.79.26a.59.59,0,0,0,.26-.53Z"/><path class="cls-1" d="M23.26,5.43h.09l-.29.26H23A1.8,1.8,0,0,1,23.26,5.43Z"/><path class="cls-1" d="M23.35,5.36l-.09.07-.29,0a2.37,2.37,0,0,0-1.38.42,3,3,0,0,0-1,1.1l-.06,0a2.93,2.93,0,0,1,1-1.12A2.53,2.53,0,0,1,23.35,5.36Z"/><path class="cls-1" d="M23.26,7.68a.59.59,0,0,1-.26.53L22.21,8a.7.7,0,0,0,.16-.19h0a4.38,4.38,0,0,1,.82-.08Z"/><path class="cls-1" d="M23,5.41l.29,0a1.8,1.8,0,0,0-.3.26h0a1.81,1.81,0,0,0-1.16.39A2.46,2.46,0,0,0,21,7.24a3.35,3.35,0,0,0-.46-.31,3,3,0,0,1,1-1.1A2.37,2.37,0,0,1,23,5.41Z"/><path class="cls-1" d="M23.06,5.7l0,.06h-.1L23,5.69Z"/><path class="cls-1" d="M23,5.76l-.07.08h-.08a.21.21,0,0,1,.06-.08Z"/><path class="cls-1" d="M23,5.69l-.05.07a1.75,1.75,0,0,0-1.11.38,2.54,2.54,0,0,0-.7,1.15l-.06,0a2.46,2.46,0,0,1,.72-1.16,1.81,1.81,0,0,1,1.16-.39Z"/><path class="cls-1" d="M22.92,5.84l-.13.2a1.84,1.84,0,0,0-.21.88,2,2,0,0,1-.2.84h0l-.1,0a1.59,1.59,0,0,0,.23-.87A2.14,2.14,0,0,1,22.72,6a.79.79,0,0,1,.12-.15h.08Z"/><path class="cls-1" d="M22.86,24.59h.06a2.46,2.46,0,0,1-.27.89,6.14,6.14,0,0,1-1,.27,3.65,3.65,0,0,0,.42-.85A3,3,0,0,0,22.86,24.59Z"/><path class="cls-1" d="M22.91,5.76a.21.21,0,0,0-.06.08h0a1.63,1.63,0,0,0-1,.35,2.46,2.46,0,0,0-.69,1.14s0,0-.06,0h0a2.54,2.54,0,0,1,.7-1.15A1.75,1.75,0,0,1,22.91,5.76Z"/><path class="cls-1" d="M22.18,24.59h.68a3,3,0,0,1-.77.31A1.19,1.19,0,0,0,22.18,24.59Z"/><path class="cls-2" d="M22.84,5.85a.79.79,0,0,0-.12.15,2.14,2.14,0,0,0-.22.91,1.59,1.59,0,0,1-.23.87,4,4,0,0,0-.57.13,3,3,0,0,0-.54-.57,2.46,2.46,0,0,1,.69-1.14A1.63,1.63,0,0,1,22.84,5.85Z"/><path class="cls-1" d="M22.74,21.32l0,.25c-.28.18-.47.22-.75.4,0-.06,0-.13,0-.19h0A2.3,2.3,0,0,0,22.74,21.32Z"/><path class="cls-3" d="M22.64,12.61a1.61,1.61,0,0,1-.27,1,2.18,2.18,0,0,0-.21-.85h0a2.56,2.56,0,0,0,0-.66l.16-.06A.75.75,0,0,1,22.64,12.61Z"/><path class="cls-3" d="M18.75,13.41A4.41,4.41,0,0,1,23,11.8a4.79,4.79,0,0,0-.68.21.38.38,0,0,0-.17,0,.26.26,0,0,1,0-.07l-.87.3-.45.13s-.35.27-.74.62a3.33,3.33,0,0,1,1.13-.49s0,0,0,.06a7.19,7.19,0,0,0-2.28,1.88l-.12-.07,0,0-.52-.08a2.17,2.17,0,0,0,.33.47,1.11,1.11,0,0,1-1.69-.82A1.47,1.47,0,0,0,18.75,13.41Z"/><path class="cls-3" d="M22.29,12l-.16.06s0-.08,0-.1A.38.38,0,0,1,22.29,12Z"/><path class="cls-1" d="M22.65,25.48A4.19,4.19,0,0,1,19.23,28a1.64,1.64,0,0,0,.25-.21,3.93,3.93,0,0,0,.61-.75,3.4,3.4,0,0,0,1.58-1.29A6.14,6.14,0,0,0,22.65,25.48Z"/><path class="cls-3" d="M22.13,12.07a2.56,2.56,0,0,1,0,.66c-.19-.39-.43-.45-.43-.45l0,0h0Z"/><path class="cls-3" d="M22.16,12.73h0a2.67,2.67,0,0,1-.64,1.74c-.37.4-1.91,1.25-2.89.2a.86.86,0,0,0,.29-.28,1.68,1.68,0,0,0,1.92-.08,1.76,1.76,0,0,0,.36-1.8,5.68,5.68,0,0,1,.55-.28l0,0S22,12.34,22.16,12.73Z"/><path class="cls-3" d="M22.12,12s0,.06,0,.1l-.38.16A.45.45,0,0,1,22.12,12Z"/><path class="cls-3" d="M22.11,11.9a.26.26,0,0,0,0,.07.45.45,0,0,0-.37.26h0a5.68,5.68,0,0,0-.55.28s0,0,0-.06a3.33,3.33,0,0,0-1.13.49c.39-.35.74-.61.74-.62l.45-.13Z"/><path class="cls-1" d="M21.81,8.08l.08.1-.92.2,0,0v0a.41.41,0,0,0-.06-.11A3.2,3.2,0,0,1,21.3,8l.4-.12A1.2,1.2,0,0,1,21.81,8.08Z"/><path class="cls-1" d="M22.09,24.9a3.65,3.65,0,0,1-.42.85,7.41,7.41,0,0,1-1,.12c.11-.24.2-.49.29-.73l0-.08A4.25,4.25,0,0,0,22.09,24.9Z"/><path class="cls-2" d="M21.67,25.75A3.4,3.4,0,0,1,20.09,27a6.91,6.91,0,0,0,.62-1.17A7.41,7.41,0,0,0,21.67,25.75Z"/><path class="cls-1" d="M21.7,7.91,21.3,8a3.2,3.2,0,0,0-.43.17,2.84,2.84,0,0,0-1.1-.77A8.5,8.5,0,0,0,16,6.63a8.5,8.5,0,0,0-3.77.8,2.84,2.84,0,0,0-1.1.77A3.2,3.2,0,0,0,10.7,8l-.4-.12a3,3,0,0,1,.54-.57l0,.11,0,.09.77-.31V7.17a2,2,0,0,0-.11-.31h0l.36-.19.24-.11.17.26,0,.06.87-.41-.05-.07-.12-.18.29-.09v0c0,.21,3.1-.17,5.15,0a.14.14,0,0,1,0-.07,3.36,3.36,0,0,1,.48.13l-.12.18,0,.07.87.41,0-.06.17-.26.24.11.36.19h0a2,2,0,0,0-.11.31v.06l.77.31,0-.09,0-.11A3,3,0,0,1,21.7,7.91Z"/><path class="cls-3" d="M21.2,12.52a1.76,1.76,0,0,1-.36,1.8,1.68,1.68,0,0,1-1.92.08A7.19,7.19,0,0,1,21.2,12.52Z"/><path class="cls-1" d="M21.1,7.3s0,0,.06,0l0,.11,0,.09-.77-.31V7.17a2,2,0,0,1,.11-.31l.06,0a.83.83,0,0,0-.1.29l.64.26A1.31,1.31,0,0,1,21.1,7.3Z"/><path class="cls-1" d="M21.1,7.29h0a1.31,1.31,0,0,0,0,.14l-.64-.26a.83.83,0,0,1,.1-.29l.06,0a1,1,0,0,0-.07.21l.5.2,0-.1Z"/><path class="cls-1" d="M20.83,23.44a1.51,1.51,0,0,1,.2,1.62h-.36a1.73,1.73,0,0,1-.17.84l.21,0A6.91,6.91,0,0,1,20.09,27a3,3,0,0,1-1,.25l.05.73.12,0A4.81,4.81,0,0,1,16,29a4.81,4.81,0,0,1-3.23-1l.12,0,0-.73a3,3,0,0,1-1-.25,6.91,6.91,0,0,1-.62-1.17l.21,0a1.73,1.73,0,0,1-.17-.84H11a1.51,1.51,0,0,1,.2-1.62l.05-.05-.13.17s1.11,0,1.17-.24c0,0,.08-.2.17-.46a3.7,3.7,0,0,1,.6,0H19a3.7,3.7,0,0,1,.6,0c.09.26.16.42.17.46.06.19,1.17.24,1.17.24a.73.73,0,0,1-.09-.12ZM20.31,25a1.16,1.16,0,0,0,0-1.17A1.6,1.6,0,0,0,19,23.47H13a1.6,1.6,0,0,0-1.25.37,1.16,1.16,0,0,0,0,1.17A4.34,4.34,0,0,0,16,28.3,4.34,4.34,0,0,0,20.31,25Z"/><path class="cls-1" d="M21,7.24l0,.1-.5-.2a1,1,0,0,1,.07-.21A3.35,3.35,0,0,1,21,7.24Z"/><path class="cls-1" d="M21,25.06l0,.08c-.09.24-.18.49-.29.73l-.21,0a1.73,1.73,0,0,0,.17-.84Z"/><path class="cls-1" d="M20.82,23.44a.73.73,0,0,0,.09.12s-1.11,0-1.17-.24c0,0-.08-.2-.17-.46a2,2,0,0,1,1.21.53A.1.1,0,0,0,20.82,23.44Z"/><path class="cls-1" d="M20.4,22.85a5.06,5.06,0,0,0,.38.54,2,2,0,0,0-1.21-.53,21.66,21.66,0,0,1-1.2-4.56c.34.57,1.3,3.07,1.34,3.16a4.48,4.48,0,0,0,.28.67h-.24l0,0a1.54,1.54,0,0,1,.16.68Z"/><path class="cls-1" d="M20.4,22.85h-.46a1.54,1.54,0,0,0-.16-.68l0,0H20A6,6,0,0,0,20.4,22.85Z"/><path class="cls-1" d="M19.79,6.52l.07,0-.17.26,0,.06-.87-.41,0-.07L19,6.21a.09.09,0,0,1,.07,0c-.08.1-.12.17-.13.18l.74.35Z"/><path class="cls-1" d="M20.09,27a3.93,3.93,0,0,1-.61.75,1.64,1.64,0,0,1-.25.21l-.12,0-.05-.73A3,3,0,0,0,20.09,27Z"/><path class="cls-1" d="M19.61,24.4a.35.35,0,0,1,0,.4,2.63,2.63,0,0,1-.7.92.92.92,0,0,1-.59.21.75.75,0,0,1-.56-.22,3.56,3.56,0,0,1-.66-1,.28.28,0,0,1,0-.33.62.62,0,0,1,.45-.14h1.5A.65.65,0,0,1,19.61,24.4Z"/><path class="cls-1" d="M19.79,6.52l-.16.25-.74-.35s.05-.08.13-.18A5,5,0,0,1,19.79,6.52Z"/><path class="cls-1" d="M17.21,4.89c1-.93,1.71-.77,1.71-.77a3.23,3.23,0,0,0-.45,2A9.78,9.78,0,0,0,16,5.78a10.25,10.25,0,0,0-2.66.34,2.68,2.68,0,0,1,1.43-2.45c0,.23,0,1.12.37,1.4.11-.74.49-1.54,2-2.07A2.51,2.51,0,0,0,17.21,4.89Z"/><path class="cls-3" d="M18.3,14.21l.52.08,0,0,.12.07a.86.86,0,0,1-.29.28A2.17,2.17,0,0,1,18.3,14.21Z"/><path class="cls-1" d="M18.47,6.08a.14.14,0,0,0,0,.07c-2-.17-5.14.21-5.15,0v0A10.25,10.25,0,0,1,16,5.78,9.78,9.78,0,0,1,18.47,6.08Z"/><path class="cls-1" d="M17.38,11.64a4.19,4.19,0,0,1-.44.44,1.75,1.75,0,0,1-.94.45c-.61,0-1.3-.79-1.38-.89a2.84,2.84,0,0,0,1.38.41A2.84,2.84,0,0,0,17.38,11.64Z"/><path class="cls-3" d="M15.06,13.86a1.11,1.11,0,0,1-1.69.82,2.17,2.17,0,0,0,.33-.47l-.52.08a.11.11,0,0,0,0,0l-.12.07a7.34,7.34,0,0,0-2.28-1.89l0,0A3.33,3.33,0,0,1,12,13c-.39-.35-.74-.61-.74-.62l-.45-.13-.87-.3a.26.26,0,0,1,0,.07.34.34,0,0,0-.16,0h0A4.79,4.79,0,0,0,9,11.8a4.44,4.44,0,0,1,4.23,1.61A1.45,1.45,0,0,0,15.06,13.86Z"/><path class="cls-1" d="M14.82,24.39a.28.28,0,0,1,0,.33,3.56,3.56,0,0,1-.66,1,.75.75,0,0,1-.56.22.92.92,0,0,1-.59-.21,2.63,2.63,0,0,1-.7-.92.35.35,0,0,1,0-.4.66.66,0,0,1,.49-.15h1.49A.62.62,0,0,1,14.82,24.39Z"/><path class="cls-1" d="M13.83,10.56l.18.29-.29-.19,0,0a12.61,12.61,0,0,0-3.25-1.92,6.18,6.18,0,0,0-1.67-.3A1.67,1.67,0,0,0,8,8.57a.61.61,0,0,0-.34.4,2,2,0,0,0,.48,1.35l.06.09h0A8.72,8.72,0,0,1,8,11.88s-.08.84-.17,1.5l-.1.09,0,0a1,1,0,0,0-.45.92c0,.72.78,1.15,1.54,1.55l.42.24a2.12,2.12,0,0,1,1,1.74A31.63,31.63,0,0,1,10,21.78h0a2.3,2.3,0,0,1-.7-.45,28.94,28.94,0,0,0,.19-3.15,1.7,1.7,0,0,0-.62-1.33l-.42-.23c-.91-.49-2-1.1-2-2.22A1.62,1.62,0,0,1,7.14,13l.11-.09a.65.65,0,0,0,.22-.22,4.13,4.13,0,0,0,.09-1.91,2.63,2.63,0,0,1-.6-2,1.35,1.35,0,0,1,.71-.86,2.58,2.58,0,0,1,1-.23A.7.7,0,0,0,9,8.27l0,0,1-.31-.1-.09a.57.57,0,0,1-.11-.11,4,4,0,0,1,.57.13,1.2,1.2,0,0,0-.11.17l-.08.1.92.2,0,0,0,0a.41.41,0,0,1,.06-.11A6.56,6.56,0,0,1,13.83,10.56Z"/><path class="cls-3" d="M13.18,14.29l.52-.08a2.17,2.17,0,0,1-.33.47.86.86,0,0,1-.29-.28l.12-.07A.11.11,0,0,1,13.18,14.29Z"/><path class="cls-3" d="M13.08,14.4a.86.86,0,0,0,.29.28c-1,1.05-2.52.2-2.89-.2a2.67,2.67,0,0,1-.64-1.74h0c.19-.39.43-.45.43-.45l0,0,.55.28a1.78,1.78,0,0,0,.36,1.81A1.68,1.68,0,0,0,13.08,14.4Z"/><path class="cls-1" d="M13.17,6.39l.05.07-.87.41,0-.06-.17-.26.07,0,.16.25.74-.35s0-.08-.13-.18a.09.09,0,0,1,.07,0Z"/><path class="cls-1" d="M13.11,6.42l-.74.35-.16-.25A5,5,0,0,1,13,6.24C13.06,6.34,13.1,6.41,13.11,6.42Z"/><path class="cls-1" d="M13.05,6.21a.09.09,0,0,0-.07,0,5.71,5.71,0,0,0-2.46-2A3.53,3.53,0,0,0,7,5l-.33.38.5.1A2.92,2.92,0,0,1,8.38,6a1.43,1.43,0,0,1,.33.36A1.56,1.56,0,0,1,8.83,7a4.91,4.91,0,0,1-.09.71H8.66c0-.1,0-.2.05-.3a1.4,1.4,0,0,0,0-.41,1.55,1.55,0,0,0-.11-.57,2.63,2.63,0,0,0-1.47-.9l-.63-.12L7,4.9A3.41,3.41,0,0,1,9.32,4a4,4,0,0,1,1.22.2A5.77,5.77,0,0,1,13.05,6.21Z"/><path class="cls-1" d="M12.29,21.46c0-.09,1-2.59,1.34-3.16a21.66,21.66,0,0,1-1.2,4.56,2,2,0,0,0-1.21.53,5.06,5.06,0,0,0,.38-.54h.46a1.54,1.54,0,0,1,.16-.68l0,0H12A4.48,4.48,0,0,0,12.29,21.46Z"/><path class="cls-1" d="M12.94,27.29l0,.73-.12,0a3.73,3.73,0,0,1-.86-1A3,3,0,0,0,12.94,27.29Z"/><path class="cls-1" d="M11.91,27a3.73,3.73,0,0,0,.86,1,4.19,4.19,0,0,1-3.42-2.52,6.14,6.14,0,0,0,1,.27A3.4,3.4,0,0,0,11.91,27Z"/><path class="cls-1" d="M10.52,4.28a5.71,5.71,0,0,1,2.46,2,5,5,0,0,0-.77.28,4.24,4.24,0,0,0-2-1.68A3.29,3.29,0,0,0,7.89,5a3.92,3.92,0,0,1,.58.29l-.16,0-.07,0,.1.3h0c-.15,0-.09,0,0,0h0L8.42,6l0,0a2.92,2.92,0,0,0-1.19-.57l-.5-.1L7,5A3.53,3.53,0,0,1,10.52,4.28Z"/><path class="cls-3" d="M13.08,14.4a1.68,1.68,0,0,1-1.92-.08,1.78,1.78,0,0,1-.36-1.81A7.34,7.34,0,0,1,13.08,14.4Z"/><path class="cls-1" d="M12.43,22.86c-.09.26-.16.42-.17.46-.06.19-1.17.24-1.17.24l.13-.17A2,2,0,0,1,12.43,22.86Z"/><path class="cls-1" d="M12.25,22.14l0,0a1.54,1.54,0,0,0-.16.68H11.6a6,6,0,0,0,.41-.72Z"/><path class="cls-1" d="M12.21,6.52l-.07,0a4.24,4.24,0,0,0-1.91-1.64,3,3,0,0,0-.9-.14A3.37,3.37,0,0,0,8.07,5a3,3,0,0,1,.49.27l-.09,0A3.92,3.92,0,0,0,7.89,5a3.29,3.29,0,0,1,2.36-.19A4.24,4.24,0,0,1,12.21,6.52Z"/><path class="cls-2" d="M12.14,6.55l-.24.11-.36.19a3,3,0,0,0-1-1.14A2.55,2.55,0,0,0,9,5.26a2.84,2.84,0,0,0-.47,0A3,3,0,0,0,8.07,5a3.37,3.37,0,0,1,1.26-.26,3,3,0,0,1,.9.14A4.24,4.24,0,0,1,12.14,6.55Z"/><path class="cls-1" d="M12,22.13a6,6,0,0,1-.41.72c-1.37-.06-3.22-.55-3.78-2.3a3.73,3.73,0,0,0,.19,3,2.9,2.9,0,0,0,1.13,1H9.08a2.46,2.46,0,0,0,.27.89A3.41,3.41,0,0,1,7,22.71a3.7,3.7,0,0,1,1-3.6,3.6,3.6,0,0,0,1.25,2.21l0,.25c.28.18.47.22.75.4,0-.06,0-.13,0-.19A6,6,0,0,0,12,22.13Z"/><path class="cls-1" d="M11.65,7.17v.06l-.77.31,0-.09,0-.11s0,0,.06,0a.83.83,0,0,1,0,.14l.64-.26a.83.83,0,0,0-.1-.29l.06,0A2,2,0,0,1,11.65,7.17Z"/><path class="cls-1" d="M11.58,7.18l-.64.26a.83.83,0,0,0,0-.14h0l.06,0,0,.1.51-.2a1.19,1.19,0,0,0-.08-.21l.06,0A.83.83,0,0,1,11.58,7.18Z"/><path class="cls-1" d="M11.54,6.85h0l-.06,0a2.93,2.93,0,0,0-1-1.12,2.53,2.53,0,0,0-1.8-.41h0a.16.16,0,0,0-.08-.06,2.84,2.84,0,0,1,.47,0,2.55,2.55,0,0,1,1.46.45A3,3,0,0,1,11.54,6.85Z"/><path class="cls-1" d="M11.5,7.14l-.51.2,0-.1a3.35,3.35,0,0,1,.46-.31A1.19,1.19,0,0,1,11.5,7.14Z"/><path class="cls-1" d="M11.5,25.89l-.21,0c-.11-.24-.2-.49-.29-.73l0-.08h.36A1.73,1.73,0,0,0,11.5,25.89Z"/><path class="cls-1" d="M10.45,5.77a2.93,2.93,0,0,1,1,1.12l-.06,0a3,3,0,0,0-1-1.1A2.37,2.37,0,0,0,9,5.41l-.29,0-.09-.07A2.53,2.53,0,0,1,10.45,5.77Z"/><path class="cls-2" d="M11.29,25.87A6.91,6.91,0,0,0,11.91,27a3.4,3.4,0,0,1-1.58-1.29A7.41,7.41,0,0,0,11.29,25.87Z"/><path class="cls-3" d="M11.21,12.33s.35.27.74.62a3.33,3.33,0,0,0-1.13-.49l0,0-.55-.28A.45.45,0,0,0,9.88,12a.26.26,0,0,0,0-.07l.87.3Z"/><path class="cls-1" d="M11.42,6.93a3.35,3.35,0,0,0-.46.31,2.38,2.38,0,0,0-.72-1.16,1.81,1.81,0,0,0-1.16-.39H9a1.8,1.8,0,0,0-.3-.26l.29,0a2.37,2.37,0,0,1,1.38.42A3,3,0,0,1,11.42,6.93Z"/><path class="cls-1" d="M11,25.14c.09.24.18.49.29.73a7.41,7.41,0,0,1-1-.12,3.65,3.65,0,0,1-.42-.85,4.25,4.25,0,0,0,1.06.16Z"/><path class="cls-1" d="M11.13,8.2a.41.41,0,0,0-.06.11l0,0,0,0-.92-.2.08-.1a1.2,1.2,0,0,1,.11-.17l.4.12A3.2,3.2,0,0,1,11.13,8.2Z"/><path class="cls-1" d="M11,7.24l-.06,0a2.54,2.54,0,0,0-.7-1.15,1.75,1.75,0,0,0-1.11-.38L9,5.69h0a1.81,1.81,0,0,1,1.16.39A2.38,2.38,0,0,1,11,7.24Z"/><path class="cls-1" d="M10.9,7.29h0s0,0-.06,0a2.46,2.46,0,0,0-.69-1.14,1.63,1.63,0,0,0-1-.35h0a.21.21,0,0,0-.06-.08,1.75,1.75,0,0,1,1.11.38A2.54,2.54,0,0,1,10.9,7.29Z"/><path class="cls-2" d="M10.84,7.34a3,3,0,0,0-.54.57,4,4,0,0,0-.57-.13,1.59,1.59,0,0,1-.23-.87A2.14,2.14,0,0,0,9.28,6a.79.79,0,0,0-.12-.15,1.63,1.63,0,0,1,1,.35A2.46,2.46,0,0,1,10.84,7.34Z"/><path class="cls-3" d="M10.25,12.23l0,0s-.24.06-.43.45a2.56,2.56,0,0,1,0-.66Z"/><path class="cls-1" d="M10,21.78c0,.06,0,.13,0,.19-.28-.18-.47-.22-.75-.4l0-.25a2.3,2.3,0,0,0,.7.45Z"/><path class="cls-3" d="M9.88,12a.45.45,0,0,1,.37.26l-.38-.16h0S9.88,12,9.88,12Z"/><path class="cls-1" d="M9.94,8,9,8.29l0,0a.7.7,0,0,1-.29-.59h.08A.59.59,0,0,0,9,8.21L9.79,8a.7.7,0,0,1-.16-.19l.1,0a.57.57,0,0,0,.11.11Z"/><path class="cls-1" d="M9.91,24.9a3.65,3.65,0,0,0,.42.85,6.14,6.14,0,0,1-1-.27,2.46,2.46,0,0,1-.27-.89h.06A3,3,0,0,0,9.91,24.9Z"/><path class="cls-3" d="M9.88,12s0,0,0,.09L9.72,12A.34.34,0,0,1,9.88,12Z"/><path class="cls-3" d="M9.87,12.06h0a2.56,2.56,0,0,0,0,.66h0a2.18,2.18,0,0,0-.21.85,1.61,1.61,0,0,1-.27-1,.75.75,0,0,1,.35-.6h0Z"/><path class="cls-1" d="M9.82,24.59a1.19,1.19,0,0,0,.09.31,3,3,0,0,1-.77-.31Z"/><path class="cls-1" d="M9.79,8,9,8.21a.59.59,0,0,1-.26-.53H8.8a4.38,4.38,0,0,1,.82.08h0A.7.7,0,0,0,9.79,8Z"/><path class="cls-1" d="M9.73,7.78l-.1,0h0a2,2,0,0,1-.2-.84A1.84,1.84,0,0,0,9.21,6l-.13-.2h.08A.79.79,0,0,1,9.28,6a2.14,2.14,0,0,1,.22.91A1.59,1.59,0,0,0,9.73,7.78Z"/><path class="cls-1" d="M9.42,6.92a2,2,0,0,0,.2.84,4.38,4.38,0,0,0-.82-.08H8.74A4.91,4.91,0,0,0,8.83,7a1.56,1.56,0,0,0-.12-.61A1.43,1.43,0,0,0,8.38,6l0,0,.08,0a1.84,1.84,0,0,1,.57-.08h0l.13.2A1.84,1.84,0,0,1,9.42,6.92Z"/><path class="cls-1" d="M9.09,5.76a.21.21,0,0,1,.06.08H9.07L9,5.76Z"/><path class="cls-1" d="M9,5.69l.05.07H9L8.94,5.7Z"/><path class="cls-1" d="M9,5.76l.07.08a1.84,1.84,0,0,0-.57.08L8.42,6l-.06-.21h.08l0,.1A2,2,0,0,1,9,5.76Z"/><path class="cls-1" d="M9,5.69h-.1l-.29-.26h.09A1.8,1.8,0,0,1,9,5.69Z"/><path class="cls-1" d="M8.94,5.7,9,5.76a2,2,0,0,0-.53.09l0-.1h.08A2.28,2.28,0,0,1,8.94,5.7Z"/><path class="cls-1" d="M8.65,5.44l.29.26a2.28,2.28,0,0,0-.42.06l-.09-.28.21,0Z"/><path class="cls-1" d="M8.65,5.36l.09.07h-.1l-.08-.06.08,0Z"/><path class="cls-1" d="M8.56,5.3a.16.16,0,0,1,.08.06l-.08,0-.09-.06Z"/><path class="cls-1" d="M8.56,5.38l.08.06-.21,0,.09.28-.1-.06-.09-.27A.86.86,0,0,1,8.56,5.38Z"/><path class="cls-1" d="M8.47,5.32l.09.06a.86.86,0,0,0-.23,0l.09.27,0,0H8.34l-.1-.3.07,0Z"/><path class="cls-1" d="M8.42,5.7l.1.06H8.43Z"/><path class="cls-1" d="M8.23,9.7a5.69,5.69,0,0,1,.26,2.18,4.64,4.64,0,0,1-.8,2.25,3.6,3.6,0,0,0,.13-.75A1.26,1.26,0,0,0,8.15,13a4.28,4.28,0,0,0,.06-2.55h0A5.56,5.56,0,0,0,8.23,9.7Z"/><path class="cls-1" d="M8.42,5.7v0H8.35v0h.05Z"/><path class="cls-1" d="M8.34,5.69v0C8.25,5.71,8.19,5.69,8.34,5.69Z"/><path class="cls-1" d="M8.21,10.42A4.28,4.28,0,0,1,8.15,13a1.26,1.26,0,0,1-.33.41c.09-.66.17-1.5.17-1.5A8.72,8.72,0,0,0,8.21,10.42Z"/></g></g></svg>