<svg xmlns="http://www.w3.org/2000/svg" viewBox="0 0 32 32"><defs><style>.icon-canvas-transparent{fill:#f6f6f6;opacity:0;}.a{fill:#dcdbdd;}.icon-git-orange{fill:#f05133;}</style></defs><title>config.git</title><path class="icon-canvas-transparent" d="M28,28H4V4H28Z"/><path class="a" d="M16,28a2.84,2.84,0,0,1-2-.83L4.84,18a2.86,2.86,0,0,1,0-4L14,4.84a2.85,2.85,0,0,1,4,0L27.17,14a2.86,2.86,0,0,1,0,4L18,27.17A2.85,2.85,0,0,1,16,28Z"/><path class="icon-git-orange" d="M26.1,17,17,26.11a1.35,1.35,0,0,1-1.91,0L5.94,17a1.35,1.35,0,0,1,0-1.91l6.27-6.27,2.38,2.38a1.61,1.61,0,0,0,.35,1.75c.16.16.11.08.3.16v5.8a1.14,1.14,0,0,0-.39.32A1.67,1.67,0,0,0,16,22.12a1.71,1.71,0,0,0,.35,0,1.6,1.6,0,0,0,1.08-2.5,1.66,1.66,0,0,0-.6-.59V13.36l2.17,2.17a1.61,1.61,0,1,0,1-.9L17.58,12.3a1.6,1.6,0,0,0-2-2L13.15,7.84,15,5.94a1.35,1.35,0,0,1,1.91,0l9.15,9.15A1.35,1.35,0,0,1,26.1,17Z"/></svg>