<?xml version="1.0" encoding="UTF-8"?>
<svg xmlns="http://www.w3.org/2000/svg" version="1.1" viewBox="0 0 800 800">
  <defs>
    <style>
      .cls-1 {
        fill: #5056a5;
      }
    </style>
  </defs>
  <!-- Generator: Adobe Illustrator 28.7.1, SVG Export Plug-In . SVG Version: 1.2.0 Build 142)  -->
  <g>
    <g id="Layer_1">
      <path class="cls-1" d="M311.2,306.6v-41.9c4.1-.3,8.2-.5,12.4-.7,114.4-3.6,189.5,98.4,189.5,98.4,0,0-81.1,112.5-168,112.5-11.5,0-22.9-1.8-33.8-5.4v-126.8c44.5,5.4,53.5,25,80.3,69.7l59.6-50.2c-28.9-34.9-71.5-55.7-116.8-57-7.7,0-15.4.5-23.1,1.4M311.2,168.4v62.5c4.1-.3,8.2-.6,12.4-.7,159.1-5.3,262.8,130.5,262.8,130.5,0,0-119.1,144.8-243.1,144.8-10.7,0-21.5-.9-32-2.8v38.6c8.8,1.1,17.8,1.7,26.7,1.7,115.5,0,199-58.9,279.8-128.7,13.4,10.8,68.3,36.9,79.5,48.3-76.9,64.3-256,116.2-357.5,116.2s-19.2-.6-28.4-1.5v54.3h438.8V168.4h-438.8ZM311.2,469.7v33c-106.8-19-136.4-130-136.4-130,36.8-36.7,84.8-60,136.4-66v36.2h-.1c-30.6-.4-59.8,13-79.6,36.4,0,0,19.5,70.3,79.8,90.5M121.5,367.8c45.7-59.8,114.7-97.2,189.7-103.1v-33.9c-140,11.2-261.2,129.8-261.2,129.8,0,0,68.7,198.5,261.2,216.6v-36c-141.2-17.8-189.6-173.5-189.6-173.5Z"/>
    </g>
  </g>
</svg>