<svg xmlns="http://www.w3.org/2000/svg" viewBox="0 0 32 32"><defs><style>.a{fill:#dcdbdd;}.b{fill:#1ba1e2;}.c{fill:#2a2a2a;}</style></defs><title>config.format</title><path class="a" d="M19.28,4H7.93A1.91,1.91,0,0,0,6,6V26a1.91,1.91,0,0,0,1.93,2h16A2,2,0,0,0,26,26V10ZM24,26H8V6H18v6h6Z"/><rect class="b" x="10" y="8" width="2" height="2"/><rect class="b" x="10" y="12" width="2" height="2"/><rect class="b" x="10" y="16" width="2" height="2"/><rect class="b" x="10" y="20" width="2" height="2"/><rect class="b" x="10" y="24" width="2" height="2"/><rect class="b" x="18" y="20" width="2" height="2"/><rect class="b" x="22" y="20" width="2" height="2"/><rect class="b" x="14" y="20" width="2" height="2"/><path class="c" d="M24,20V12H18V6H8V26h2V24h2v2H24V22H22V20ZM12,22H10V20h2Zm0-4H10V16h2Zm0-4H10V12h2Zm0-4H10V8h2Zm4,12H14V20h2Zm4,0H18V20h2Z"/></svg>