<svg id="Bases" xmlns="http://www.w3.org/2000/svg" viewBox="0 0 32 32"><defs><style>.cls-1{fill:#f77737;}.cls-2{fill:#dcdbdd;}</style></defs><title>config.eslint</title><g id="_编组_" data-name="&lt;编组&gt;"><path id="_路径_" data-name="&lt;路径&gt;" class="cls-1" d="M12,13.55l3.89-2.25a.31.31,0,0,1,.31,0L20,13.55a.32.32,0,0,1,.16.27v4.49a.32.32,0,0,1-.16.27l-3.89,2.25a.31.31,0,0,1-.31,0L12,18.59a.31.31,0,0,1-.16-.27V13.82a.32.32,0,0,1,.16-.27"/><path id="_复合路径_" data-name="&lt;复合路径&gt;" class="cls-2" d="M26.12,15.6,21.47,7.51A1,1,0,0,0,20.65,7h-9.3a1,1,0,0,0-.82.51L5.88,15.58a1,1,0,0,0,0,1l4.65,8a.92.92,0,0,0,.82.44h9.3a.91.91,0,0,0,.82-.44l4.65-8a.91.91,0,0,0,0-.93m-3.85,3.89a.34.34,0,0,1-.17.29l-5.92,3.42a.34.34,0,0,1-.34,0L9.91,19.78a.34.34,0,0,1-.18-.29V12.65a.34.34,0,0,1,.17-.29l5.92-3.42a.34.34,0,0,1,.33,0l5.93,3.42a.34.34,0,0,1,.18.29Z"/></g></svg>