<svg id="Bases" xmlns="http://www.w3.org/2000/svg" viewBox="0 0 32 32"><defs><style>.cls-1{fill:#dcdbdd;}.cls-2{fill:#f77737;}</style></defs><title>config.gulp</title><g id="_编组_" data-name="&lt;编组&gt;"><g id="_编组_2" data-name="&lt;编组&gt;"><path class="cls-1" d="M21.34,2a.79.79,0,0,1,.44.22c.21.18.32.4.26.49h0L19,5.88,18.48,8c2.12.13,3.6.43,3.6.78L20.53,22.13l-1,1.74-.26,4.32c0,.45-1.48.81-3.31.81s-3.31-.36-3.31-.81L12.39,24l-1.1-1.88L9.92,8.81C9.92,8.34,12.64,8,16,8l1.43,0,.63-2.57L21.25,2a.12.12,0,0,1,.09,0m0-1a1.12,1.12,0,0,0-.85.38L17.33,4.72a1,1,0,0,0-.24.45L16.65,7H16C8.92,7,8.92,8.16,8.92,8.81a1,1,0,0,0,0,.1l1.37,13.3a1,1,0,0,0,.13.4l1,1.68.27,3.93C11.72,29.69,14,30,16,30s4.27-.31,4.31-1.78l.24-4.07.86-1.54a1,1,0,0,0,.12-.37L23.07,8.92a1,1,0,0,0,0-.12c0-1-.9-1.44-3.34-1.68l.19-.75,2.82-3A1,1,0,0,0,23,3.12a1.42,1.42,0,0,0-.52-1.65A1.76,1.76,0,0,0,21.34,1Z"/></g><path id="_路径_" data-name="&lt;路径&gt;" class="cls-2" d="M13.33,13.48c.36.09.39.71.69.69.72,0-.12-1.25-.75-1.28-1.38-.07-2.25,2-2.62,3.09l.2,2c.83.4,1.48-.42,1.83-.74,0,.22-.59,1.48-.21,1.6s.53-.91.83-1.89.67-1.86.3-2-.48.85-.65,1.18-1.65,2-1.82.85a5.53,5.53,0,0,1,1.34-3.15A1.08,1.08,0,0,1,13.33,13.48Z"/><path id="_路径_2" data-name="&lt;路径&gt;" class="cls-2" d="M21.15,16.61a2.66,2.66,0,0,1-1.42.89c-.44.06,1.32-1.06,1-1.84s-1.27,0-1.55.32c.07-.2.11-.46-.16-.47s-.26.79-.68,1.28a1.81,1.81,0,0,1-1.07.65c-.43.15.48-1.85,1-3.06.11-.26.37-.95.06-1.05s-.72,1.25-1.17,2.33-.41,1.41-.54,1.56-.56.33-.64.27c-.42-.32.7-1.91.38-2s-.72,1.07-.86,1.25c0,0-.76,1-1,.81s.08-.72.29-1.19c.09-.22.45-.77.15-.89s-1.51,2.31-.74,2.6c.58.22,1.07-.31,1.28-.69-.1.91.77.72,1.17.37.25.71,1.23,0,1.5-.24-.23.77-1.06,2.08-.7,2.27s.91-1.39,1.07-1.76c.44-1,.87-2,1.74-2,.4,0-1.17,1-1.1,1.71.09.85,1.48.1,1.91-.33Z"/></g></svg>