<svg id="Bases" xmlns="http://www.w3.org/2000/svg" viewBox="0 0 32 32"><defs><style>.cls-1{fill:#dcdbdd;}.cls-2{fill:#0095d7;}.cls-3{fill:#1ba1e2;}</style></defs><title>config.bower</title><g id="_编组_" data-name="&lt;编组&gt;"><g id="_编组_2" data-name="&lt;编组&gt;"><g id="_编组_3" data-name="&lt;编组&gt;"><path class="cls-1" d="M30.48,15.72c.72.7,1.05,3.46-1.51,3.64.3,1.12-1.54,2-3.13,1.62-.17.85-2.22,1.4-3.53.36-.25.86-2.32.67-3.13,0a16.88,16.88,0,0,1,1.56,3c.14.7-.16,1.57-.78,1.6a1.84,1.84,0,0,1-2.38,1.39,1.83,1.83,0,0,1-2.49.39c-.51.56-1.66.09-1.91-.45-.17-.36-.69-1.79-.85-2.26a2.24,2.24,0,0,1-2.05,1.43C8,26.41,4,21.2,4,15.25a11.94,11.94,0,0,1,.94-4.77A10.49,10.49,0,0,1,7.38,6.94,10.36,10.36,0,0,1,14.47,4a5.94,5.94,0,0,1,5.75,4.47,7,7,0,0,1,1.22.34C22.53,6.29,25.76,4.6,28,5.26A5.29,5.29,0,0,0,26.34,8.7c-.18.94-.41,4.37-4.81,4.25-.11-.22-.3-.69-.34-.81q-.51.16-1,.36a5.66,5.66,0,0,1-.27.79C22.15,13.53,29.1,14.37,30.48,15.72Zm-1.32,1.16c0-.31,0-.28-.24-.43-.53-.37-6.08-1.46-9.34-1.79-.14.21-.53.36-1,.74a8.37,8.37,0,0,1-4.78,1.15,7.35,7.35,0,0,0,4.79-3.06c-1.91-.65-1.77-3.64,0-5.44C18.27,7.17,17.3,6,14.38,6c-4.91,0-8.3,4.43-8.3,9.45,0,5.46,3.31,8.4,8.3,8.4,2,0,4.16-.51,4.44-3-.05-.09-.56-.75-.28-.84.84.93,3,.83,3,0,1.7.88,3.2.12,2.83-.72,1.69.56,2.9-.47,2.27-1.32,1.16.27,2,.3,2.38-.25-1.07-.28-7-1.41-8.23-1.62C22.15,16.15,26.64,16.52,29.16,16.88ZM24.75,11c1.14-1.46.63-3.93,2-5.17A5.65,5.65,0,0,0,22.11,9.1a9.54,9.54,0,0,1,.87.49,5.57,5.57,0,0,1,2.48-2.83,9.83,9.83,0,0,0-2.12,3.07,11.07,11.07,0,0,1,1.08.89Zm-.57.54a7.38,7.38,0,0,0-1.48-.42c-.06.11-.19.4-.24.48s0-.37.05-.52A5.1,5.1,0,0,0,21.7,11,3.08,3.08,0,0,0,22,12.2,4.09,4.09,0,0,0,24.18,11.58Zm-.38-.43A7.13,7.13,0,0,0,19.26,9.1a3.23,3.23,0,0,0-.4,3.3,8.72,8.72,0,0,1,2.16-1,1.63,1.63,0,0,1,0-.31,6.44,6.44,0,0,1-1.4.31,1.18,1.18,0,0,1-1-.35,2.69,2.69,0,0,0,.89.12c.8,0,1.32-.49,2.17-.49A6.39,6.39,0,0,1,23.8,11.15Z"/><path class="cls-2" d="M26.73,5.87c-1.35,1.24-.84,3.71-2,5.17l-.33-.32a11.07,11.07,0,0,0-1.08-.89,9.83,9.83,0,0,1,2.12-3.07A5.57,5.57,0,0,0,23,9.59a9.54,9.54,0,0,0-.87-.49A5.65,5.65,0,0,1,26.73,5.87Z"/><path class="cls-2" d="M22.7,11.16a7.38,7.38,0,0,1,1.48.42,4.09,4.09,0,0,1-2.2.62A3.08,3.08,0,0,1,21.7,11a5.1,5.1,0,0,1,.81.11c0,.15,0,.48-.05.52S22.64,11.27,22.7,11.16Z"/><path class="cls-1" d="M14.44,8.74A1.43,1.43,0,1,1,13,10.16,1.41,1.41,0,0,1,14.44,8.74Z"/></g></g><path id="_路径_" data-name="&lt;路径&gt;" class="cls-3" d="M26.92,5.74c-3.58,0-6.24,3.82-5,6.56C27,12.3,24.91,7.58,26.92,5.74Z"/></g></svg>