<svg id="Bases" xmlns="http://www.w3.org/2000/svg" viewBox="0 0 32 32"><defs><style>.cls-1{fill:#f77737;}</style></defs><title>config.babel</title><g id="_编组_" data-name="&lt;编组&gt;"><g id="_编组_2" data-name="&lt;编组&gt;"><path id="_复合路径_" data-name="&lt;复合路径&gt;" class="cls-1" d="M22.9,13.65v0H23a.26.26,0,0,1,0-.11v-.07S22.92,13.56,22.9,13.65Zm-.73-1.76v-.07H22v.07Zm-2.12,4a3.51,3.51,0,0,0-.58-.73q0-.12.4-.35l.77-.67A2,2,0,0,0,20.93,13v-.11q0-.51-.75-.83a3,3,0,0,0-1.5-.31,8.91,8.91,0,0,0-2.33.64,9.5,9.5,0,0,1-.9.57v.06l.09,0s.06,0,.07.05l.06,0h0v0a3.15,3.15,0,0,1-.63.49l0,.06h0l-.07,0s0,0-.09,0v0l.07.08-.1,0a.5.5,0,0,0-.29.18l0-.19a13.71,13.71,0,0,0,.29-1.61v0a1.21,1.21,0,0,1-.28-.26.93.93,0,0,0,0-.12v0h0q-.46.69-1.76,2.35a10.31,10.31,0,0,0-1,1.31q-.41.42-.39.51t-.09.14a0,0,0,0,1,0,0,.79.79,0,0,1-.52.36l-.24.06a.06.06,0,0,0,0,.07v0l.09,0v0l-.2.08-.36.08H9.85s.15,0,.08,0l-.24.05q-.21,0-.23,0h0s0,0,0,0v0l-.19,0a4.65,4.65,0,0,0-.77-1q0-.16.52-.46l1-.89a2.6,2.6,0,0,0,.4-1.4v-.15q-.06-.68-1-1.1a3.88,3.88,0,0,0-2-.4,11.89,11.89,0,0,0-3.08.83,11.65,11.65,0,0,1-1.19.75V13l.12,0q.08,0,.08.07l.08,0h0v0a4.5,4.5,0,0,1-.83.65l0,.07h0l-.09,0s0,0-.12,0v0l.09.1-.12,0a.79.79,0,0,0-.53.39l0,.07a1.12,1.12,0,0,1,.26-.21v.11l-.12,0,.1.14a3.09,3.09,0,0,1,.6-.51Q3,14,3,14h.08a6.47,6.47,0,0,1,1.77-1v.08q-.16.24-.22.25a.27.27,0,0,0,.06.15,14,14,0,0,1-.79,2A54.44,54.44,0,0,1,.81,21.92a.27.27,0,0,0,0,.11,1,1,0,0,0,.39-.15h0V22h.08l.08,0s0,0,.08,0V22a.69.69,0,0,1-.13.35,1.81,1.81,0,0,0-.27.6v0h.08A4.83,4.83,0,0,0,2,21.9a12.23,12.23,0,0,0,2.22-.84,2.08,2.08,0,0,0,1.18-.4v0l-.19.06h0v0a1.77,1.77,0,0,0,.79-.26q1.1-.85,1.67-1.21a4.34,4.34,0,0,0,1.5-1.66l.13,0h.18a0,0,0,0,1,0,0c.17,0,.09,0,.2,0l.29-.07a0,0,0,0,0,0,0l.05,0h.1l0,.09L8.75,19.54l-.29.37-.14.48h0l.14-.06,0,.19v.06l0,0s0,0,0,0v0h.06q.13-.12.11-.21a.57.57,0,0,0,.19,0v0q-.09,0-.09.14v0h0c.48-.52,1.66-2.32,2.61-3.54q0-.2,1.48-.55h0a3.15,3.15,0,0,1-.24,1.16,3.22,3.22,0,0,0-.18.61,4.66,4.66,0,0,0-.23.8l-.36,1.18a10.77,10.77,0,0,0-.54,1.91h.1l.05,0a0,0,0,0,0,0,0l0-.09h.16s.09-.07.12-.18,0-.25.1-.26a2.47,2.47,0,0,1,.18-.57,2.51,2.51,0,0,1,.2-.64q.2-.74.3-.76v.06l-.1.26A12.36,12.36,0,0,1,12,21.85l.05.22h0a47.3,47.3,0,0,0,1.86-5.49.72.72,0,0,1,.35-.56l0,0v0a.32.32,0,0,0,.2-.11s-.09-.05-.24-.09l.4-1.72a.73.73,0,0,1,.16-.12V14l-.09,0,.08.11a2.41,2.41,0,0,1,.45-.39q.12,0,.13.08h.06a4.92,4.92,0,0,1,1.35-.72v.06q-.12.18-.17.19a.24.24,0,0,0,0,.11A10.75,10.75,0,0,1,16,15a41.67,41.67,0,0,1-2.34,4.85.2.2,0,0,0,0,.09A.75.75,0,0,0,14,19.8h0v.06h.07l.06,0s0,0,.06,0v.06a.54.54,0,0,1-.1.26,1.28,1.28,0,0,0-.21.45v0H14a3.66,3.66,0,0,0,.58-.83,9.29,9.29,0,0,0,1.69-.64,1.58,1.58,0,0,0,.9-.31v0l-.15,0h0v0a1.34,1.34,0,0,0,.6-.19q.84-.65,1.27-.92Q20.12,16.76,20,15.87Zm-.15,0,0,.23q0,.09-.09.09l0-.4Q19.89,15.87,19.89,15.91ZM2.39,14h0V14H2.5v0Zm-.78,7.79a.51.51,0,0,0-.25-.05v-.11s0-.07.08-.08.08,0,.09.11a1.47,1.47,0,0,1,.22-.25l.09,0Q1.78,21.8,1.61,21.82Zm8.33-8.71s-.12-.12-.23-.36v-.07q.11,0,.23.36Zm-.11-.86,0,.08-1.13-.47Q9.79,11.89,9.82,12.25ZM5,16.35H4.89v-.07H5Zm-.13-2.46H5V14s-.09.06-.15.16v-.08Q4.92,14,4.92,13.88Zm-.34.79v.15h0v-.15ZM4.41,15h.08q0,.19-.1.2h0A.38.38,0,0,0,4.41,15Zm-.13.39h0v0l-.07.12H4.17v0A.1.1,0,0,0,4.28,15.35Zm-.13.36,0,.19h0l0-.19Zm-1.3,3.69q-.08.39-.17.4v0A.43.43,0,0,1,2.85,19.39Zm-.24.52v0a.07.07,0,0,1-.07.08v0S2.56,19.92,2.61,19.91ZM2.54,21h.12v0l-.12,0H2.47S2.49,21,2.54,21ZM6,19.92a6.39,6.39,0,0,0-1.19.68q-1.1.38-1.09.47a12.17,12.17,0,0,0-1.28.56.48.48,0,0,1-.21-.06.34.34,0,0,1,.18-.32.68.68,0,0,1,.33.05,3.17,3.17,0,0,1,.63-.21V21l-.24,0a3.36,3.36,0,0,1,.7-.33h.12v0q-.31,0-.34.19s0,.07.08.07.23-.15.23-.17A12.93,12.93,0,0,0,6.3,19.55v.07S6.19,19.75,6,19.92Zm-2,.67a.79.79,0,0,0,.5-.23q.08,0,.09.07a1.77,1.77,0,0,0-.54.24h0Zm3.29-2.53-1,.81A10.47,10.47,0,0,1,5,19.62a9.2,9.2,0,0,1-2.25,1h0q.05-.2,1.61-3.3a8.88,8.88,0,0,0,2.16-.64l.24,0A1.38,1.38,0,0,1,7.81,17v.15Q7.54,17.93,7.21,18.06Zm-2-1.12h.16v0H5.22Zm2.31-.39h.12q.17.08.17.14v0A.34.34,0,0,1,7.53,16.55Zm.33-1.85a4.75,4.75,0,0,1-.87.65A11.4,11.4,0,0,0,5.22,16a.31.31,0,0,0-.16,0v-.07a.94.94,0,0,1,.2-.55q.12-.63.26-.71l.84-1.9q0-.18.54-.27H7v.11l.68-.09q1-.09,1,.41h.08l0-.19h.08a.52.52,0,0,1,.32.4.61.61,0,0,1-.17.4Q9,13.5,9,13.38H8.87l0,.23q-.51.76-.74.78Q7.9,14.69,7.85,14.7ZM8.37,16A.29.29,0,0,0,8.2,16v-.11h.08l.17.1A.07.07,0,0,1,8.37,16Zm.54.64c.08,0,.11.06.12.09H9l0,0H9s0,0-.06,0l-.06,0ZM9,17v0l.1,0v0Zm.23.26.34-.07v0l-.35.08Zm.35.14a1.39,1.39,0,0,0-.35,0v0l.29-.09.14,0v.06C9.56,17.35,9.61,17.35,9.53,17.38Zm.31-.07a.06.06,0,0,1-.08,0l.09,0a.05.05,0,0,1,.07,0Zm.85-.91v0l.14,0v.06Zm.9,5.54a.23.23,0,0,0,0-.09h0a.05.05,0,0,1,.07,0v0Zm.63-5.31h-.06l-.26.09h-.06a.06.06,0,0,1-.08,0l.42-.1.14-.06,0,.05A.35.35,0,0,0,12.23,16.64Zm.33-.1v0l.08-.05.3-.07v0A2,2,0,0,0,12.55,16.54Zm0-.61-.08.05s0,0-.13,0,.21-.14.67-.25h.06v.06Zm.81-.88q0,.55-.39.63v0l-.2.08-.09,0a.22.22,0,0,1-.13,0l0-.08a12.36,12.36,0,0,1,.88-1.22h.07A1.27,1.27,0,0,1,13.41,15.05Zm1.43-1.22h0v-.06h.12v0Zm-.59,5.92a.37.37,0,0,0-.19,0v-.09s0-.05.06-.06.06,0,.07.08a1.11,1.11,0,0,1,.17-.19l.06,0Q14.38,19.74,14.25,19.75Zm6.32-6.61s-.09-.09-.18-.28V12.8q.09,0,.18.27Zm-.08-.66,0,.06-.86-.36Q20.46,12.21,20.49,12.47Zm-3.63,3.11h-.12v-.06h.12Zm-.1-1.87h0v.09s-.07,0-.11.12v-.06A.26.26,0,0,0,16.76,13.72Zm-.25.6v.11h0v-.11Zm-.14.22h.06q0,.15-.08.15h0A.3.3,0,0,0,16.37,14.53Zm-.1.3h0v0l-.05.09h-.06v0Q16.28,14.92,16.28,14.83Zm-.1.27,0,.15h0V15.1Zm-1,2.8q-.06.29-.12.3v0A.33.33,0,0,1,15.19,17.9Zm-.18.39v0a.05.05,0,0,1-.06.07v0S15,18.3,15,18.29Zm-.05.81h.09v0l-.09,0H14.9S14.92,19.12,15,19.11Zm2.6-.8a5.44,5.44,0,0,0-.91.51q-.83.29-.83.36a8.89,8.89,0,0,0-1,.43.35.35,0,0,1-.16,0,.25.25,0,0,1,.13-.24.52.52,0,0,1,.25,0,2.64,2.64,0,0,1,.48-.16v-.06l-.19,0a2.35,2.35,0,0,1,.53-.25H16v0q-.24,0-.26.14s0,.06.07.05S16,19,16,19a9.5,9.5,0,0,0,1.85-1v.06S17.73,18.18,17.55,18.3ZM16,18.81a.61.61,0,0,0,.38-.17s.06,0,.07.05a1.41,1.41,0,0,0-.41.18h0Zm2.5-1.92-.77.62a7.57,7.57,0,0,1-.94.57,7,7,0,0,1-1.71.78h0q0-.15,1.23-2.51a6.68,6.68,0,0,0,1.64-.49l.19,0a1,1,0,0,1,.84.22v.11Q18.76,16.79,18.51,16.89ZM17,16h.12v0H17Zm1.75-.3h.09q.13.06.13.11v0A.26.26,0,0,1,18.74,15.74ZM19,14.34a3.52,3.52,0,0,1-.66.5,8.62,8.62,0,0,0-1.33.52l-.12,0v-.06a.73.73,0,0,1,.15-.42q.09-.48.2-.54l.64-1.44q0-.13.41-.21h.09v.09l.51-.08q.76-.07.8.31h.06v-.14h.06a.39.39,0,0,1,.24.29.47.47,0,0,1-.12.3s-.06,0-.07-.08h-.06l0,.17q-.39.59-.56.6Q19,14.33,19,14.34Zm.26.87h.06l.13.08s0,.06-.06.06a.23.23,0,0,0-.13,0ZM9.9,16.59l.07,0v-.06l-.07,0ZM8.44,20.93l-.05,0a.06.06,0,0,0,.12,0v0Zm-.16-.44a.05.05,0,0,0,0-.07v0a.06.06,0,0,0,0,.07Zm23.6-2.64h0v.06H32S31.91,17.85,31.88,17.85Zm-.17-.13s0,0,0,0,0,0,0,0v0l0,0,0,0h0l0,.06.1,0h0v-.06Zm0,0h0Zm-4.58,1.1v.06h0v-.06Zm-1.28-2h0l-.06,0,0,.05s.06,0,.06-.06Zm4.13,1.65v.06H30l.08,0c.7-.08.78,0,.77-.13v0A4,4,0,0,1,29.93,18.49Zm-3.28-1.16-.06,0a1,1,0,0,0-.07.24v0S26.61,17.48,26.65,17.32Zm4.36,1v.06l.1,0v-.06Zm-4.78.59-.16,0L26,19v0l.94-.08v-.06Zm1.41-.15v-.06h0v.06Zm3.81-.88s0,0,0,0h0s0,0,0-.06l0-.06a.77.77,0,0,0-.36.09v0l-.19,0q0-.09,0-.08h-.1c-.11,0-.17,0-.23,0s0,0,0,0h-.11l-.07,0s0,0,0,0l0,0v0h-.19v.06l.08,0h.07l.08,0,.07,0v0a4.82,4.82,0,0,1-.61.12l0,0h0s-.06,0-.07-.05l.13,0,.09,0c.1-.05.11-.07.16-.08v-.06a3.73,3.73,0,0,1-.66.06h0v-.06a2.15,2.15,0,0,0,.58-.09s0,0,0,0a.12.12,0,0,1,.08,0h0a2.13,2.13,0,0,0,.67-.09v0l.07,0h.06c0-.06.08-.07.11-.07v-.06c-.7.14-.88.1-1.07.16v0a.91.91,0,0,1-.24,0l-.06,0s0,0,0,0h0l-.6.1s0,0,0,0a2.91,2.91,0,0,1-.64.11l-.08,0s0,0,0,0l-.25,0-.17,0s0,0,0,0l-.25,0h0s0,0,0,0l-.05,0H27.2l-.45.07h-.17s0,0,0,0q-.29,0-.29-.09,0-.27.13-.28h0l0,.06h0q.09,0,.09-.09v-.06h-.06v-.06a.22.22,0,0,1,0-.12l.14-.22v.06h.07v-.06l0-.05a.23.23,0,0,1,.12-.07v0h-.09v-.09a2.54,2.54,0,0,0,.25-.64l.06,0a.05.05,0,0,0,.06-.07H27v0a.22.22,0,0,1,0-.12.39.39,0,0,0,.13-.3s0,0,0,0,.14-.17.19-.37a11.49,11.49,0,0,0,.61-1.55,8.79,8.79,0,0,0,.56-1.84h-.06a.21.21,0,0,1,0,.12l-.1,0v0a.7.7,0,0,1,.15-.43h0l.05.2h.06a2.18,2.18,0,0,1,0-.24s0,0-.07-.05l-.06,0s0-.15,0-.32h0a.24.24,0,0,1-.08-.13l-.33,0a.28.28,0,0,0,0-.1s.07-.06.22-.09l.07,0,.06,0s0,0,0,0l.06,0s0,0,0,0h0V11h-.36l-.06,0v0l-2.64.22h-.33s0,0-.07,0l-.07,0-.23.06h-.27a.23.23,0,0,1-.13,0l.66,0a.31.31,0,0,1-.16.05.23.23,0,0,1-.13,0,3.75,3.75,0,0,1-.49.11l-.07,0-1.08.17a.27.27,0,0,0-.15,0l-.29.06-.52.22,0,.06.11,0,.18,0,0,.17a.47.47,0,0,0-.3.33q-.38.17-.38.24v0h0l.07,0,.08.1v.13s-.43.95-1.29,2.73-1.14,2.65-1.18,2.81q-.38.11-.45.32s.08.07.23.08v.07l-.07.11v.13q0,.1.56.16s0,0,0,0a2,2,0,0,1-.07.49h0a.87.87,0,0,0,.22-.43h0s.08,0,.12.13a5.47,5.47,0,0,0-.49,1.11l0,.06h0a8.07,8.07,0,0,1,.64-1.43l2.31-.24.07,0s0,0,0,0h.07l.07,0s0,0,0,0l.83-.07q.33,0,.31-.2s.13-.06.39-.1l.11,0s.13,0,.39-.07q0-.21.13-.22v-.07a1.11,1.11,0,0,0-.25.06,1.48,1.48,0,0,1-.33,0l-.11,0-.58,0-.07,0s0,0,0,0h0l-.07,0s-.06,0-.18-.05l-.07,0h-.14v0q1.12-.12,1.1-.3a.06.06,0,0,1,.08.07l.22-.06V17.9l-1.78,0s0,0,0,0l-.22,0a.27.27,0,0,0-.14,0l-.08,0a2.62,2.62,0,0,0-.5.08,3.2,3.2,0,0,0-.51,0l-.4,0-.18,0a9.19,9.19,0,0,1,.69-1.74,1.52,1.52,0,0,1,.38-.65l.11,0,.28-.1.15,0a3.42,3.42,0,0,0,.86-.21.41.41,0,0,1,.18,0l.22,0,.65-.06a4.46,4.46,0,0,0,.9-.18V15.1q-.18,0-.19-.06t-.26-.11v-.07l.18-.05.47,0v-.07h-.29v-.07l.18,0s.07,0,.07-.07q-.36,0-.37,0a15.7,15.7,0,0,1-2.55,0l-.11,0,0-.07a5.55,5.55,0,0,1,.79-1.44.38.38,0,0,1-.06.18v0h.07q.27-.64.45-.65c.53,0-.07-.08,1.06-.26l.1,0q.67-.14,1.87-.28v-.07l-.42,0V12a.23.23,0,0,0,.13,0v0l.1,0a.3.3,0,0,1,.17,0l.36-.07.26,0q.1-.06.09-.11v0a.87.87,0,0,1-.23,0s0-.06.06-.07l.49,0,.23-.06s0,0,0,0l.1,0h0a2,2,0,0,0-.1.27h-.07a.25.25,0,0,0,0-.12h0c-.6,1.67-.87,2.45-1.42,3.74q-.15.49-.26.55s0,.06.07.05a.81.81,0,0,1-.11.48,4.94,4.94,0,0,1-.51,1.22l.06.35s0,.06-.06.06h-.06q0-.14-.11-.14h0a1.43,1.43,0,0,0-.18.43h.06a.2.2,0,0,0,.11-.19h.12l.07,0a.38.38,0,0,0-.08.21l0,.05-.08.18v0a.38.38,0,0,1,.23.06.4.4,0,0,0,.18-.07h.77l.22-.08a5.39,5.39,0,0,0,.55,0h.1l.05,0v0a1.55,1.55,0,0,1,.46,0v0h-.14v.06a.2.2,0,0,0,.11,0s.06,0,.06.06l-.19,0-.06,0c-.1,0-.07,0-.14,0l-.09,0s0,0,0,0,0,.06.06.05h.12l.49,0,.19,0s0,0,0,0l.09,0h.17c.14,0,.13,0,.42-.07,0,0,0,0,0,0v0a3.93,3.93,0,0,0,.58-.11h0c.12,0,.05,0,.08,0s0,0,0,0h.08v-.06h-.21a1,1,0,0,1-.19,0l-.42,0v0l.24,0h.08l0,0v0a8,8,0,0,0,2-.27c.08,0,.08-.08.13-.22l-.08,0A2.29,2.29,0,0,1,31,18s0,0,0-.05v0h.24A.6.6,0,0,0,31.45,17.89Zm-11.38.21H20a2.13,2.13,0,0,1,.17-.49h.07A1.72,1.72,0,0,1,20.08,18.09Zm.13-.53v0s0-.06.07-.07v0S20.26,17.56,20.21,17.56Zm1.45,1.12v0l-.18,0v0Zm-.22,0s-.05.08-.17.12l-.22,0H21V18.7Zm1.46-6.73h-.11v0s0-.06.07-.07h0l.07,0S22.94,11.93,22.9,11.94Zm1.65-.32h0v.07h-.1S24.51,11.63,24.55,11.62Zm-.42.14-.16,0v0a1.75,1.75,0,0,0,.42-.08s0,0,.07,0v.07h-.07a.23.23,0,0,1-.13,0A.25.25,0,0,1,24.13,11.76Zm.21.6v0l.26,0v0Zm.28-.23v0h.13v0Zm0-.45h0l0-.07.29,0v0Zm.15.64v-.07h.13a.06.06,0,0,1,.07.06Zm.81-1.08-.2.06h-.33A4.15,4.15,0,0,0,25.62,11.24Zm-.21.75v0l-.23,0v0Zm.37.18s0,0-.14-.06l-.23.07h-.16s-.07,0-.07-.06h.2l.46-.07h.23v0A1.24,1.24,0,0,0,25.78,12.16Zm2.35-.61h.06a.91.91,0,0,1,.27-.17,1.63,1.63,0,0,1-.38.8L28,12.1A3.67,3.67,0,0,0,28.14,11.55Zm-.39.68h0q-.07.13-.12.13v-.09Zm-.26.61a.87.87,0,0,1,.18-.43v0q0,.35-.15.36V13a.31.31,0,0,0-.08.18h0l0-.2S27.46,12.91,27.49,12.85Zm-.1.33a.78.78,0,0,1-.07.24h0v-.09Q27.35,13.18,27.39,13.18ZM25.52,18.6v0h.06v.09S25.53,18.64,25.52,18.6Zm2.67.07s0,0,0,0H28v0s0,0,0,0,0,0,0,0l.35,0v0A.34.34,0,0,0,28.19,18.67ZM28,18.18l-.2,0v0l.18,0,.16,0s0,0,0,0l.26,0s0,0,.05.05Zm.5-.07v0l.18,0v0s0,0,0,0A.82.82,0,0,0,28.53,18.1Zm.21,0v0h.1v0Zm.22,0v0L29,18a.07.07,0,0,1,.08.07Zm.27,0v0h.12v0Zm.16,0a0,0,0,0,1,0-.06l0,.05s0,0,0,0l0,.05Z"/></g></g></svg>