<svg id="Bases" xmlns="http://www.w3.org/2000/svg" viewBox="0 0 32 32"><defs><style>.cls-1{fill:#dcdbdd;}.cls-2{fill:#1ba1e2;}</style></defs><title>config.appveyor</title><g id="_编组_" data-name="&lt;编组&gt;"><path class="cls-1" d="M16,5A11,11,0,1,1,5,16,11,11,0,0,1,16,5m0-2A13,13,0,1,0,29,16,13,13,0,0,0,16,3Z"/></g><path class="cls-2" d="M19.77,11.3a6.06,6.06,0,0,0-7.22,0L5.32,17A7.94,7.94,0,0,0,6,19.84l4.12-4.5a5.78,5.78,0,0,0,2.1,5.28,5.58,5.58,0,0,0,4.89,1.09l-4.58,4.43a9.94,9.94,0,0,0,3,.54l5.28-7.53A5.87,5.87,0,0,0,19.77,11.3Zm-.85,7A3.76,3.76,0,1,1,13,13.63a4,4,0,0,1,5.44-.7A3.74,3.74,0,0,1,18.91,18.29Z"/></svg>