<svg id="Bases" xmlns="http://www.w3.org/2000/svg" viewBox="0 0 32 32"><defs><style>.cls-1{fill:#dcdbdd;}.cls-2{fill:#1ba1e2;}</style></defs><title>config.format</title><path class="cls-1" d="M19.28,4H7.93A1.91,1.91,0,0,0,6,6V26a1.91,1.91,0,0,0,1.93,2h16A2,2,0,0,0,26,26V10ZM24,26H8V6H18v6h6Z"/><rect class="cls-2" x="10" y="8" width="2" height="2"/><rect class="cls-2" x="10" y="12" width="2" height="2"/><rect class="cls-2" x="10" y="16" width="2" height="2"/><rect class="cls-2" x="10" y="20" width="2" height="2"/><rect class="cls-2" x="10" y="24" width="2" height="2"/><rect class="cls-2" x="18" y="20" width="2" height="2"/><rect class="cls-2" x="22" y="20" width="2" height="2"/><rect class="cls-2" x="14" y="20" width="2" height="2"/></svg>