<svg xmlns="http://www.w3.org/2000/svg" viewBox="0 0 32 32"><defs><style>.a{fill:#f77737;}.b{fill:#424242;}.c{fill:#dcdbdd;}</style></defs><title>config.grunt</title><path class="a" d="M18.63,14.68a2.17,2.17,0,0,1-.33-.47l.52.08,0,0,.12.07A.86.86,0,0,1,18.63,14.68Z"/><path class="a" d="M23,11.8a4.79,4.79,0,0,0-.68.21.38.38,0,0,0-.17,0,.26.26,0,0,1,0-.07l-.87.3-.45.13s-.35.27-.74.62a3.33,3.33,0,0,1,1.13-.49s0,0,0,.06a7.19,7.19,0,0,0-2.28,1.88l-.12-.07,0,0-.52-.08a2.17,2.17,0,0,0,.33.47,1.11,1.11,0,0,1-1.69-.82,1.47,1.47,0,0,0,1.81-.45A4.41,4.41,0,0,1,23,11.8Z"/><path class="b" d="M13.26,13.41A4.44,4.44,0,0,0,9,11.8a5.22,5.22,0,0,1,.68.21.75.75,0,0,0-.35.6,1.61,1.61,0,0,0,.27,1,2.18,2.18,0,0,1,.21-.85,2.65,2.65,0,0,0,.64,1.74c.37.4,1.91,1.25,2.89.2a1.11,1.11,0,0,0,1.69-.82A1.45,1.45,0,0,1,13.26,13.41ZM22.8,16.2a2.12,2.12,0,0,0-1,1.74A31.63,31.63,0,0,0,22,21.78a6,6,0,0,1-2,.35,5.86,5.86,0,0,1-.28-.67c0-.09-1-2.59-1.34-3.16a21.66,21.66,0,0,0,1.2,4.56,3.7,3.7,0,0,0-.6,0H13a3.7,3.7,0,0,0-.6,0,21.66,21.66,0,0,0,1.2-4.56c-.34.57-1.3,3.07-1.34,3.16a5.86,5.86,0,0,1-.28.67,6,6,0,0,1-2-.35,31.63,31.63,0,0,0,.17-3.84,2.12,2.12,0,0,0-1-1.74L8.78,16c-.76-.4-1.54-.83-1.54-1.55a1,1,0,0,1,.45-.92l0,0,.1-.09a3.6,3.6,0,0,1-.13.75,4.64,4.64,0,0,0,.8-2.25A5.69,5.69,0,0,0,8.23,9.7a5.56,5.56,0,0,1,0,.71l-.06-.09A2,2,0,0,1,7.67,9,.61.61,0,0,1,8,8.57a1.67,1.67,0,0,1,.77-.15,6.18,6.18,0,0,1,1.67.3,12.61,12.61,0,0,1,3.25,1.92l0,0,.29.19.6.78h0c.08.1.77.88,1.38.89a1.75,1.75,0,0,0,.94-.45,4.19,4.19,0,0,0,.44-.44h0l.61-.78.28-.19,0,0a12.61,12.61,0,0,1,3.25-1.92,6.18,6.18,0,0,1,1.67-.3,1.67,1.67,0,0,1,.77.15.61.61,0,0,1,.34.4,2,2,0,0,1-.48,1.35.34.34,0,0,0-.06.12,6,6,0,0,1,0-.74,5.69,5.69,0,0,0-.26,2.18,4.64,4.64,0,0,0,.8,2.25,3.6,3.6,0,0,1-.13-.75l.1.09,0,0a1,1,0,0,1,.45.92c0,.72-.78,1.15-1.54,1.55Zm-.64-3.46a2.18,2.18,0,0,1,.21.85,1.61,1.61,0,0,0,.27-1,.75.75,0,0,0-.35-.6A4.79,4.79,0,0,1,23,11.8a4.41,4.41,0,0,0-4.22,1.61,1.47,1.47,0,0,1-1.81.45,1.11,1.11,0,0,0,1.69.82c1,1.05,2.52.2,2.89-.2A2.65,2.65,0,0,0,22.16,12.74Z"/><path class="a" d="M18.92,14.4a1.68,1.68,0,0,0,1.92-.08,1.76,1.76,0,0,0,.36-1.8l.55-.28,0,0s.24.06.43.45h0a2.65,2.65,0,0,1-.64,1.74c-.37.4-1.91,1.25-2.89.2A.86.86,0,0,0,18.92,14.4Z"/><path class="a" d="M13.08,14.4a7.34,7.34,0,0,0-2.28-1.89l0,0A3.33,3.33,0,0,1,12,13c-.39-.35-.74-.61-.74-.62l-.45-.13-.87-.3a.35.35,0,0,0,0,.07.34.34,0,0,0-.16,0h0A5.22,5.22,0,0,0,9,11.8a4.44,4.44,0,0,1,4.23,1.61,1.45,1.45,0,0,0,1.8.45,1.11,1.11,0,0,1-1.69.82,2.17,2.17,0,0,0,.33-.47l-.52.08a.11.11,0,0,0,0,0Z"/><path class="a" d="M13.7,14.21a2.17,2.17,0,0,1-.33.47.86.86,0,0,1-.29-.28l.12-.07a.11.11,0,0,1,0,0Z"/><path class="c" d="M23.85,13a4.29,4.29,0,0,1-.06-2.53A8.47,8.47,0,0,0,24,11.88s.08.84.17,1.5A1.26,1.26,0,0,1,23.85,13Z"/><path class="c" d="M23.65,5.73V5.68C23.81,5.69,23.75,5.71,23.65,5.73Z"/><path class="c" d="M23.58,5.7l0,0h.05v.05l-.08,0Z"/><path class="c" d="M24.31,14.13a4.64,4.64,0,0,1-.8-2.25,5.69,5.69,0,0,1,.26-2.18,6,6,0,0,0,0,.74A4.29,4.29,0,0,0,23.85,13a1.26,1.26,0,0,0,.33.41A3.6,3.6,0,0,0,24.31,14.13Z"/><path class="c" d="M23.58,5.7l-.1.06.09-.28-.21,0,.08-.06.23,0Z"/><path class="c" d="M23.48,5.76l.1-.06v0h-.09Z"/><path class="c" d="M23.44,5.38l.09-.06.16,0,.07,0-.1.3h-.05l0,0,.09-.27Z"/><path class="c" d="M23.44,5.3l.09,0-.09.06-.08,0A.16.16,0,0,1,23.44,5.3Z"/><path class="c" d="M23.35,5.44h-.09l.09-.07h0l.08,0-.08.06Z"/><path class="c" d="M23.06,5.7l.29-.26h0l.21,0-.09.28A2.28,2.28,0,0,0,23.06,5.7Z"/><path class="c" d="M23,8.21,22.21,8a.7.7,0,0,0,.16-.19h0a4.38,4.38,0,0,1,.82-.08h.06A.59.59,0,0,1,23,8.21Z"/><path class="c" d="M23.06,5.7a2.28,2.28,0,0,1,.42.06h.08l0,.1A2.43,2.43,0,0,0,23,5.76Z"/><path class="c" d="M23.35,5.44l-.29.26H23a1.8,1.8,0,0,1,.3-.26Z"/><path class="c" d="M23.06,5.7l0,.06h-.1L23,5.69Z"/><path class="c" d="M23,5.76a2.43,2.43,0,0,1,.52.09l0-.1h0l.08,0L23.58,6l-.08,0a1.84,1.84,0,0,0-.57-.08L23,5.76Z"/><path class="c" d="M22.91,5.76H23l-.07.08h-.08A.21.21,0,0,1,22.91,5.76Z"/><path class="c" d="M22.92,24.59a2.46,2.46,0,0,1-.27.89,6.14,6.14,0,0,1-1,.27,3.65,3.65,0,0,0,.42-.85,3,3,0,0,0,.77-.31Z"/><path class="c" d="M22.74,21.32l0,.25c-.28.18-.47.22-.75.4,0-.06,0-.13,0-.19h0A2.3,2.3,0,0,0,22.74,21.32Z"/><path class="c" d="M22.38,7.76a2,2,0,0,0,.2-.84A1.84,1.84,0,0,1,22.79,6l.13-.2h0a1.84,1.84,0,0,1,.57.08l.08,0,0,0a1.42,1.42,0,0,0-.33.36,1.56,1.56,0,0,0-.12.61,4.91,4.91,0,0,0,.09.71H23.2A4.38,4.38,0,0,0,22.38,7.76Z"/><path class="c" d="M22.86,24.59a3,3,0,0,1-.77.31,1.19,1.19,0,0,0,.09-.31Z"/><path class="a" d="M22.64,12.61a1.61,1.61,0,0,1-.27,1,2.18,2.18,0,0,0-.21-.85h0a2.56,2.56,0,0,0,0-.66l.16-.06A.75.75,0,0,1,22.64,12.61Z"/><path class="c" d="M22.58,6.92a2,2,0,0,1-.2.84h0l-.1,0a1.59,1.59,0,0,0,.23-.87A2.14,2.14,0,0,1,22.72,6a.79.79,0,0,1,.12-.15h.08l-.13.2A1.84,1.84,0,0,0,22.58,6.92Z"/><path class="c" d="M22.21,8l.79.26a.59.59,0,0,0,.26-.53h.08a.7.7,0,0,1-.29.59l0,0-1-.31.1-.09.11-.11.1,0A.7.7,0,0,1,22.21,8Z"/><path class="a" d="M22.13,12.07a.28.28,0,0,0,0-.1.38.38,0,0,1,.17,0Z"/><path class="a" d="M22.16,12.73c-.19-.39-.43-.45-.43-.45l0,0h0l.38-.16A2.56,2.56,0,0,1,22.16,12.73Z"/><path class="b" d="M20.4,22.85c1.37-.06,3.22-.55,3.78-2.3a3.73,3.73,0,0,1-.19,3,2.9,2.9,0,0,1-1.13,1h-.68a1.19,1.19,0,0,1-.09.31,3.84,3.84,0,0,1-1.06.16,1.51,1.51,0,0,0-.2-1.62h0a.1.1,0,0,1,0-.05A5.06,5.06,0,0,1,20.4,22.85Z"/><path class="c" d="M20.09,27a3.4,3.4,0,0,0,1.58-1.29,6.14,6.14,0,0,0,1-.27A4.19,4.19,0,0,1,19.23,28a1.64,1.64,0,0,0,.25-.21A4.35,4.35,0,0,0,20.09,27Z"/><path class="a" d="M21.75,12.23a.45.45,0,0,1,.37-.26.28.28,0,0,1,0,.1Z"/><path class="b" d="M22.72,6a2.14,2.14,0,0,0-.22.91,1.59,1.59,0,0,1-.23.87,4,4,0,0,0-.57.13,3,3,0,0,0-.54-.57,2.46,2.46,0,0,1,.69-1.14,1.63,1.63,0,0,1,1-.35A.79.79,0,0,0,22.72,6Z"/><path class="c" d="M21.8,6.14a1.75,1.75,0,0,1,1.11-.38.21.21,0,0,0-.06.08h0a1.63,1.63,0,0,0-1,.35,2.46,2.46,0,0,0-.69,1.14s0,0-.06,0h0A2.54,2.54,0,0,1,21.8,6.14Z"/><path class="c" d="M21.76,6.08a1.81,1.81,0,0,1,1.16-.39h0l-.05.07a1.75,1.75,0,0,0-1.11.38,2.54,2.54,0,0,0-.7,1.15l-.06,0A2.46,2.46,0,0,1,21.76,6.08Z"/><path class="c" d="M20.93,8.31s0-.05-.06-.11L21.3,8l.4-.12a1.2,1.2,0,0,1,.11.17l.08.1-.92.2,0,0Z"/><path class="c" d="M21.59,5.83A2.37,2.37,0,0,1,23,5.41l.29,0a1.8,1.8,0,0,0-.3.26h0a1.81,1.81,0,0,0-1.16.39A2.46,2.46,0,0,0,21,7.24a3.35,3.35,0,0,0-.46-.31A3,3,0,0,1,21.59,5.83Z"/><path class="a" d="M18.92,14.4a7.19,7.19,0,0,1,2.28-1.88,1.76,1.76,0,0,1-.36,1.8A1.68,1.68,0,0,1,18.92,14.4Z"/><path class="c" d="M20.71,25.87c.11-.24.2-.49.29-.73l0-.08a3.84,3.84,0,0,0,1.06-.16,3.65,3.65,0,0,1-.42.85A7.41,7.41,0,0,1,20.71,25.87Z"/><path class="c" d="M20.5,25.89a1.73,1.73,0,0,0,.17-.84H21l0,.08c-.09.24-.18.49-.29.73Z"/><path class="b" d="M21.67,25.75A3.4,3.4,0,0,1,20.09,27a6.55,6.55,0,0,0,.62-1.17A7.41,7.41,0,0,0,21.67,25.75Z"/><path class="c" d="M22,22c.28-.18.47-.22.75-.4l0-.25A3.65,3.65,0,0,0,24,19.12a3.68,3.68,0,0,1,1,3.59,3.41,3.41,0,0,1-2.38,2.77,2.46,2.46,0,0,0,.27-.89h-.06a2.9,2.9,0,0,0,1.13-1,3.73,3.73,0,0,0,.19-3c-.56,1.75-2.41,2.24-3.78,2.3a6,6,0,0,1-.41-.72,6,6,0,0,0,2-.35C22,21.84,22,21.91,22,22Z"/><path class="c" d="M21.55,5.77a2.53,2.53,0,0,1,1.8-.41l-.09.07-.29,0a2.37,2.37,0,0,0-1.38.42,3,3,0,0,0-1,1.1l-.06,0A2.93,2.93,0,0,1,21.55,5.77Z"/><path class="c" d="M21,7.34l-.5-.2a1,1,0,0,1,.07-.21,3.35,3.35,0,0,1,.46.31Z"/><path class="c" d="M21.51,5.71A2.55,2.55,0,0,1,23,5.26a2.84,2.84,0,0,1,.47,0,.16.16,0,0,0-.08.06h0a2.53,2.53,0,0,0-1.8.41,2.93,2.93,0,0,0-1,1.12l-.06,0h0A3,3,0,0,1,21.51,5.71Z"/><path class="c" d="M20.51,7.14l.5.2,0-.1.06,0h0a1.31,1.31,0,0,0,0,.14l-.64-.26a.83.83,0,0,1,.1-.29l.06,0A1,1,0,0,0,20.51,7.14Z"/><path class="c" d="M20.35,7.17a.83.83,0,0,1,.11-.31l.06,0a.83.83,0,0,0-.1.29l.64.26a1.31,1.31,0,0,1,0-.14s0,0,.06,0l0,.11,0,.09-.77-.31Z"/><path class="a" d="M20.05,13c.39-.35.74-.61.74-.62l.45-.13.87-.3a.26.26,0,0,0,0,.07.45.45,0,0,0-.37.26h0l-.55.28s0,0,0-.06A3.33,3.33,0,0,0,20.05,13Z"/><path class="b" d="M23,5.26a2.55,2.55,0,0,0-1.46.45,3,3,0,0,0-1.05,1.14l-.36-.19-.24-.11a4.24,4.24,0,0,1,1.91-1.64,3,3,0,0,1,.9-.14A3.37,3.37,0,0,1,23.93,5a3,3,0,0,0-.49.27A2.84,2.84,0,0,0,23,5.26Z"/><path class="c" d="M22.67,4.77a3,3,0,0,0-.9.14,4.24,4.24,0,0,0-1.91,1.64l-.07,0a4.24,4.24,0,0,1,2-1.68A3.29,3.29,0,0,1,24.11,5a3.92,3.92,0,0,0-.58.29l-.09,0A3,3,0,0,1,23.93,5,3.37,3.37,0,0,0,22.67,4.77Z"/><path class="c" d="M19.94,22.86a1.54,1.54,0,0,0-.16-.68l0,0H20a6,6,0,0,0,.41.72Z"/><path class="c" d="M24.11,5a3.29,3.29,0,0,0-2.36-.19,4.24,4.24,0,0,0-2,1.68A5,5,0,0,0,19,6.24a5.71,5.71,0,0,1,2.46-2A3.53,3.53,0,0,1,25,5l.33.38-.5.1A2.92,2.92,0,0,0,23.62,6l0,0,.07-.22c.1,0,.16,0,0-.05l.1-.3-.07,0-.16,0A3.92,3.92,0,0,1,24.11,5Z"/><path class="c" d="M20.09,27a4.35,4.35,0,0,1-.61.75,1.64,1.64,0,0,1-.25.21l-.12,0-.05-.73A2.94,2.94,0,0,0,20.09,27Z"/><path class="c" d="M19.57,22.86a21.66,21.66,0,0,1-1.2-4.56c.34.57,1.3,3.07,1.34,3.16a5.86,5.86,0,0,0,.28.67h-.24l0,0a1.54,1.54,0,0,1,.16.68h.46a5.06,5.06,0,0,0,.38.54A2,2,0,0,0,19.57,22.86Z"/><path class="c" d="M19.57,22.86a2,2,0,0,1,1.21.53.1.1,0,0,0,0,.05.73.73,0,0,0,.09.12s-1.11,0-1.17-.24C19.73,23.28,19.66,23.12,19.57,22.86Z"/><path class="c" d="M22.68,4A3.48,3.48,0,0,1,25,4.9l.41.48-.62.13a2.54,2.54,0,0,0-1.48.89,1.55,1.55,0,0,0-.11.57,1.4,1.4,0,0,0,.05.41c0,.1,0,.2.05.3h-.08A4.91,4.91,0,0,1,23.17,7a1.56,1.56,0,0,1,.12-.61A1.42,1.42,0,0,1,23.62,6a2.92,2.92,0,0,1,1.19-.57l.5-.1L25,5a3.53,3.53,0,0,0-3.5-.67,5.71,5.71,0,0,0-2.46,2,.09.09,0,0,0-.07,0,5.77,5.77,0,0,1,2.51-2A4,4,0,0,1,22.68,4Z"/><path class="c" d="M19,6.24a5,5,0,0,1,.77.28l-.16.25-.74-.35S18.94,6.34,19,6.24Z"/><path class="b" d="M19.77,7.43a2.84,2.84,0,0,1,1.1.77,6.56,6.56,0,0,0-2.7,2.36l-.17.29-.61.78h0a2.84,2.84,0,0,1-1.38.41,2.84,2.84,0,0,1-1.38-.41h0l-.6-.78-.18-.29a6.56,6.56,0,0,0-2.7-2.36,2.84,2.84,0,0,1,1.1-.77A8.5,8.5,0,0,1,16,6.63,8.5,8.5,0,0,1,19.77,7.43Z"/><path class="c" d="M19.86,6.55l-.17.26,0,.06-.87-.41,0-.07L19,6.21a.09.09,0,0,1,.07,0c-.08.1-.12.17-.13.18l.74.35.16-.25Z"/><path class="c" d="M23.17,16.84a1.7,1.7,0,0,0-.62,1.33,28.94,28.94,0,0,0,.19,3.15,2.3,2.3,0,0,1-.7.45h0a31.63,31.63,0,0,1-.17-3.84,2.12,2.12,0,0,1,1-1.74l.42-.24c.76-.4,1.54-.83,1.54-1.55a1,1,0,0,0-.45-.92l0,0-.1-.09c-.09-.66-.17-1.5-.17-1.5a8.47,8.47,0,0,1-.22-1.44.34.34,0,0,1,.06-.12A2,2,0,0,0,24.33,9a.61.61,0,0,0-.34-.4,1.67,1.67,0,0,0-.77-.15,6.18,6.18,0,0,0-1.67.3,12.61,12.61,0,0,0-3.25,1.92l0,0-.28.19.17-.29a6.56,6.56,0,0,1,2.7-2.36c0,.06.06.09.06.11v0l0,0,.92-.2-.08-.1a1.2,1.2,0,0,0-.11-.17,4,4,0,0,1,.57-.13l-.11.11-.1.09,1,.31,0,0a.7.7,0,0,0,.29-.59,2.58,2.58,0,0,1,1,.23,1.35,1.35,0,0,1,.71.86,2.63,2.63,0,0,1-.6,2,4.13,4.13,0,0,0,.09,1.91.65.65,0,0,0,.22.22l.11.09a1.62,1.62,0,0,1,.78,1.41c0,1.12-1.14,1.73-2.05,2.22Z"/><path class="c" d="M19.13,24.25a.65.65,0,0,1,.48.15.35.35,0,0,1,0,.4,2.63,2.63,0,0,1-.7.92.92.92,0,0,1-.59.21.75.75,0,0,1-.56-.22,3.56,3.56,0,0,1-.66-1,.28.28,0,0,1,0-.33.62.62,0,0,1,.45-.14h1.5Z"/><path class="c" d="M17.38,11.64a4.19,4.19,0,0,1-.44.44,1.75,1.75,0,0,1-.94.45c-.61,0-1.3-.79-1.38-.89a2.84,2.84,0,0,0,1.38.41A2.84,2.84,0,0,0,17.38,11.64Z"/><path class="c" d="M13.34,6.12a2.68,2.68,0,0,1,1.43-2.45c0,.23,0,1.12.37,1.4.11-.74.49-1.54,2-2.07a2.51,2.51,0,0,0,.09,1.89c1-.93,1.71-.77,1.71-.77a3.23,3.23,0,0,0-.45,2A9.78,9.78,0,0,0,16,5.78Z"/><path class="c" d="M18.49,6.15c-2-.17-5.14.21-5.15,0v0L16,5.78a9.78,9.78,0,0,1,2.47.3A.64.64,0,0,0,18.49,6.15Z"/><path class="c" d="M12.35,24.8a.35.35,0,0,1,0-.4.66.66,0,0,1,.49-.15h1.49a.62.62,0,0,1,.45.14.28.28,0,0,1,0,.33,3.56,3.56,0,0,1-.66,1,.75.75,0,0,1-.56.22.92.92,0,0,1-.59-.21A2.63,2.63,0,0,1,12.35,24.8Z"/><path class="c" d="M12.77,28a3.73,3.73,0,0,1-.86-1,2.94,2.94,0,0,0,1,.25l0,.73Z"/><path class="c" d="M12.37,6.77l-.16-.25L13,6.24c.08.1.12.17.13.18Z"/><path class="c" d="M12.21,6.52l.16.25.74-.35s0-.08-.13-.18l.07,0c.08.11.12.18.12.18l.05.07-.87.41,0-.06-.17-.26Z"/><path class="c" d="M11.6,22.85a5.28,5.28,0,0,0,.41-.72h.24l0,0a1.54,1.54,0,0,0-.16.68Z"/><path class="b" d="M12.39,24.4a.35.35,0,0,0,0,.4,2.63,2.63,0,0,0,.7.92.92.92,0,0,0,.59.21.75.75,0,0,0,.56-.22,3.56,3.56,0,0,0,.66-1,.28.28,0,0,0,0-.33.62.62,0,0,0-.45-.14H12.88A.66.66,0,0,0,12.39,24.4ZM19,23.47a1.6,1.6,0,0,1,1.25.37,1.16,1.16,0,0,1,0,1.17A4.34,4.34,0,0,1,16,28.3,4.34,4.34,0,0,1,11.69,25a1.16,1.16,0,0,1,0-1.17A1.6,1.6,0,0,1,13,23.47h6Zm.59.93a.65.65,0,0,0-.48-.15h-1.5a.62.62,0,0,0-.45.14.28.28,0,0,0,0,.33,3.56,3.56,0,0,0,.66,1,.75.75,0,0,0,.56.22.92.92,0,0,0,.59-.21,2.63,2.63,0,0,0,.7-.92A.35.35,0,0,0,19.61,24.4Z"/><path class="c" d="M12.43,22.86a2,2,0,0,0-1.21.53,5.06,5.06,0,0,0,.38-.54h.46a1.54,1.54,0,0,1,.16-.68l0,0H12a5.86,5.86,0,0,0,.28-.67c0-.09,1-2.59,1.34-3.16A21.66,21.66,0,0,1,12.43,22.86Z"/><path class="b" d="M11.91,27a3.4,3.4,0,0,1-1.58-1.29,7.41,7.41,0,0,0,1,.12A6.55,6.55,0,0,0,11.91,27Z"/><path class="c" d="M11,25.14l0-.08h.36a1.73,1.73,0,0,0,.17.84l-.21,0C11.18,25.63,11.09,25.38,11,25.14Z"/><path class="c" d="M11.09,23.56l.13-.17a2,2,0,0,1,1.21-.53c-.09.26-.16.42-.17.46C12.2,23.51,11.09,23.56,11.09,23.56Z"/><path class="c" d="M19.57,22.86c.09.26.16.42.17.46.06.19,1.17.24,1.17.24a.73.73,0,0,1-.09-.12h0a1.51,1.51,0,0,1,.2,1.62h-.36a1.73,1.73,0,0,1-.17.84l.21,0A6.55,6.55,0,0,1,20.09,27a2.94,2.94,0,0,1-1,.25l.05.73.12,0A22.76,22.76,0,0,1,16,29a4.82,4.82,0,0,1-3.23-1l.12,0,0-.73a2.94,2.94,0,0,1-1-.25,6.55,6.55,0,0,1-.62-1.17l.21,0a1.73,1.73,0,0,1-.17-.84H11a1.51,1.51,0,0,1,.2-1.62l.05-.05-.13.17s1.11,0,1.17-.24c0,0,.08-.2.17-.46a3.7,3.7,0,0,1,.6,0H19A3.7,3.7,0,0,1,19.57,22.86Zm.7,1A1.6,1.6,0,0,0,19,23.47H13a1.6,1.6,0,0,0-1.25.37,1.16,1.16,0,0,0,0,1.17A4.34,4.34,0,0,0,16,28.3,4.34,4.34,0,0,0,20.31,25,1.16,1.16,0,0,0,20.27,23.84Z"/><path class="c" d="M11.5,7.14l-.51.2,0-.1a3.35,3.35,0,0,1,.46-.31A1.19,1.19,0,0,1,11.5,7.14Z"/><path class="c" d="M11,7.34l.51-.2a1.19,1.19,0,0,0-.08-.21l.06,0a.83.83,0,0,1,.1.29l-.64.26a1.31,1.31,0,0,0,0-.14h0l.06,0Z"/><path class="c" d="M12.77,28a4.19,4.19,0,0,1-3.42-2.52,6.14,6.14,0,0,0,1,.27A3.4,3.4,0,0,0,11.91,27,3.73,3.73,0,0,0,12.77,28Z"/><path class="c" d="M10.87,7.45l0-.11s0,0,.06,0a1.31,1.31,0,0,1,0,.14l.64-.26a.83.83,0,0,0-.1-.29l.06,0a.83.83,0,0,1,.11.31v.06l-.77.31Z"/><path class="a" d="M10.8,12.51a7.34,7.34,0,0,1,2.28,1.89,1.68,1.68,0,0,1-1.92-.08A1.78,1.78,0,0,1,10.8,12.51Z"/><path class="c" d="M19.77,7.43A8.5,8.5,0,0,0,16,6.63a8.5,8.5,0,0,0-3.77.8,2.84,2.84,0,0,0-1.1.77A3.2,3.2,0,0,0,10.7,8l-.4-.12a3,3,0,0,1,.54-.57l0,.11,0,.09.77-.31V7.17a.83.83,0,0,0-.11-.31h0l.36-.19.24-.11.17.26,0,.06.87-.41-.05-.07s0-.07-.12-.18l.29-.09v0c0,.21,3.1-.17,5.15,0a.64.64,0,0,1,0-.07,3.36,3.36,0,0,1,.48.13l-.12.18,0,.07.87.41,0-.06.17-.26.24.11.36.19h0a.83.83,0,0,0-.11.31v.06l.77.31,0-.09,0-.11a3,3,0,0,1,.54.57L21.3,8l-.43.17A2.84,2.84,0,0,0,19.77,7.43Z"/><path class="c" d="M11,8.38l-.92-.2.08-.1a1.2,1.2,0,0,1,.11-.17l.4.12a3.2,3.2,0,0,1,.43.17c0,.06-.06.09-.06.11l0,0Z"/><path class="c" d="M11.29,25.87a7.41,7.41,0,0,1-1-.12,3.65,3.65,0,0,1-.42-.85,3.84,3.84,0,0,0,1.06.16l0,.08C11.09,25.38,11.18,25.63,11.29,25.87Z"/><path class="a" d="M9.84,12.73c.19-.39.43-.45.43-.45l0,0,.55.28a1.78,1.78,0,0,0,.36,1.81,1.68,1.68,0,0,0,1.92.08.86.86,0,0,0,.29.28c-1,1.05-2.52.2-2.89-.2a2.65,2.65,0,0,1-.64-1.74Z"/><path class="a" d="M10.25,12.23l-.38-.16h0a.22.22,0,0,1,0-.09A.45.45,0,0,1,10.25,12.23Z"/><path class="c" d="M10,21.78c0,.06,0,.13,0,.19-.28-.18-.47-.22-.75-.4l0-.25a2.3,2.3,0,0,0,.7.45Z"/><path class="a" d="M10.25,12.23A.45.45,0,0,0,9.88,12a.35.35,0,0,1,0-.07l.87.3.45.13s.35.27.74.62a3.33,3.33,0,0,0-1.13-.49l0,0Z"/><path class="a" d="M9.72,12a.34.34,0,0,1,.16,0,.22.22,0,0,0,0,.09Z"/><path class="a" d="M10.27,12.28s-.24.06-.43.45a2.56,2.56,0,0,1,0-.66l.38.16Z"/><path class="c" d="M9.91,24.9a3,3,0,0,1-.77-.31h.68A1.19,1.19,0,0,0,9.91,24.9Z"/><path class="a" d="M9.63,13.59a1.61,1.61,0,0,1-.27-1,.75.75,0,0,1,.35-.6h0l.15.05h0a2.56,2.56,0,0,0,0,.66h0A2.18,2.18,0,0,0,9.63,13.59Z"/><path class="b" d="M8.07,5a3.37,3.37,0,0,1,1.26-.26,3,3,0,0,1,.9.14,4.24,4.24,0,0,1,1.91,1.64l-.24.11-.36.19a3,3,0,0,0-1-1.14A2.55,2.55,0,0,0,9,5.26a2.84,2.84,0,0,0-.47,0A3,3,0,0,0,8.07,5Z"/><path class="c" d="M9.09,5.76a1.75,1.75,0,0,1,1.11.38,2.54,2.54,0,0,1,.7,1.15h0s0,0-.06,0a2.46,2.46,0,0,0-.69-1.14,1.63,1.63,0,0,0-1-.35h0A.21.21,0,0,0,9.09,5.76Z"/><path class="c" d="M9,8.21a.59.59,0,0,1-.26-.53H8.8a4.38,4.38,0,0,1,.82.08h0A.7.7,0,0,0,9.79,8Z"/><path class="b" d="M9.28,6a.79.79,0,0,0-.12-.15,1.63,1.63,0,0,1,1,.35,2.46,2.46,0,0,1,.69,1.14,3,3,0,0,0-.54.57,4,4,0,0,0-.57-.13,1.59,1.59,0,0,1-.23-.87A2.14,2.14,0,0,0,9.28,6Z"/><path class="c" d="M9.42,6.92A1.84,1.84,0,0,0,9.21,6l-.13-.2h.08A.79.79,0,0,1,9.28,6a2.14,2.14,0,0,1,.22.91,1.59,1.59,0,0,0,.23.87l-.1,0h0A2,2,0,0,1,9.42,6.92Z"/><path class="c" d="M9.14,24.59a3,3,0,0,0,.77.31,3.65,3.65,0,0,0,.42.85,6.14,6.14,0,0,1-1-.27,2.46,2.46,0,0,1-.27-.89Z"/><path class="c" d="M9.07,5.84,9,5.76h.09a.21.21,0,0,1,.06.08H9.07Z"/><path class="c" d="M9.09,5.76,9,5.69h0a1.81,1.81,0,0,1,1.16.39A2.38,2.38,0,0,1,11,7.24l-.06,0a2.54,2.54,0,0,0-.7-1.15A1.75,1.75,0,0,0,9.09,5.76Z"/><path class="c" d="M9,5.76,8.94,5.7H9l.05.07Z"/><path class="c" d="M9,5.69a1.8,1.8,0,0,0-.3-.26l.29,0a2.37,2.37,0,0,1,1.38.42,3,3,0,0,1,1,1.1,3.35,3.35,0,0,0-.46.31,2.38,2.38,0,0,0-.72-1.16,1.81,1.81,0,0,0-1.16-.39Z"/><path class="c" d="M8.65,5.36a2.53,2.53,0,0,1,1.8.41,2.93,2.93,0,0,1,1,1.12l-.06,0a3,3,0,0,0-1-1.1A2.37,2.37,0,0,0,9,5.41l-.29,0Z"/><path class="c" d="M8.94,5.7l-.29-.26h.09a1.8,1.8,0,0,1,.3.26Z"/><path class="c" d="M8.74,7.68A.59.59,0,0,0,9,8.21L9.79,8a.7.7,0,0,1-.16-.19l.1,0a.57.57,0,0,0,.11.11l.1.09L9,8.29l0,0a.7.7,0,0,1-.29-.59Z"/><path class="c" d="M10.45,5.77a2.53,2.53,0,0,0-1.8-.41h0a.16.16,0,0,0-.08-.06,2.84,2.84,0,0,1,.47,0,2.55,2.55,0,0,1,1.46.45,3,3,0,0,1,1,1.14h0l-.06,0A2.93,2.93,0,0,0,10.45,5.77Z"/><path class="c" d="M8.65,5.36l.09.07h-.1l-.08-.06.08,0Z"/><path class="c" d="M8.52,5.76l-.09-.28.21,0h0l.29.26A2.28,2.28,0,0,0,8.52,5.76Z"/><path class="c" d="M8.56,5.38l-.09-.06.09,0a.16.16,0,0,1,.08.06Z"/><path class="c" d="M8.44,5.75h.08a2.28,2.28,0,0,1,.42-.06L9,5.76a2.45,2.45,0,0,0-.53.09Z"/><path class="c" d="M8.43,5.74v0l.1.06H8.43Z"/><path class="c" d="M8.42,6l-.06-.21h.08l0,.1A2.45,2.45,0,0,1,9,5.76l.07.08a1.84,1.84,0,0,0-.57.08Z"/><path class="c" d="M8.41,5.69h0Z"/><path class="c" d="M8.41,5.69l-.08-.26.23,0,.08.06-.21,0,.09.28-.1-.06Z"/><path class="c" d="M8.71,6.36A1.42,1.42,0,0,0,8.38,6l0,0,.08,0a1.84,1.84,0,0,1,.57-.08h0l.13.2a1.84,1.84,0,0,1,.21.88,2,2,0,0,0,.2.84,4.38,4.38,0,0,0-.82-.08H8.74A4.91,4.91,0,0,0,8.83,7,1.56,1.56,0,0,0,8.71,6.36Z"/><path class="c" d="M8.35,5.73v0h.08v0H8.35Z"/><path class="c" d="M8.35,5.73c-.1,0-.16,0,0,0Z"/><path class="c" d="M8.34,5.68l-.1-.3.07,0,.16,0,.09.06-.23,0,.08.26H8.34Z"/><path class="c" d="M7.89,5a3.29,3.29,0,0,1,2.36-.19,4.24,4.24,0,0,1,2,1.68l-.07,0a4.24,4.24,0,0,0-1.91-1.64,3,3,0,0,0-.9-.14A3.37,3.37,0,0,0,8.07,5a3,3,0,0,1,.49.27l-.09,0A3.92,3.92,0,0,0,7.89,5Z"/><path class="c" d="M7.82,13.38A1.26,1.26,0,0,0,8.15,13a4.28,4.28,0,0,0,.06-2.55h0a5.56,5.56,0,0,0,0-.71,5.69,5.69,0,0,1,.26,2.18,4.64,4.64,0,0,1-.8,2.25A3.6,3.6,0,0,0,7.82,13.38Z"/><path class="c" d="M10.25,4.84A3.29,3.29,0,0,0,7.89,5a3.92,3.92,0,0,1,.58.29l-.16,0-.07,0,.1.3h0c-.15,0-.09,0,0,0h0L8.42,6l0,0a2.92,2.92,0,0,0-1.19-.57l-.5-.1L7,5a3.53,3.53,0,0,1,3.5-.67,5.71,5.71,0,0,1,2.46,2l-.77.28A4.24,4.24,0,0,0,10.25,4.84Z"/><path class="c" d="M8.15,13a1.26,1.26,0,0,1-.33.41c.09-.66.17-1.5.17-1.5a8.72,8.72,0,0,0,.22-1.46A4.28,4.28,0,0,1,8.15,13Z"/><path class="b" d="M7.82,20.55c.56,1.75,2.41,2.24,3.78,2.3a5.06,5.06,0,0,1-.38.54l-.05.05a1.51,1.51,0,0,0-.2,1.62,3.84,3.84,0,0,1-1.06-.16,1.19,1.19,0,0,1-.09-.31H9.14a2.9,2.9,0,0,1-1.13-1A3.73,3.73,0,0,1,7.82,20.55Z"/><path class="c" d="M8,19.11a3.6,3.6,0,0,0,1.25,2.21l0,.25c.28.18.47.22.75.4,0-.06,0-.13,0-.19a6,6,0,0,0,2,.35,5.28,5.28,0,0,1-.41.72c-1.37-.06-3.22-.55-3.78-2.3a3.73,3.73,0,0,0,.19,3,2.9,2.9,0,0,0,1.13,1H9.08a2.46,2.46,0,0,0,.27.89A3.41,3.41,0,0,1,7,22.71,3.7,3.7,0,0,1,8,19.11Z"/><path class="c" d="M8.21,10.42A8.72,8.72,0,0,1,8,11.88s-.08.84-.17,1.5l-.1.09,0,0a1,1,0,0,0-.45.92c0,.72.78,1.15,1.54,1.55l.42.24a2.12,2.12,0,0,1,1,1.74A31.63,31.63,0,0,1,10,21.78h0a2.3,2.3,0,0,1-.7-.45,28.94,28.94,0,0,0,.19-3.15,1.7,1.7,0,0,0-.62-1.33l-.42-.23c-.91-.49-2-1.1-2-2.22A1.62,1.62,0,0,1,7.14,13l.11-.09a.65.65,0,0,0,.22-.22,4.13,4.13,0,0,0,.09-1.91,2.63,2.63,0,0,1-.6-2,1.35,1.35,0,0,1,.71-.86,2.58,2.58,0,0,1,1-.23A.7.7,0,0,0,9,8.27l0,0,1-.31-.1-.09a.57.57,0,0,1-.11-.11,4,4,0,0,1,.57.13,1.2,1.2,0,0,0-.11.17l-.08.1.92.2,0,0,0,0s0-.05.06-.11a6.56,6.56,0,0,1,2.7,2.36l.18.29-.29-.19,0,0a12.61,12.61,0,0,0-3.25-1.92,6.18,6.18,0,0,0-1.67-.3A1.67,1.67,0,0,0,8,8.57a.61.61,0,0,0-.34.4,2,2,0,0,0,.48,1.35l.06.09Z"/><path class="c" d="M8.65,6.4a2.63,2.63,0,0,0-1.47-.9l-.63-.12L7,4.9A3.41,3.41,0,0,1,9.32,4a4,4,0,0,1,1.22.2,5.77,5.77,0,0,1,2.51,2l-.07,0a5.71,5.71,0,0,0-2.46-2A3.53,3.53,0,0,0,7,5l-.33.38.5.1A2.92,2.92,0,0,1,8.38,6a1.42,1.42,0,0,1,.33.36A1.56,1.56,0,0,1,8.83,7a4.91,4.91,0,0,1-.09.71H8.66c0-.1,0-.2.05-.3a1.4,1.4,0,0,0,0-.41A1.55,1.55,0,0,0,8.65,6.4Z"/></svg>