<svg xmlns="http://www.w3.org/2000/svg" xmlns:xlink="http://www.w3.org/1999/xlink" viewBox="0 0 32 32"><defs><style>.a{fill:none;}.b{clip-path:url(#a);}.c{fill:#424242;}.d{fill:#dcdbdd;}.e{fill:#252526;}.f{fill:#1ba1e2;}</style><clipPath id="a"><rect class="a" x="6" y="4" width="20" height="24"/></clipPath></defs><title>config.editorconfig</title><g class="b"><polygon class="c" points="8 6 18 6 18 12 24 12 24 26 8 26 8 6"/><rect class="d" x="10" y="9" width="6" height="2"/><rect class="d" x="10" y="13" width="4" height="2"/><rect class="d" x="10" y="17" width="12" height="2"/><rect class="d" x="10" y="21" width="10" height="2"/><path class="d" d="M19.28,4H7.93A1.91,1.91,0,0,0,6,6V26a1.91,1.91,0,0,0,1.93,2h16A2,2,0,0,0,26,26V10ZM24,26H8V6H18v6h6Z"/></g><path class="e" d="M19,29V22.17l1-1V21H16V13H26.1l.13,0A5.54,5.54,0,0,1,31,18.5a5.15,5.15,0,0,1-.07.76L27,19.4a.5.5,0,0,0-.49-.4.58.58,0,0,0-.5.29v1.88l1,1V29Z"/><path class="f" d="M29,18.5a3.38,3.38,0,0,1-.05.5,2.5,2.5,0,0,0-2.45-2A2.56,2.56,0,0,0,24,19v3l1,1v4H21V23l1-1V19a1,1,0,0,0-2,0H18V15h2a1,1,0,0,0,2,0h4A3.54,3.54,0,0,1,29,18.5Z"/></svg>