<svg id="Bases" xmlns="http://www.w3.org/2000/svg" viewBox="0 0 32 32"><defs><style>.cls-1{fill:#dcdbdd;}.cls-2{fill:#57aa54;}</style></defs><title>config.travis</title><path id="_复合路径_" data-name="&lt;复合路径&gt;" class="cls-1" d="M19.3,18.68c0,.88.52.88,1.1.86.78,0,1.21-.25,1.6-.06,0,0-.13-.38-.67-.31a1.08,1.08,0,0,0,.07-.55c-.07-.88-.6-1.58-1.18-1.56s-1,.75-.92,1.64Zm.86-1.08a.29.29,0,1,1-.29.29.29.29,0,0,1,.29-.29Z"/><path id="_复合路径_2" data-name="&lt;复合路径&gt;" class="cls-1" d="M11.36,19.69h.36c.58,0,1.06,0,1.05-.84s-.41-1.6-1-1.59-1.14.73-1.11,1.61a1.38,1.38,0,0,0,.1.52.92.92,0,0,0-.65.45,2.67,2.67,0,0,1,1.24-.14Zm.5-1.88a.29.29,0,1,1-.29.29.29.29,0,0,1,.29-.29Z"/><path id="_路径_" data-name="&lt;路径&gt;" class="cls-2" d="M13.22,8.4h1.63V7.75h.37v3h-.55v1.68h2.85V10.76H17v-3h.37V8.4H19V6.17H13.22Z"/><path id="_复合路径_3" data-name="&lt;复合路径&gt;" class="cls-1" d="M28.49,12.7c0-.19,0-.38-.06-.57s0-.19,0-.28a2.83,2.83,0,0,0-.07-.29l0-.07-.05,0a5.28,5.28,0,0,0-1-.57c-.28-.13-.56-.24-.85-.34a11.81,11.81,0,0,0-4-5.41,10.68,10.68,0,0,0-12.75,0,11.54,11.54,0,0,0-3.4,4.07h0a12.62,12.62,0,0,0-.59,1.34c-.29.1-.57.21-.85.34a5.26,5.26,0,0,0-1,.57l-.05,0,0,.07c0,.11-.05.19-.07.29s0,.19,0,.28,0,.27,0,.41h0c0,.05,0,.11,0,.16A7.12,7.12,0,0,0,3.83,15c.05.19.12.37.19.55l.12.27.07.14,0,.07,0,.08,0,.06.06,0,.18.09.17.08.1,0a14.19,14.19,0,0,0-2.41,2.79L1.5,20.6l1.33-1.13a22,22,0,0,1,3-2l0,.21.07.52.34,2.68a.18.18,0,0,0,.08.13l.7.47,0,.11,0,.16.16.47A10.47,10.47,0,0,0,8.71,25l-.09,0-2.05-.92-.89-.39.53.8c0,.06.95,1.43,1.69,2.36a4.09,4.09,0,0,0,3.43,1.75,6.63,6.63,0,0,0,.67,0l1.24-.15a8.63,8.63,0,0,0,7.4-.72h0c.73-.17,1.56-.36,2-.47l.23-.06a2.71,2.71,0,0,0,2-1.33c.51-1,1.35-2.53,1.36-2.54l.39-.71-.76.32s-1,.43-1.51.68l-.06,0A10.29,10.29,0,0,0,25,22l.27-1.1.79-1.72s.22-1.88.23-1.88l.08-.72c.07,0,.49-.06.58-.09l.35-.14.17-.08.18-.09.06,0,0-.06,0-.08,0-.07.07-.14.12-.27c.07-.18.13-.36.19-.55a7.09,7.09,0,0,0,.25-2.27ZM10.41,17.34a18.78,18.78,0,0,1,1.89-1c1.16-.09,2.44-.14,3.81-.14h1a6.31,6.31,0,0,1-.71.49l-.82.48a7.21,7.21,0,0,0-1,.19l0,0a.18.18,0,0,0-.08.1l-.84,2.68-4.48,1-1.41-1L7.3,16.94c.8-.14,1.87-.31,3.16-.45-.14.16-.27.33-.4.5L9.3,18.07l1.12-.72Zm6,11.23a6.93,6.93,0,0,1-2.22-.23l.16,0a3.11,3.11,0,0,0,2-1h.48a5.79,5.79,0,0,0,.66-.09l.07.07a2.55,2.55,0,0,0,1.61.72,9.07,9.07,0,0,1-2.73.61ZM16.53,27l.26-.57.48.5-.43.05h-.31Zm-2.2-5.54.4-.09a.18.18,0,0,0,.14-.12l.84-2.67.38,0,.38,0,.86,2.75a.19.19,0,0,0,.16.13l.32,0h.08l5.5.61a.19.19,0,0,0,.13,0l.55-.37.51-.35.19-.13c0,.13-.06.26-.1.38s-.11.32-.16.48a12.67,12.67,0,0,1-.75,1.7c-.08,0-.56.28-1,.41L21.11,24l-1.64-1.26-.07-.06a.7.7,0,0,0-.5-.2,6.1,6.1,0,0,0-1.42.33,1,1,0,0,0,.44-.72,3.17,3.17,0,0,1-1.62.68,2.67,2.67,0,0,1-1.78-.47,1,1,0,0,0,.3.54,7.63,7.63,0,0,0-.85-.05h-.32c-.61,0-1.48.93-2.08,1.84-.3.09-1.09.25-2.16.56a15.68,15.68,0,0,1-1.51-2.6c-.14-.32-.22-.55-.24-.6h0l-.06-.17.26.17h0l.64.43.21.14a.19.19,0,0,0,.11,0h0Zm3.39-4a.19.19,0,0,0-.13-.12,6.9,6.9,0,0,0-1.17-.21h.11A18.16,18.16,0,0,0,20,16.33c2,.15,3.71.39,4.85.6l-.4,2.75-1.42,1-4.47-.49Zm9.82-3.7c0,.35-.21,1-.21,1l-.13,0c-.07,0-.7-.18-1.78-.37l.1,0a5.1,5.1,0,0,0,.66-.21l.31-.15a1.08,1.08,0,0,0,.27-.2,17.21,17.21,0,0,1-5.32,0c-1.82-.18-3.65-.3-5.49-.3s-3.66.12-5.48.3a17.2,17.2,0,0,1-5.32,0,1.09,1.09,0,0,0,.27.2l.31.15a5.18,5.18,0,0,0,.66.21l.24,0c-1,.18-1.56.33-1.63.34s-.23,0-.28-.13a6,6,0,0,1-.21-.93,7.58,7.58,0,0,1-.07-1.06c0-.06,0-.17,0-.17s0-.24,0-.36a1.72,1.72,0,0,1,.63-.53c.31-.17.64-.33,1-.48a13.14,13.14,0,0,1,2-.48c.64-.11,2.94-.41,3.11-.47s1.16-.81,1.34-.87c-.36.06-5.4.8-5.62.87A9.13,9.13,0,0,1,16,4.06c4.27,0,7.48,1.91,9.11,6.06a46.34,46.34,0,0,0-5.51-.88c.17.06,1.15.73,1.34.75,1.49.19,3.85.69,4,.76.34.13.68.27,1,.42s.66.3,1,.48a1.74,1.74,0,0,1,.63.53c0,.18,0,.35,0,.53a7.59,7.59,0,0,1-.07,1.06Z"/></svg>