<svg id="Bases" xmlns="http://www.w3.org/2000/svg" viewBox="0 0 32 32"><defs><style>.cls-1{fill:#dcdbdd;}.cls-2{fill:#1b5eab;}.cls-3{fill:#f77737;}</style></defs><title>config.license</title><g id="_编组_" data-name="&lt;编组&gt;"><path id="_复合路径_" data-name="&lt;复合路径&gt;" class="cls-1" d="M8,30H18.37c.26-.82.44-1.33.63-2H8V10H26c0-2-2.4-2-2-2H22V6H20a4,4,0,0,0-8,0H10V8H8a2,2,0,0,0-2,2V28A2,2,0,0,0,8,30ZM16,4a2,2,0,1,1-2,2A2,2,0,0,1,16,4Z"/><path id="_复合路径_2" data-name="&lt;复合路径&gt;" class="cls-2" d="M20.68,22.53,19.25,31H20l3-4,3.25,4H27l-1.68-8.47Z"/><path id="_复合路径_3" data-name="&lt;复合路径&gt;" class="cls-3" d="M23,11a6,6,0,1,0,6,6A6,6,0,0,0,23,11Zm0,9a3,3,0,1,1,3-3A3,3,0,0,1,23,20Z"/></g></svg>