<svg xmlns="http://www.w3.org/2000/svg" xmlns:xlink="http://www.w3.org/1999/xlink" viewBox="0 0 32 32"><defs><style>.cls-1{fill:none;}.cls-2{clip-path:url(#clip-path);}.cls-3{fill:#dcdbdd;}.cls-4{fill:#c6f;}.cls-5{fill:#252526;}</style><clipPath id="clip-path"><rect class="cls-1" x="6" y="4" width="20" height="24"/></clipPath></defs><title>config.makefile</title><g id="Bases"><g id="icon-file"><g class="cls-2"><rect class="cls-3" x="10" y="9" width="6" height="2"/><rect class="cls-3" x="10" y="13" width="4" height="2"/><rect class="cls-3" x="10" y="17" width="12" height="2"/><rect class="cls-3" x="10" y="21" width="10" height="2"/><path class="cls-3" d="M19.28,4H7.93A1.91,1.91,0,0,0,6,6V26a1.91,1.91,0,0,0,1.93,2h16A2,2,0,0,0,26,26V10ZM24,26H8V6H18v6h6Z"/></g></g></g><g id="Overlays"><polygon class="cls-4" points="15 31 15 21 19 21 19 27 19 23 22.67 23 18 19.5 18 15.13 21 17.13 21 13 25 13 25 17.13 28 15.13 28 19.5 23.33 23 27 23 27 21 31 21 31 31 15 31"/><path class="cls-5" d="M24,14v5l3-2v2l-4,3-4-3V17l3,2V14h2m6,8v8H16V22h2v6H28V22h2m-4,2v2H24V24h2m-4,0v2H20V24h2m4-12H20v3.26l-3-2V20H14V32H32V20H29V13.26l-3,2V12Z"/></g></svg>