<svg xmlns="http://www.w3.org/2000/svg" xmlns:xlink="http://www.w3.org/1999/xlink" viewBox="0 0 32 32"><defs><style>.cls-1{fill:none;}.cls-2{clip-path:url(#clip-path);}.cls-3{fill:#dcdbdd;}.cls-4{fill:#252526;}.cls-5{fill:#1ba1e2;}</style><clipPath id="clip-path"><rect class="cls-1" x="6" y="4" width="20" height="24"/></clipPath></defs><title>config.editorconfig</title><g id="Bases"><g id="icon-file"><g class="cls-2"><rect class="cls-3" x="10" y="9" width="6" height="2"/><rect class="cls-3" x="10" y="13" width="4" height="2"/><rect class="cls-3" x="10" y="17" width="12" height="2"/><rect class="cls-3" x="10" y="21" width="10" height="2"/><path class="cls-3" d="M19.28,4H7.93A1.91,1.91,0,0,0,6,6V26a1.91,1.91,0,0,0,1.93,2h16A2,2,0,0,0,26,26V10ZM24,26H8V6H18v6h6Z"/></g></g></g><g id="Overlays"><g id="_编组_" data-name="&lt;编组&gt;"><path id="_复合路径_" data-name="&lt;复合路径&gt;" class="cls-4" d="M19,29V22.17l1-1V21H16V13H26.1l.13,0A5.54,5.54,0,0,1,31,18.5a5.15,5.15,0,0,1-.07.76L27,19.4a.5.5,0,0,0-.49-.4.58.58,0,0,0-.5.29v1.88l1,1V29Z"/><path id="_复合路径_2" data-name="&lt;复合路径&gt;" class="cls-5" d="M29,18.5a3.38,3.38,0,0,1-.05.5,2.5,2.5,0,0,0-2.45-2A2.56,2.56,0,0,0,24,19v3l1,1v4H21V23l1-1V19a1,1,0,0,0-2,0H18V15h2a1,1,0,0,0,2,0h4A3.54,3.54,0,0,1,29,18.5Z"/></g></g></svg>