<svg xmlns="http://www.w3.org/2000/svg" viewBox="0 0 32 32"><defs><style>.a{fill:#dcdbdd;}.b{fill:#2a2a2a;}.c{fill:#1b5eab;}.d{fill:#f77737;}</style></defs><title>config.license</title><path class="a" d="M8,30H18.37c.26-.82.44-1.33.63-2H8V10H26c0-2-2.4-2-2-2H22V6H20a4,4,0,0,0-8,0H10V8H8a2,2,0,0,0-2,2V28A2,2,0,0,0,8,30ZM16,4a2,2,0,1,1-2,2A2,2,0,0,1,16,4Z"/><path class="b" d="M23,23a6,6,0,0,1,0-12,6,6,0,0,1,1,.09V10H8V28H24V22.91A6,6,0,0,1,23,23Z"/><path class="c" d="M20.68,22.53,19.25,31H20l3-4,3.25,4H27l-1.68-8.47Z"/><path class="d" d="M23,11a6,6,0,1,0,6,6A6,6,0,0,0,23,11Zm0,9a3,3,0,1,1,3-3A3,3,0,0,1,23,20Z"/></svg>