<svg id="Bases" xmlns="http://www.w3.org/2000/svg" viewBox="0 0 32 32"><defs><style>.cls-1{fill:#dcdbdd;}.cls-2{fill:#1ba1e2;}</style></defs><title>config.docker</title><g id="_编组_" data-name="&lt;编组&gt;"><g id="outline"><path class="cls-1" d="M17.43,8v5.05h2.25v2.58h1.14a4.44,4.44,0,0,0,1.56-.29,3.8,3.8,0,0,0,.76-.39,3.42,3.42,0,0,1-.53-1.63,3.78,3.78,0,0,1,.55-2.43l.24-.31.28.25a4.12,4.12,0,0,1,1.41,2.55,3.33,3.33,0,0,1,1-.17,2.88,2.88,0,0,1,1.57.44l.31.2-.16.36a3.07,3.07,0,0,1-3,1.76h-.28a11.38,11.38,0,0,1-11.32,8,6.94,6.94,0,0,1-6.48-3.76l0,0-.2-.46A8.15,8.15,0,0,1,6,16l0-.38H8V13.05h2.25V10.53h4.5V8h2.7m2-2h-6.7V8.53H8.23v2.53H6v2.58H4.22l-.15,1.83,0,.38a10.06,10.06,0,0,0,.66,4.63v.05l.2.46,0,.07,0,.06A8.89,8.89,0,0,0,13.25,26,13.3,13.3,0,0,0,26,17.89a4.88,4.88,0,0,0,3.7-2.84l.16-.36.72-1.57-1.45-.94-.31-.2a4.81,4.81,0,0,0-2.3-.75A6.66,6.66,0,0,0,25,9.35l-.28-.25L23.13,7.65,21.81,9.36l-.24.31a4.42,4.42,0,0,0-.7,1.38H19.43V6Z"/></g><path id="_路径_" data-name="&lt;路径&gt;" class="cls-1" d="M12.43,19.21a.61.61,0,1,1-.54.6.57.57,0,0,1,.54-.6"/><path id="_路径_2" data-name="&lt;路径&gt;" class="cls-1" d="M13.86,23.57a5.07,5.07,0,0,1-2.47-2.73,7.4,7.4,0,0,1-1.78.3l-.82,0q-.5,0-1,0a6.75,6.75,0,0,0,5.5,2.45Z"/><g id="outline-2" data-name="outline"><polygon class="cls-2" points="17.43 13.05 19.67 13.05 19.67 15.63 7.99 15.63 7.99 13.05 10.23 13.05 10.23 10.53 14.73 10.53 14.73 8 17.43 8 17.43 13.05"/></g></g></svg>