<svg xmlns="http://www.w3.org/2000/svg" viewBox="0 0 32 32"><defs><style>.a{fill:#424242;}.b{fill:#dcdbdd;}.c{fill:#1ba1e2;}</style></defs><title>config.appveyor</title><path class="a" d="M16,28A12,12,0,1,1,28,16,12,12,0,0,1,16,28Z"/><path class="b" d="M16,5A11,11,0,1,1,5,16,11,11,0,0,1,16,5m0-2A13,13,0,1,0,29,16,13,13,0,0,0,16,3Z"/><path class="c" d="M12.54,26.14l4.58-4.43a5.58,5.58,0,0,1-4.89-1.09,5.78,5.78,0,0,1-2.1-5.28L6,19.84A7.94,7.94,0,0,1,5.32,17l7.22-5.67a6.06,6.06,0,0,1,7.22,0,5.87,5.87,0,0,1,1.09,7.84l-5.28,7.53a9.94,9.94,0,0,1-3-.54Z"/><path class="a" d="M18.91,18.29A3.76,3.76,0,1,1,13,13.63a4,4,0,0,1,5.44-.7,3.74,3.74,0,0,1,.47,5.36Z"/></svg>