<svg xmlns="http://www.w3.org/2000/svg" viewBox="0 0 32 32"><defs><style>.a{fill:#424242;}.b{fill:#dcdbdd;}</style></defs><title>file.shell</title><polygon class="a" points="8 6 18 6 18 12 24 12 24 26 8 26 8 6"/><path class="b" d="M19.28,4H7.93A1.91,1.91,0,0,0,6,6V26a1.91,1.91,0,0,0,1.93,2h16A2,2,0,0,0,26,26V10ZM24,26H8V6H18v6h6Z"/><rect class="b" x="9" y="11" width="2" height="2"/><rect class="b" x="11" y="13" width="2" height="2"/><rect class="b" x="13" y="15" width="2" height="2"/><rect class="b" x="11" y="17" width="2" height="2"/><rect class="b" x="9" y="19" width="2" height="2"/><rect class="b" x="15" y="19" width="9" height="2"/></svg>