<svg id="Bases" xmlns="http://www.w3.org/2000/svg" viewBox="0 0 32 32"><defs><style>.cls-1{fill:#57aa54;}</style></defs><title>file.d.ts</title><path id="_复合路径_" data-name="&lt;复合路径&gt;" class="cls-1" d="M17,22.15l.67-2.52a8.88,8.88,0,0,0,1.71.6,7.92,7.92,0,0,0,2,.25,3.11,3.11,0,0,0,1.72-.4,1.23,1.23,0,0,0,.6-1.08,1.26,1.26,0,0,0-.55-1,6.76,6.76,0,0,0-1.89-.85q-4-1.34-4-4a3.48,3.48,0,0,1,.39-1.62,3.89,3.89,0,0,1,1.09-1.3,5.21,5.21,0,0,1,1.74-.86A8.05,8.05,0,0,1,22.69,9a9.14,9.14,0,0,1,3.73.69l-.74,2.46a7.08,7.08,0,0,0-3-.65,2.76,2.76,0,0,0-1.57.38,1.11,1.11,0,0,0-.55.93,1,1,0,0,0,.11.47,1.35,1.35,0,0,0,.29.38,2.39,2.39,0,0,0,.54.35c.24.12.49.23.75.34l1,.37a7,7,0,0,1,2.85,1.65A3.39,3.39,0,0,1,27,18.78a3.87,3.87,0,0,1-.22,1.31,3.54,3.54,0,0,1-.69,1.15,4.43,4.43,0,0,1-1.15.92,6.06,6.06,0,0,1-1.65.6,9.73,9.73,0,0,1-2.15.22,10.77,10.77,0,0,1-2.32-.25A7.67,7.67,0,0,1,17,22.15ZM8.4,23V11.66H5V9H15v2.66H11.6V23Z"/></svg>