<?xml version="1.0" encoding="UTF-8"?> <svg id="Bases" version="1.1" viewBox="0 0 32 32" xmlns="http://www.w3.org/2000/svg" xmlns:cc="http://creativecommons.org/ns#" xmlns:dc="http://purl.org/dc/elements/1.1/" xmlns:rdf="http://www.w3.org/1999/02/22-rdf-syntax-ns#"> <metadata> <rdf:RDF> <cc:Work rdf:about=""> <dc:format>image/svg+xml</dc:format> <dc:type rdf:resource="http://purl.org/dc/dcmitype/StillImage"/> <dc:title>file.cr</dc:title> </cc:Work> </rdf:RDF> </metadata> <defs> <style>.cls-1{fill:#dcdbdd;}.cls-2{fill:#1ba1e2;}</style> </defs> <title>file.cr</title> <style type="text/css">.st0{fill:none;}</style> <path d="m27.202 19.058-8.1335 8.1172c-0.03254 0.03254-0.08134 0.04879-0.11387 0.03254l-11.11-2.9768c-0.048801-0.01626-0.081335-0.0488-0.081335-0.08133l-2.9931-11.094c-0.016272-0.04879 0-0.08133 0.032536-0.11387l8.1335-8.1172c0.03254-0.032536 0.08133-0.048797 0.11387-0.032536l11.11 2.9768c0.0488 0.016268 0.08133 0.048797 0.08133 0.081335l2.9768 11.094c0.03254 0.0488 0.01627 0.08133-0.01626 0.11387z" fill="#fff" stroke-width=".16267"/> <path d="m25.282 18.534-6.7392 6.7258c-0.02696 0.02696-0.06739 0.04043-0.09435 0.02696l-9.2057-2.4666c-0.040433-0.01348-0.067392-0.04043-0.067392-0.06739l-2.48-9.1925c-0.013479-0.04044 0-0.06739 0.02696-0.09435l6.7392-6.7258c0.02696-0.02696 0.06739-0.040432 0.09435-0.02696l9.2057 2.4666c0.04044 0.013479 0.06739 0.040432 0.06739 0.067392l2.4666 9.1925c0.02696 0.04043 0.01348 0.06739-0.01348 0.09435zm-9.0305-7.3188-9.0438 2.4127c-0.013479 0-0.02696 0.02696-0.013479 0.04043l6.6179 6.6045c0.01348 0.01348 0.04043 0.01348 0.04043-0.01348l2.4261-9.0305c0.01348 0-0.01348-0.02696-0.02696-0.01348z" stroke-width=".13478"/> </svg>
