<svg xmlns="http://www.w3.org/2000/svg" viewBox="0 0 32 32"><defs><style>.cls-1{fill:#a968ff;}</style></defs><title>file.coq</title><g id="Layer_3" data-name="Layer 3"><path class="cls-1" d="M17.5,27H12.13a3,3,0,0,1,1.06-2.7A1.44,1.44,0,0,0,13.4,24a2,2,0,0,0-.55-3,8.92,8.92,0,0,0-.91-.53L10,19.42v-.24a9.36,9.36,0,0,1,1-.62,4.22,4.22,0,0,0,2.33-4.81,2.61,2.61,0,0,0-1.74-2.35l.44-.59-.3-.15A2.41,2.41,0,0,1,10.12,8a3.28,3.28,0,0,1,2-2.52c.35-.17.73-.29,1.1-.43h1.37a2.43,2.43,0,0,0,.29.11c3.07.78,3.56,4,1.44,6.31-.15.16-.49.34-.62.27s-.29-.39-.36-.62a9.68,9.68,0,0,1-.2-1,13.34,13.34,0,0,0,.75,6.31A4.77,4.77,0,0,0,16.4,15a5.8,5.8,0,0,1,1.37-2.56,3.57,3.57,0,0,1,6,1.2,5.05,5.05,0,0,0,.26.62v1.59c-.1.33-.2.65-.29,1a6.06,6.06,0,0,1-5.32,4.46,3.36,3.36,0,0,1-.89-.17.45.45,0,0,0-.47.22,5,5,0,0,0-.39,1.48,2.66,2.66,0,0,0,.27,1.62A3.41,3.41,0,0,1,17.5,27ZM18,20.57l.22.15a7,7,0,0,0,1-1.26,1.49,1.49,0,0,0-.14-1c0-.13-.36-.16-.56-.24-.07.2-.25.45-.19.58A1.37,1.37,0,0,1,18,20.57Z"/></g></svg>