<svg id="Bases" xmlns="http://www.w3.org/2000/svg" viewBox="0 0 32 32"><defs><style>.cls-1{fill:#1ba1e2;}.cls-2{fill:#1b5eab;}.cls-3{fill:#dcdbdd;}</style></defs><title>file.sourcemap</title><g id="_编组_" data-name="&lt;编组&gt;"><g id="_编组_2" data-name="&lt;编组&gt;"><path class="cls-1" d="M30,8.27V16a2,2,0,0,1-2.07,2h-8A1.91,1.91,0,0,1,18,16V6a1.91,1.91,0,0,1,1.93-2h6.69ZM28,16V8H26V6H20V16Z"/><path class="cls-2" d="M28,21v3l-2-2v3a3,3,0,0,1-3,3H9a3,3,0,0,1-3-3V22L4,24V21l3-3,3,3v3L8,22v3a1,1,0,0,0,1,1H23a1,1,0,0,0,1-1V22l-2,2V21l3-3Z"/><rect class="cls-1" x="22" y="12" width="4" height="2"/><rect class="cls-1" x="21.99" y="7.99" width="3.99" height="2.09"/><path class="cls-3" d="M14,8.27V16a2,2,0,0,1-2.07,2h-8A1.91,1.91,0,0,1,2,16V6A1.91,1.91,0,0,1,3.93,4h6.69ZM12,16V8H10V6H4V16Z"/><rect class="cls-3" x="6" y="12" width="4" height="2"/><rect class="cls-3" x="5.99" y="7.99" width="3.99" height="2.09"/></g></g></svg>