<svg xmlns="http://www.w3.org/2000/svg" viewBox="0 0 32 32"><defs><style>.cls-1{fill:#ffb612;}</style></defs><title>file.idris</title><g id="Layer_3" data-name="Layer 3"><path class="cls-1" d="M4,9.1H6.61V22.86H4Z"/><path class="cls-1" d="M8.92,22.82V9.28A16.64,16.64,0,0,1,12.25,9a8.84,8.84,0,0,1,2.63.34,4.92,4.92,0,0,1,1.87,1.07q1.91,1.7,1.91,5.29a10,10,0,0,1-.51,3.37,5.87,5.87,0,0,1-1.4,2.29,7,7,0,0,1-5,1.65A21.61,21.61,0,0,1,8.92,22.82Zm2.64-11.39v9.16a4.71,4.71,0,0,0,.79,0,3.32,3.32,0,0,0,1.43-.28,3,3,0,0,0,1.11-.87A4.09,4.09,0,0,0,15.62,18a8.63,8.63,0,0,0,.26-2.22A5.31,5.31,0,0,0,15,12.46a2.88,2.88,0,0,0-2.44-1.14A4,4,0,0,0,11.56,11.43Z"/><path class="cls-1" d="M20.39,22.86V9.28A17.72,17.72,0,0,1,23.73,9a8.5,8.5,0,0,1,2.2.25,3.52,3.52,0,0,1,1.52.81A3.77,3.77,0,0,1,28.53,13a4,4,0,0,1-.16,1.16,3.56,3.56,0,0,1-.46,1,3.87,3.87,0,0,1-.66.75,3.09,3.09,0,0,1-.8.51v.06a2.18,2.18,0,0,1,1,.92A5.9,5.9,0,0,1,28,19l.2.93.21,1,.18.8c.07.29.13.52.18.71a3.57,3.57,0,0,0,.15.44H26.26a18.76,18.76,0,0,1-.78-3.22,5.27,5.27,0,0,0-.37-1.35,1.47,1.47,0,0,0-.56-.67,1.7,1.7,0,0,0-.85-.19H23v5.43ZM23,11.35v3.9h.89a1.94,1.94,0,0,0,1.47-.56,2.05,2.05,0,0,0,.53-1.48,2,2,0,0,0-.48-1.44A1.85,1.85,0,0,0,24,11.24,3.62,3.62,0,0,0,23,11.35Z"/></g></svg>