<svg id="Bases" xmlns="http://www.w3.org/2000/svg" viewBox="0 0 32 32"><defs><style>.cls-1{fill:#00a18a;}</style></defs><title>file.tex</title><path id="_复合路径_" data-name="&lt;复合路径&gt;" class="cls-1" d="M2.28,8H13.71L14,12.56h-.8a8,8,0,0,0-.73-2.28,3,3,0,0,0-1-1.16,2.43,2.43,0,0,0-1.27-.34.92.92,0,0,0-.58.15.53.53,0,0,0-.19.43v9.28a.58.58,0,0,0,.18.44.61.61,0,0,0,.44.17H11.5V20h-7v-.75H5.92a.73.73,0,0,0,.5-.17.56.56,0,0,0,.19-.44V9.4a.58.58,0,0,0-.19-.48.94.94,0,0,0-.6-.15q-2.25,0-3,3.79H2Z"/><path id="_复合路径_2" data-name="&lt;复合路径&gt;" class="cls-1" d="M11,13h9.24l.23,4.19h-.69a7,7,0,0,0-.61-2.14,2.43,2.43,0,0,0-1-1,3.2,3.2,0,0,0-1.54-.32H15.1a.77.77,0,0,0-.53.15.54.54,0,0,0-.16.42v4.16h.54a1.87,1.87,0,0,0,1.44-.55A2.91,2.91,0,0,0,17,16.16h.7v5.58H17a3.15,3.15,0,0,0-.59-2,2,2,0,0,0-1.55-.57H14.4v4.44a.48.48,0,0,0,.16.41,1.23,1.23,0,0,0,.72.18h1.39A3.09,3.09,0,0,0,19,23.3a4.84,4.84,0,0,0,1.13-2.86h.7L20.67,25H10.17v-.75h1a.72.72,0,0,0,.54-.19.69.69,0,0,0,.18-.5V14.32A7.76,7.76,0,0,0,11,13Z"/><path id="_复合路径_3" data-name="&lt;复合路径&gt;" class="cls-1" d="M18,8h5.72v.75h-.43a1.84,1.84,0,0,0-.77.11.32.32,0,0,0-.19.28,1.46,1.46,0,0,0,.32.67l1.93,2.75,1.52-1.92a1.94,1.94,0,0,0,.5-1.18.66.66,0,0,0-.21-.52.89.89,0,0,0-.61-.18h-.36V8H30v.75h-.34a1.51,1.51,0,0,0-.76.19,2.94,2.94,0,0,0-.75.7l-3,3.68L29,18.61a1.72,1.72,0,0,0,.5.51,1.06,1.06,0,0,0,.52.13h.38V20H24.75v-.75h.59A1,1,0,0,0,26,19.1a.43.43,0,0,0,.19-.36.83.83,0,0,0-.25-.48l-.08-.11-2.15-3-1.8,2.28a1.59,1.59,0,0,0-.37,1,.78.78,0,0,0,.2.59.9.9,0,0,0,.64.25h.44V20H19.5s.49-1.66.6-1.85l3-3.77-3.64-5A1.89,1.89,0,0,0,19,8.87a1.06,1.06,0,0,0-.53-.12H18Z"/></svg>