<svg xmlns="http://www.w3.org/2000/svg" viewBox="0 0 32 32"><defs><style>.a{fill:#dcdbdd;}.b{fill:#41b883;}.c{fill:#35495e;}</style></defs><title>file.vue</title><polygon class="a" points="9 11 10.5 12.5 7 16 10.5 19.5 9 21 4 16 9 11"/><polygon class="a" points="23 21 21.5 19.5 25 16 21.5 12.5 23 11 28 16 23 21"/><path class="b" d="M19.3,12h2.2L16,21l-5.5-9h4.21L16,14.09,17.27,12Z"/><path class="b" d="M10.5,12,16,21l5.5-9H19.3L16,17.4,12.67,12Z"/><path class="c" d="M12.67,12,16,17.43,19.3,12h-2L16,14.09,14.71,12Z"/></svg>