<svg xmlns="http://www.w3.org/2000/svg" xmlns:xlink="http://www.w3.org/1999/xlink" viewBox="0 0 32 32"><defs><style>.cls-1,.cls-3{fill:none;}.cls-2{fill:#dcdbdd;}.cls-3{stroke:#2a2a2a;stroke-linecap:round;stroke-linejoin:round;stroke-width:2px;}.cls-4{clip-path:url(#clip-path);}.cls-5{fill:#252526;}.cls-6{fill:#0095d7;}</style><clipPath id="clip-path"><rect class="cls-1" x="14" y="12" width="18" height="20"/></clipPath></defs><title>file.pester</title><g id="Bases"><path id="rect3839" class="cls-2" d="M9.38,8H26.85A1.09,1.09,0,0,1,28,9.44L24.48,22.56A2,2,0,0,1,22.62,24H5.15A1.09,1.09,0,0,1,4,22.56L7.52,9.44A2,2,0,0,1,9.38,8Z"/><path id="path3846" class="cls-3" d="M11.79,10.41,17,15.74,9,21"/><path id="path3850" class="cls-3" d="M17,21h4.07"/></g><g id="Overlays"><g id="Overlay_-_Test" data-name="Overlay - Test"><g class="cls-4"><polygon class="cls-5" points="16 12 16 18 18 18 18 19.47 14 26.47 14 27.61 16.93 32 29.07 32 32 27.61 32 26.47 28 19.47 28 18 30 18 30 12 16 12"/><path class="cls-6" d="M26,20V16h2V14H18v2h2v4l-4,7,2,3H28l2-3Zm-5.94,4,1.6-2.89.34-.5V16h2v4.61l.34.5L25.94,24Z"/></g></g></g></svg>