<svg id="Bases" xmlns="http://www.w3.org/2000/svg" viewBox="0 0 32 32"><defs><style>.cls-1{fill:#2a2a2a;}.cls-2{fill:#dcdbdd;}</style></defs><title>file.shell</title><polygon id="_Path_" data-name="&lt;Path&gt;" class="cls-1" points="8 6 18 6 18 12 24 12 24 26 8 26 8 6"/><path class="cls-2" d="M19.28,4H7.93A1.91,1.91,0,0,0,6,6V26a1.91,1.91,0,0,0,1.93,2h16A2,2,0,0,0,26,26V10ZM24,26H8V6H18v6h6V26Z"/><rect id="_Rectangle_" data-name="&lt;Rectangle&gt;" class="cls-2" x="15" y="19" width="9" height="2"/><polygon class="cls-2" points="14.59 14.59 14.59 14.59 11 11 9.59 12.41 13.17 16 9.59 19.59 11 21 14.59 17.41 15.34 16.66 16 16 14.59 14.59"/></svg>