<svg id="Bases" xmlns="http://www.w3.org/2000/svg" viewBox="0 0 32 32"><defs><style>.cls-1{fill:#e4a000;}</style></defs><title>file.rust</title><g id="_编组_" data-name="&lt;编组&gt;"><g id="_编组_2" data-name="&lt;编组&gt;"><path class="cls-1" d="M4.91,23V9.32A24.79,24.79,0,0,1,9,9a11.21,11.21,0,0,1,2.59.26,4.38,4.38,0,0,1,1.77.83A3.53,3.53,0,0,1,14.59,13a3.49,3.49,0,0,1-.21,1.2,3.38,3.38,0,0,1-.55,1,4.16,4.16,0,0,1-.76.73,3.52,3.52,0,0,1-.86.47v.07a2.42,2.42,0,0,1,1.11.92,5.53,5.53,0,0,1,.7,1.65l.38,1.51q.26,1,.42,1.61a5.38,5.38,0,0,0,.28.81H12a18.1,18.1,0,0,1-.92-3.23,5.77,5.77,0,0,0-.33-1.08,2,2,0,0,0-.46-.68,1.55,1.55,0,0,0-.61-.35,3.13,3.13,0,0,0-.83-.11h-.9V23Zm3-11.52v3.81h1.2a2.68,2.68,0,0,0,1.77-.54,1.8,1.8,0,0,0,.64-1.46A1.75,1.75,0,0,0,11,11.87a2.51,2.51,0,0,0-1.65-.49A6.17,6.17,0,0,0,7.93,11.48Z"/></g><g id="_编组_3" data-name="&lt;编组&gt;"><path class="cls-1" d="M17,22.15l.67-2.52a8.91,8.91,0,0,0,1.71.6,8,8,0,0,0,2,.25,3.1,3.1,0,0,0,1.72-.4,1.23,1.23,0,0,0,.6-1.08,1.26,1.26,0,0,0-.55-1,6.76,6.76,0,0,0-1.9-.85q-4-1.34-4-4a3.47,3.47,0,0,1,.39-1.61,3.9,3.9,0,0,1,1.09-1.29,5.21,5.21,0,0,1,1.74-.86A8.06,8.06,0,0,1,22.69,9a9.15,9.15,0,0,1,3.73.69l-.74,2.46a7.09,7.09,0,0,0-3-.64,2.77,2.77,0,0,0-1.57.38,1.11,1.11,0,0,0-.55.93,1.05,1.05,0,0,0,.11.47,1.36,1.36,0,0,0,.29.38,2.38,2.38,0,0,0,.54.35c.24.12.49.23.75.34l1,.37a7,7,0,0,1,2.85,1.65A3.39,3.39,0,0,1,27,18.78a3.87,3.87,0,0,1-.22,1.31,3.54,3.54,0,0,1-.69,1.15,4.39,4.39,0,0,1-1.15.92,6,6,0,0,1-1.65.61,9.73,9.73,0,0,1-2.15.22,10.77,10.77,0,0,1-2.32-.25A7.68,7.68,0,0,1,17,22.15Z"/></g></g></svg>