<svg xmlns="http://www.w3.org/2000/svg" viewBox="0 0 32 32"><defs><style>.a{fill:#424242;}.b{fill:#0095d7;}.c{fill:#dcdbdd;}.d{fill:#1b5eab;}</style></defs><title>file.sourcemap</title><path class="a" d="M22,14h4V12H22ZM20,6h6V8h2v8H20Zm6,4.08V8H22v2.09Z"/><path class="a" d="M10,10.08V8H6v2.09ZM6,12v2h4V12Zm6-4v8H4V6h6V8Z"/><rect class="b" x="22" y="12" width="4" height="2"/><rect class="b" x="21.99" y="7.99" width="3.99" height="2.09"/><path class="b" d="M25,18H19.93A1.91,1.91,0,0,1,18,16V6a1.91,1.91,0,0,1,1.93-2h6.69L30,8.27V16a2,2,0,0,1-2.07,2ZM26,6H20V16h8V8H26Z"/><rect class="c" x="6" y="12" width="4" height="2"/><rect class="c" x="5.99" y="7.99" width="3.99" height="2.09"/><path class="d" d="M26,25a3,3,0,0,1-3,3H9a3,3,0,0,1-3-3V22L4,24V21l3-3,3,3v3L8,22v3a1,1,0,0,0,1,1H23a1,1,0,0,0,1-1V22l-2,2V21l3-3,3,3v3l-2-2Z"/><path class="c" d="M14,16a2,2,0,0,1-2.07,2h-8A1.91,1.91,0,0,1,2,16V6A1.91,1.91,0,0,1,3.93,4h6.69L14,8.27Zm-2-4V8H10V6H4V16h8Z"/></svg>