<svg id="Bases" xmlns="http://www.w3.org/2000/svg" viewBox="0 0 32 32"><defs><style>.cls-1{fill:#f77737;}</style></defs><title>file.coffee</title><g id="_编组_" data-name="&lt;编组&gt;"><path id="_路径_" data-name="&lt;路径&gt;" class="cls-1" d="M13.53,9.66c0,.09,0,.18-.2.26a2.25,2.25,0,0,0-1.09-.15c-.42,0-.78.17-.73.46s.48.45,1.2.39c1.77-.16,1.77-1.36,4.37-1.59,2-.18,3.17.45,3.32,1.21.13.6-.37,1.16-1.84,1.3-1.31.11-2.06-.23-2.14-.6,0-.18.07-.46.7-.53.06.28.43.59,1.26.51.61-.05,1.13-.27,1.06-.61s-.72-.55-1.74-.47c-2.06.18-2.57,1.33-4.34,1.48-1.25.1-2.27-.34-2.41-1-.05-.25-.06-.86,1.26-1C12.93,9.27,13.48,9.39,13.53,9.66Z"/><path id="_路径_2" data-name="&lt;路径&gt;" class="cls-1" d="M6.79,16.78A3.51,3.51,0,0,0,6,19.18a2.85,2.85,0,0,0,1.1,2,2.68,2.68,0,0,0,2.25.52,7.26,7.26,0,0,0,1-.31,2.75,2.75,0,0,1-1.83-.68,2.77,2.77,0,0,1-1.15-1.88,2.42,2.42,0,0,1,.42-2,2.67,2.67,0,0,1,1.83-1,3.23,3.23,0,0,1,2.14.63,6,6,0,0,0-.57-.57,2.76,2.76,0,0,0-2.31-.47A3.3,3.3,0,0,0,6.79,16.78Z"/><path id="_路径_3" data-name="&lt;路径&gt;" class="cls-1" d="M15.86,12.87a26.45,26.45,0,0,1-5.53-.52C8.82,12,8,11.56,8,11a.76.76,0,0,1,.42-.63c-.94.37-1.46.68-1.46,1.15s.89,1,2.61,1.46a25.53,25.53,0,0,0,6.21.63A25.24,25.24,0,0,0,22,13c1.72-.42,2.56-.94,2.56-1.46,0-.37-.37-.73-1-1a.55.55,0,0,1,.26.47c0,.52-.78.94-2.35,1.31A27,27,0,0,1,15.86,12.87Z"/><path id="_路径_4" data-name="&lt;路径&gt;" class="cls-1" d="M22.07,14.33a28.43,28.43,0,0,1-6.21.63,29.94,29.94,0,0,1-6.26-.63c-1.46-.37-2.25-.78-2.51-1.2h0a15,15,0,0,0,1.72,5.06c.63.94,1.25,1.78,1.88,2.67a6.34,6.34,0,0,1,.57,1.57A3.08,3.08,0,0,0,13,23.57a7.15,7.15,0,0,0,2.77.42h.1a7.84,7.84,0,0,0,2.87-.42,3.14,3.14,0,0,0,1.67-1.15h.05A6.15,6.15,0,0,1,21,20.85c.63-.89,1.25-1.72,1.88-2.67a16.09,16.09,0,0,0,1.72-5.06A4.2,4.2,0,0,1,22.07,14.33Z"/></g></svg>