<svg xmlns="http://www.w3.org/2000/svg" viewBox="0 0 32 32"><defs><style>.a{fill:#dcdbdd;}.b{fill:#2a2a2a;}</style></defs><title>file.image</title><path class="a" d="M28,5V27H4V5ZM26,25V21l-3.14-3.31-5,3.88L11,14.87,6,20v5Zm0-7V7H6V17l4.92-5.41,7,6.64,4.93-3.34Z"/><polygon class="b" points="26 21 26 25 6 25 6 20 10.97 14.87 17.88 21.57 22.86 17.69 26 21"/><path class="b" d="M26,7V18l-3.14-3.11-4.93,3.34-7-6.64L6,17V7Zm-4,4a3,3,0,1,0-3,3A3,3,0,0,0,22,11Z"/><circle class="a" cx="19" cy="11" r="3"/></svg>