<svg id="Bases" xmlns="http://www.w3.org/2000/svg" viewBox="0 0 32 32"><defs><style>.cls-1{fill:none;}.cls-2{fill:#fff;}.cls-3{fill:#ffd03c;}</style></defs><title>file.ddf</title><path class="cls-1" d="M14,16.68a1.78,1.78,0,0,0-1.09-1.21,3.94,3.94,0,0,0-1.78-.23c-.35,0-.71,0-1.05,0a.64.64,0,0,1-.22-.08s0,.05,0,0a3.13,3.13,0,0,1-2-1.15c0,.12-.05.18-.06.24a5.1,5.1,0,0,0-.07,1.55,2.27,2.27,0,0,0,.76,1.53c.27.23.56.44.84.66.08.07.13.22.22.26s.24,0,.35,0a5.09,5.09,0,0,0,1.69.05c.15,0,.31,0,.45,0a1.63,1.63,0,0,0,.51-.14c.37-.18.73-.39,1.09-.57.57-.27.47-.17.43-.74A.89.89,0,0,0,14,16.68Z"/><path class="cls-1" d="M24.21,14.07a3.13,3.13,0,0,1-2,1.15s0,0,0,0a.64.64,0,0,1-.22.08c-.35,0-.7,0-1.05,0a3.94,3.94,0,0,0-1.78.23A1.78,1.78,0,0,0,18,16.68a.89.89,0,0,0,0,.23c0,.57-.14.46.43.74.37.18.73.39,1.09.57a1.63,1.63,0,0,0,.51.14c.15,0,.31,0,.45,0a5.09,5.09,0,0,0,1.69-.05c.11,0,.25.05.35,0s.14-.19.22-.26c.28-.22.57-.43.84-.66a2.27,2.27,0,0,0,.76-1.53,5.1,5.1,0,0,0-.07-1.55C24.26,14.25,24.24,14.19,24.21,14.07Z"/><path class="cls-2" d="M5.68,16.33a.08.08,0,0,1,0-.05l0,0Z"/><path class="cls-2" d="M26.32,16.33l0,0,0,0A.08.08,0,0,1,26.32,16.33Z"/><path class="cls-3" d="M28.41,11c0-.06,0-.13,0-.23a1.28,1.28,0,0,0-.11.21,1.18,1.18,0,0,1-1.09.81,7.22,7.22,0,0,1-2.83-.37,15.44,15.44,0,0,0-3-.75,7.76,7.76,0,0,0-3.66.57c-.18.07-.35.17-.53.26a2.38,2.38,0,0,1-2.29,0c-.18-.09-.35-.19-.53-.26a7.76,7.76,0,0,0-3.66-.57,15.44,15.44,0,0,0-3,.75,7.22,7.22,0,0,1-2.83.37A1.18,1.18,0,0,1,3.74,11a1.28,1.28,0,0,0-.11-.21c0,.11,0,.17,0,.23a8.28,8.28,0,0,0-.09,1.35,12.06,12.06,0,0,0,.14,1.74,10.47,10.47,0,0,0,.79,2.76A9.18,9.18,0,0,0,6,19.33,5.72,5.72,0,0,0,8.08,21.1a5.55,5.55,0,0,1,.62.39,4.69,4.69,0,0,0,2.3.63,4.52,4.52,0,0,0,.83-.07,5.52,5.52,0,0,0,2.62-1.3,2.36,2.36,0,0,1,3.09,0,5.52,5.52,0,0,0,2.62,1.3,4.52,4.52,0,0,0,.83.07,4.69,4.69,0,0,0,2.3-.63,5.55,5.55,0,0,1,.62-.39A5.72,5.72,0,0,0,26,19.33a9.18,9.18,0,0,0,1.53-2.46,10.47,10.47,0,0,0,.79-2.76,12.06,12.06,0,0,0,.14-1.74A8.28,8.28,0,0,0,28.41,11ZM5.68,16.33l0,0,0,0A.08.08,0,0,0,5.68,16.33Zm7.89,1.33c-.37.18-.73.39-1.09.57a1.63,1.63,0,0,1-.51.14c-.15,0-.31,0-.45,0a5.09,5.09,0,0,1-1.69-.05c-.11,0-.25.05-.35,0s-.14-.19-.22-.26c-.28-.22-.57-.43-.84-.66a2.27,2.27,0,0,1-.76-1.53,5.1,5.1,0,0,1,.07-1.55c0-.06,0-.13.06-.24a3.13,3.13,0,0,0,2,1.15,1.25,1.25,0,0,0,.26,0c.35,0,.7,0,1.05,0a3.94,3.94,0,0,1,1.78.23A1.78,1.78,0,0,1,14,16.68a.89.89,0,0,1,0,.23C14,17.48,14.14,17.38,13.57,17.65Zm10.77-1.79a2.27,2.27,0,0,1-.76,1.53c-.27.23-.56.44-.84.66-.08.07-.13.22-.22.26s-.24,0-.35,0a5.09,5.09,0,0,1-1.69.05c-.15,0-.31,0-.45,0a1.63,1.63,0,0,1-.51-.14c-.37-.18-.73-.39-1.09-.57-.57-.27-.47-.17-.43-.74a.89.89,0,0,1,0-.23,1.78,1.78,0,0,1,1.09-1.21,3.94,3.94,0,0,1,1.78-.23c.35,0,.71,0,1.05,0a1.25,1.25,0,0,0,.26,0,3.13,3.13,0,0,0,2-1.15c0,.12.05.18.06.24A5.1,5.1,0,0,1,24.34,15.86Zm2,.46a.08.08,0,0,0,0-.05l0,0Z"/></svg>