<svg id="Bases" xmlns="http://www.w3.org/2000/svg" viewBox="0 0 32 32"><defs><style>.cls-1{fill:#0078e5;}</style></defs><title>file.vb</title><path id="_复合路径_" data-name="&lt;复合路径&gt;" class="cls-1" d="M11.38,23H7.8L3.45,9H6.81l1.65,5.92q.87,3.14,1.21,5h.06Q10.22,17.55,11,15l1.73-6H16Z"/><path id="_复合路径_2" data-name="&lt;复合路径&gt;" class="cls-1" d="M17.5,22.8V9.28q.67-.11,1.83-.2T21.64,9a14.69,14.69,0,0,1,2.47.17,5.4,5.4,0,0,1,1.73.6,3.15,3.15,0,0,1,1.23,1.1,2.91,2.91,0,0,1,.45,1.62,2.78,2.78,0,0,1-.25,1.16,3,3,0,0,1-.78,1,4.21,4.21,0,0,1-1.31.75v0a3.92,3.92,0,0,1,2,1.21A3.16,3.16,0,0,1,28,18.81a3.58,3.58,0,0,1-1.47,2.94Q24.92,23,21,23A25.49,25.49,0,0,1,17.5,22.8Zm3.17-11.45v3.2h1.05a3.37,3.37,0,0,0,1.91-.46,1.43,1.43,0,0,0,.66-1.24,1.35,1.35,0,0,0-.59-1.19A2.92,2.92,0,0,0,22,11.26,9,9,0,0,0,20.67,11.35Zm0,5.43v3.88a12.07,12.07,0,0,0,1.24,0,4.57,4.57,0,0,0,1-.11,3,3,0,0,0,.86-.34,1.67,1.67,0,0,0,.6-.63,1.87,1.87,0,0,0,.22-.92,1.67,1.67,0,0,0-.22-.87,1.64,1.64,0,0,0-.62-.6,3.22,3.22,0,0,0-.91-.33,5.36,5.36,0,0,0-1.12-.11Z"/></svg>