<svg xmlns="http://www.w3.org/2000/svg" viewBox="0 0 32 32"><defs><style>.a{fill:#ffd03c;}.b{fill:#dcdbdd;}</style></defs><title>file.purescript</title><polygon class="a" points="21.8 22.04 19.65 20.03 10.2 20.03 12.35 22.04 21.8 22.04"/><polygon class="a" points="12.35 15 10.2 17.01 19.65 17.01 21.8 15 12.35 15"/><polygon class="a" points="21.8 11.97 19.65 9.96 10.2 9.96 12.35 11.97 21.8 11.97"/><path class="b" d="M9.2,14,7.78,12.54,2.51,17.81a1,1,0,0,0,0,1.42L7.78,24.5,9.2,23.08,4.64,18.52Z"/><path class="b" d="M29.49,12.77,24.22,7.5,22.8,8.92l4.56,4.56L22.8,18l1.42,1.42,5.27-5.27a1,1,0,0,0,0-1.42Z"/></svg>