<svg xmlns="http://www.w3.org/2000/svg" viewBox="0 0 32 32"><defs><style>.a{fill:#dcdbdd;}.b{fill:#2a2a2a;}.c{fill:#1b5eab;}.d{fill:#f77737;}</style></defs><title>file.crt</title><path class="a" d="M24,7H8A2,2,0,0,0,6,9V23a2,2,0,0,0,2,2H19.67L20,23h3V21H20V13h4V10h2V9A2,2,0,0,0,24,7Z"/><polygon class="b" points="24 23 8 23 8 9 24 9 24 12 19 17 24 22 24 23"/><rect class="a" x="10" y="12" width="6" height="2"/><rect class="a" x="10" y="17" width="10" height="2"/><path class="c" d="M21.68,22.53,20.25,31H21l3-4,3.25,4H28l-1.68-8.47Z"/><path class="d" d="M24,11a6,6,0,1,0,6,6A6,6,0,0,0,24,11Zm0,9a3,3,0,1,1,3-3A3,3,0,0,1,24,20Z"/></svg>