<svg xmlns="http://www.w3.org/2000/svg" viewBox="0 0 32 32"><defs><style>.a{fill:#2a2a2a;}.b{fill:#dcdbdd;}</style></defs><title>file.lib</title><rect class="a" x="24" y="24" width="4" height="2"/><rect class="a" x="24" y="20" width="4" height="2"/><rect class="a" x="24" y="8" width="4" height="4"/><rect class="a" x="14" y="6" width="4" height="2"/><rect class="a" x="14" y="20" width="4" height="2"/><rect class="a" x="14" y="24" width="4" height="2"/><rect class="a" x="4" y="24" width="4" height="2"/><rect class="a" x="4" y="20" width="4" height="2"/><rect class="a" x="4" y="8" width="4" height="4"/><path class="b" d="M24,8v4h4V8Zm4,14V20H24v2ZM22,6h8V28H22Zm6,20V24H24v2Z"/><path class="b" d="M18,6H14V8h4Zm0,16V20H14v2Zm0,4V24H14v2ZM20,4V28H12V4Z"/><path class="b" d="M8,8H4v4H8ZM8,22V20H4v2Zm2,6H2V6h8ZM4,24v2H8V24Z"/></svg>