<svg id="Bases" xmlns="http://www.w3.org/2000/svg" viewBox="0 0 32 32"><defs><style>.cls-1{fill:#dcdbdd;}.cls-2{fill:#f77737;}</style></defs><title>file.sass</title><g id="_编组_" data-name="&lt;编组&gt;"><g id="_编组_2" data-name="&lt;编组&gt;"><g id="_编组_3" data-name="&lt;编组&gt;"><path id="_复合路径_" data-name="&lt;复合路径&gt;" class="cls-1" d="M5,16.76V15.24a2.36,2.36,0,0,0,.68-.11,1.44,1.44,0,0,0,.44-.23.93.93,0,0,0,.25-.32,1.33,1.33,0,0,0,.12-.35,2.62,2.62,0,0,0,0-.37q0-.22,0-.46t0-.61l0-.5q-.12-1.13-.12-1.59a2.51,2.51,0,0,1,.8-2A3.4,3.4,0,0,1,9.34,8H10V9.7H9.68a1.16,1.16,0,0,0-.94.37,1.66,1.66,0,0,0-.29,1.05,8.92,8.92,0,0,0,.1,1.15q.1,1,.1,1.38a3.64,3.64,0,0,1-.1,1,1.74,1.74,0,0,1-.33.68,1.76,1.76,0,0,1-.54.43,2.94,2.94,0,0,1-.74.25v0a2.94,2.94,0,0,1,.74.24,1.7,1.7,0,0,1,.54.43,1.74,1.74,0,0,1,.33.68,3.71,3.71,0,0,1,.1,1q0,.35-.1,1.4a8.23,8.23,0,0,0-.1,1.13,1.72,1.72,0,0,0,.28,1.07,1.15,1.15,0,0,0,.94.38H10V24H9.32q-3,0-3-2.73,0-.46.12-1.59l0-.49q0-.36,0-.6c0-.16,0-.32,0-.46a2.36,2.36,0,0,0,0-.36,1.29,1.29,0,0,0-.11-.35.92.92,0,0,0-.25-.32,1.39,1.39,0,0,0-.45-.23A2.43,2.43,0,0,0,5,16.76Z"/></g></g><g id="_编组_4" data-name="&lt;编组&gt;"><g id="_编组_5" data-name="&lt;编组&gt;"><path id="_复合路径_2" data-name="&lt;复合路径&gt;" class="cls-1" d="M26.35,16.87a1.39,1.39,0,0,0-.45.23.92.92,0,0,0-.25.32,1.29,1.29,0,0,0-.11.35,2.36,2.36,0,0,0,0,.36c0,.15,0,.31,0,.46s0,.36,0,.6l0,.49q.12,1.13.12,1.59,0,2.73-3,2.73H22V22.32h.36a1.15,1.15,0,0,0,.94-.38,1.72,1.72,0,0,0,.28-1.07,8.23,8.23,0,0,0-.1-1.13q-.1-1.05-.1-1.4a3.71,3.71,0,0,1,.1-1,1.74,1.74,0,0,1,.33-.68,1.7,1.7,0,0,1,.54-.43A2.94,2.94,0,0,1,25.1,16v0a2.94,2.94,0,0,1-.74-.25,1.76,1.76,0,0,1-.54-.43,1.74,1.74,0,0,1-.33-.68,3.64,3.64,0,0,1-.1-1q0-.38.1-1.38a8.92,8.92,0,0,0,.1-1.15,1.66,1.66,0,0,0-.29-1.05,1.16,1.16,0,0,0-.94-.37H22V8h.7a3.4,3.4,0,0,1,2.24.67,2.51,2.51,0,0,1,.8,2q0,.46-.12,1.59l0,.5q0,.37,0,.61t0,.46a2.62,2.62,0,0,0,0,.37,1.33,1.33,0,0,0,.12.35.93.93,0,0,0,.25.32,1.44,1.44,0,0,0,.44.23,2.36,2.36,0,0,0,.68.11v1.52A2.43,2.43,0,0,0,26.35,16.87Z"/></g></g><g id="_编组_6" data-name="&lt;编组&gt;"><path id="_复合路径_3" data-name="&lt;复合路径&gt;" class="cls-2" d="M22.24,10c-.48-1.88-3.6-2.5-6.55-1.45a14.82,14.82,0,0,0-5,2.88C9,12.91,8.78,14.23,8.89,14.78c.38,2,3,3.22,4.15,4.17h0c-.32.16-2.69,1.36-3.25,2.59s.09,2.22.54,2.35a3.33,3.33,0,0,0,3.59-1.45,3.65,3.65,0,0,0,.36-3.24,4.26,4.26,0,0,1,1.62-.09c1.86.22,2.22,1.38,2.15,1.86a1.22,1.22,0,0,1-.59.83c-.13.08-.17.11-.16.17s.08.08.19.07a1.45,1.45,0,0,0,1-1.29c0-1.14-1-2.41-3-2.38a5.09,5.09,0,0,0-1.66.22l-.08-.09c-1.19-1.27-3.4-2.17-3.3-3.88,0-.62.25-2.26,4.24-4.25C18,8.74,20.6,9.19,21,10.18c.65,1.42-1.4,4.05-4.79,4.43a2.55,2.55,0,0,1-2.14-.54c-.18-.2-.2-.21-.27-.17s0,.23,0,.34a2,2,0,0,0,1.23,1,6.49,6.49,0,0,0,4-.39C21.1,14,22.71,11.81,22.24,10Zm-8.74,9.58a2.71,2.71,0,0,1,0,1.58l-.06.16-.07.15a3,3,0,0,1-.49.71c-.61.67-1.47.92-1.84.71s-.2-1.18.51-1.93a7.16,7.16,0,0,1,1.87-1.33h0Z"/></g></g></svg>