<svg id="Bases" xmlns="http://www.w3.org/2000/svg" viewBox="0 0 32 32"><defs><style>.cls-1{fill:#cc4e51;}</style></defs><title>file.d</title><path id="path2242" class="cls-1" d="M6.47,9A.52.52,0,0,0,6,9.5L6,22.4a.49.49,0,0,0,0,.06.42.42,0,0,0,0,.09H6v0H6v0H6l0,0h0l0,0h0l0,0h0l0,0h0l0,0h0l0,0h0l.08.06h0l0,0h0l0,0h.21l4.94,0a28,28,0,0,0,2.92-.1h0a10.13,10.13,0,0,0,1.73-.41A8.55,8.55,0,0,0,19.08,21,6.94,6.94,0,0,0,21,18.7,5.87,5.87,0,0,0,21.61,16a6.14,6.14,0,0,0-1.19-3.64A7.43,7.43,0,0,0,17.2,9.83,13.79,13.79,0,0,0,11.87,9H6.47Zm2.87,2.65h2.3a19,19,0,0,1,2.27.09,6.45,6.45,0,0,1,1.43.38,5.1,5.1,0,0,1,1.32.72h0a3.58,3.58,0,0,1,1.53,3,3.86,3.86,0,0,1-1.49,3.16,4.94,4.94,0,0,1-1,.66,6.71,6.71,0,0,1-1.43.44,14,14,0,0,1-2.53.18H9.35V11.66Z"/><path id="path2211" class="cls-1" d="M25.31,13.76a3.52,3.52,0,0,1-3.66,3.36A3.52,3.52,0,0,1,18,13.77h0a3.52,3.52,0,0,1,3.66-3.36,3.52,3.52,0,0,1,3.66,3.35Z"/><path id="path2222" class="cls-1" d="M27,10.08a1.18,1.18,0,0,1-2.35,0h0a1.18,1.18,0,0,1,2.35,0Z"/></svg>