<svg xmlns="http://www.w3.org/2000/svg" viewBox="0 0 32 32"><defs><style>.a{fill:#2a2a2a;}.b{fill:#dcdbdd;}</style></defs><title>file.text</title><polygon class="a" points="8 6 18 6 18 12 24 12 24 26 8 26 8 6"/><rect class="b" x="10" y="9" width="6" height="2"/><rect class="b" x="10" y="13" width="4" height="2"/><rect class="b" x="10" y="17" width="12" height="2"/><rect class="b" x="10" y="21" width="10" height="2"/><path class="b" d="M19.28,4H7.93A1.91,1.91,0,0,0,6,6V26a1.91,1.91,0,0,0,1.93,2h16A2,2,0,0,0,26,26V10ZM24,26H8V6H18v6h6Z"/></svg>