<svg xmlns="http://www.w3.org/2000/svg" xmlns:xlink="http://www.w3.org/1999/xlink" viewBox="0 0 32 32"><defs><style>.a{fill:url(#a);}.b{fill:url(#b);}.c{fill:url(#c);}</style><linearGradient id="a" x1="-405.38" y1="-2.49" x2="-405.32" y2="-2.49" gradientTransform="translate(103785 415) scale(256 160)" gradientUnits="userSpaceOnUse"><stop offset="0" stop-color="#c40000"/><stop offset="1" stop-color="red"/></linearGradient><linearGradient id="b" x1="-405.38" y1="-1.74" x2="-405.32" y2="-1.74" gradientTransform="translate(103785 287) scale(256 160)" xlink:href="#a"/><linearGradient id="c" x1="-405.38" y1="-3.25" x2="-405.32" y2="-3.25" gradientTransform="translate(103785 543) scale(256 160)" xlink:href="#a"/></defs><title>file.scala</title><path class="a" d="M8,15.08v5.54c0-.46,16-1.38,16-3.69h0V11.38c0,2.31-16,3.23-16,3.69"/><path class="b" d="M8,7.69v5.54c0-.46,16-1.38,16-3.69h0V4C24,6.31,8,7.23,8,7.69"/><path class="c" d="M8,22.46V28c0-.46,16-1.38,16-3.69h0V18.77C24,21.08,8,22,8,22.46"/></svg>