<svg id="Bases" xmlns="http://www.w3.org/2000/svg" viewBox="0 0 32 32"><defs><style>.cls-1{fill:#00ad00;}</style></defs><title>file.ats</title><path class="cls-1" d="M20.16,20h-5.5c-.23,0-.3,0-.3-.3,0-1.94,0-3.89,0-6.36,0-.26.05-.34.31-.33,1.47,0,4.62,0,4.62,0V11H15.41c-.19,0-.25,0-.24-.25,0-.73,0-.79,0-1.52,0-.17,0-.22.21-.22H25c.17,0,.21.05.21.22,0,.73,0,.79,0,1.52,0,.21-.06.25-.24.25H21v2h4.69c.21,0,.31,0,.31.3,0,2.65,0,4.61,0,6.43,0,.23-.07.27-.26.27ZM17.67,18.5h1.47c.16,0,.24,0,.24-.23,0-.49,0-2.55,0-3,0-.19-.05-.24-.23-.24H16.21c-.17,0-.24,0-.23.23,0,.49,0,2.55,0,3,0,.2.06.24.23.23Zm5,0h1.47c.17,0,.24,0,.23-.23,0-.49,0-2.55,0-3,0-.2-.06-.24-.23-.24H21.21c-.17,0-.24,0-.23.24,0,.49,0,2.55,0,3,0,.2.07.23.23.23Z"/><path class="cls-1" d="M11.21,16.84,10,18.76c-.84,1.34-1.68,2.69-2.51,4-.13.21-.22.22-.41.08-.38-.28-.78-.54-1.18-.78-.21-.13-.23-.22-.1-.44C7,19.8,8.16,17.92,9.32,16.06c.58-.93,1.15-1.86,1.74-2.79a.58.58,0,0,0,.08-.51,5.11,5.11,0,0,0-.44-1.1,1,1,0,0,0-1.33-.52,4,4,0,0,0-1.65,1.07c-.25.22-.48.44-.71.68s-.18.12-.3,0c-.37-.4-.75-.78-1.12-1.17-.07-.07-.16-.13,0-.25C6.46,10.58,8,9,10,9a3.28,3.28,0,0,1,2.67,1.85c.77,1.47.5,2.86.4,4.5a11.44,11.44,0,0,0,.64,4.45,2,2,0,0,0,2,1.13c3.48,0,6.46,0,9.94,0,.34,0,.41.1.39.42s0,.94,0,1.42c0,.18-.05.23-.23.23-3.7,0-6.9,0-10.6,0a3.47,3.47,0,0,1-3.33-2.48,10.19,10.19,0,0,1-.55-3c0-.21,0-.42,0-.64s.06-.1.13-.21a.1.1,0,0,0-.1,0C11.27,16.74,11.28,16.69,11.21,16.84Z"/></svg>