<svg id="Bases" xmlns="http://www.w3.org/2000/svg" viewBox="0 0 32 32"><defs><style>.cls-1{fill:#dcdbdd;}.cls-2{fill:#41b883;}.cls-3{fill:#35495e;}</style></defs><title>file.vue</title><g id="_编组_" data-name="&lt;编组&gt;"><g id="_编组_2" data-name="&lt;编组&gt;"><polygon id="_路径_" data-name="&lt;路径&gt;" class="cls-1" points="9 11 10.5 12.5 7 16 10.5 19.5 9 21 4 16 9 11"/></g><g id="_编组_3" data-name="&lt;编组&gt;"><polygon id="_路径_2" data-name="&lt;路径&gt;" class="cls-1" points="23 21 21.5 19.5 25 16 21.5 12.5 23 11 28 16 23 21"/></g><g id="_编组_4" data-name="&lt;编组&gt;"><path id="_路径_3" data-name="&lt;路径&gt;" class="cls-2" d="M19.3,12h2.2L16,21l-5.5-9h4.21L16,14.09,17.27,12Z"/><path id="_路径_4" data-name="&lt;路径&gt;" class="cls-2" d="M10.5,12,16,21l5.5-9H19.3L16,17.4,12.67,12Z"/><path id="_路径_5" data-name="&lt;路径&gt;" class="cls-3" d="M12.67,12,16,17.43,19.3,12h-2L16,14.09,14.71,12Z"/></g></g></svg>