<svg xmlns="http://www.w3.org/2000/svg" viewBox="0 0 32 32"><defs><style>.a{fill:#5382a1;}.b{fill:#e76f00;}</style></defs><title>file.java</title><path class="a" d="M12.7,21.56s-.92.53.65.71a13.73,13.73,0,0,0,5-.21,8.65,8.65,0,0,0,1.32.64c-4.7,2-10.63-.12-6.94-1.15"/><path class="a" d="M12.13,18.93s-1,.76.54.92a19.39,19.39,0,0,0,6.41-.31,2.85,2.85,0,0,0,1,.6c-5.68,1.66-12,.13-7.94-1.22"/><path class="b" d="M17,14.48a1.76,1.76,0,0,1-.3,2.53s2.94-1.52,1.59-3.42-2.23-2.65,3-5.69c0,0-8.22,2.05-4.29,6.57"/><path class="a" d="M23.18,23.5s.68.56-.75,1c-2.71.82-11.29,1.07-13.67,0-.86-.37.75-.89,1.25-1a3.26,3.26,0,0,1,.83-.09c-1-.67-6.16,1.32-2.64,1.89,9.58,1.55,17.46-.7,15-1.82"/><path class="a" d="M13.14,16.21s-4.36,1-1.54,1.41a32.76,32.76,0,0,0,5.77-.06c1.81-.15,3.62-.48,3.62-.48a7.66,7.66,0,0,0-1.1.59c-4.43,1.17-13,.62-10.52-.57a8.25,8.25,0,0,1,3.78-.89"/><path class="a" d="M21,20.58c4.5-2.34,2.42-4.59,1-4.29a3.37,3.37,0,0,0-.51.14.82.82,0,0,1,.38-.3c2.87-1,5.09,3-.93,4.56a.39.39,0,0,0,.09-.12"/><path class="b" d="M18.25,3s2.49,2.49-2.37,6.33c-3.9,3.08-.89,4.83,0,6.84-2.27-2.05-3.94-3.86-2.82-5.54C14.7,8.16,19.26,7,18.25,3"/><path class="a" d="M13.58,26.92c4.32.28,11-.15,11.12-2.2,0,0-.3.78-3.57,1.39a35.54,35.54,0,0,1-10.94.17s.55.46,3.39.64"/></svg>