<svg id="Bases" xmlns="http://www.w3.org/2000/svg" viewBox="0 0 32 32"><defs><style>.cls-1{fill:#dcdbdd;}</style></defs><title>file.font</title><g id="_编组_" data-name="&lt;编组&gt;"><path id="_复合路径_" data-name="&lt;复合路径&gt;" class="cls-1" d="M8,21.81l1.2,0,.06,0a.14.14,0,0,0,.06-.06Q11.55,15.88,14.51,8q.37,0,3.42,0l2.4,6.87,2.4,6.87,1.27.07V24H17V21.81l1.25-.07.05,0a0,0,0,0,0,0-.07,10.35,10.35,0,0,0-.43-1.34.14.14,0,0,0-.15-.09l-4.67,0-.22.83-.18.68,1.32.07V24H8Zm7.54-9.11h-.12q-.74,2.37-1.68,5.22,0,.15,0,.15h3.47Q17,17.28,15.54,12.71Z"/></g></svg>