<svg id="Bases" xmlns="http://www.w3.org/2000/svg" viewBox="0 0 32 32"><defs><style>.cls-1{fill:#be95d7;}</style></defs><title>file.prolog</title><path class="cls-1" d="M8.94,14.25a1.86,1.86,0,0,1-1.42-.6A2.15,2.15,0,0,1,7,12.12a2.11,2.11,0,0,1,.58-1.52A1.92,1.92,0,0,1,9,10a1.91,1.91,0,0,1,1.44.59A2.13,2.13,0,0,1,11,12.12a2.16,2.16,0,0,1-.56,1.54A2,2,0,0,1,8.94,14.25Zm0,7.75a1.86,1.86,0,0,1-1.42-.6A2.15,2.15,0,0,1,7,19.87a2.11,2.11,0,0,1,.58-1.52A1.92,1.92,0,0,1,9,17.75a1.91,1.91,0,0,1,1.44.59A2.13,2.13,0,0,1,11,19.87a2.16,2.16,0,0,1-.56,1.54A2,2,0,0,1,8.94,22Z"/><path class="cls-1" d="M14,14.85l11,.08v2.15L14,17Z"/></svg>