<svg id="Bases" xmlns="http://www.w3.org/2000/svg" viewBox="0 0 32 32"><defs><style>.cls-1{fill:#57aa54;}</style></defs><title>file.cs</title><g id="_编组_" data-name="&lt;编组&gt;"><g id="_编组_2" data-name="&lt;编组&gt;"><path id="_复合路径_" data-name="&lt;复合路径&gt;" class="cls-1" d="M8.48,14a5.54,5.54,0,0,0-.33,2,4.48,4.48,0,0,0,1.14,3.24,4.17,4.17,0,0,0,3.15,1.19,7.92,7.92,0,0,0,1.39-.12A5.69,5.69,0,0,0,15,20l.44,2.41a6,6,0,0,1-1.4.41A10.74,10.74,0,0,1,12,23a9.22,9.22,0,0,1-2.14-.24,6.72,6.72,0,0,1-1.76-.67,6.18,6.18,0,0,1-1.37-1,5.56,5.56,0,0,1-1-1.37A7,7,0,0,1,5.15,18a8.19,8.19,0,0,1-.2-1.85,8.48,8.48,0,0,1,.26-2.14A6.43,6.43,0,0,1,7.1,10.86a6.3,6.3,0,0,1,1.49-1,7.88,7.88,0,0,1,1.76-.62,8.84,8.84,0,0,1,2-.21,10.12,10.12,0,0,1,2,.18,4.83,4.83,0,0,1,1.33.43L15,12a6.37,6.37,0,0,0-2.56-.51,4.87,4.87,0,0,0-1.68.28,3.92,3.92,0,0,0-1.35.83A3.71,3.71,0,0,0,8.48,14ZM26,12v2h2v2H26v2H24V16H22v2H20V16H18V14h2V12H18V10h2V8h2v2h2V8h2v2h2v2Zm-2,0H22v2h2Z"/></g></g></svg>