<svg id="Bases" xmlns="http://www.w3.org/2000/svg" viewBox="0 0 32 32"><defs><style>.cls-1{fill:#0095d7;}</style></defs><title>file.php</title><g id="_编组_" data-name="&lt;编组&gt;"><path id="_复合路径_" data-name="&lt;复合路径&gt;" class="cls-1" d="M3,23V9.27A11.68,11.68,0,0,1,5.64,9a7.89,7.89,0,0,1,2.08.24,3.16,3.16,0,0,1,1.45.84A3.21,3.21,0,0,1,10,11.4a5.26,5.26,0,0,1,.28,1.73,4.91,4.91,0,0,1-1.1,3.35,3.63,3.63,0,0,1-1.44,1A4.66,4.66,0,0,1,6,17.83l-.5,0V23ZM5.52,11.3v4.32l.42,0A1.59,1.59,0,0,0,7.31,15a2.72,2.72,0,0,0,.46-1.65,4,4,0,0,0-.06-.69,2.46,2.46,0,0,0-.18-.6,1.65,1.65,0,0,0-.31-.47,1.3,1.3,0,0,0-.47-.3,1.83,1.83,0,0,0-1.24,0Z"/><path id="_复合路径_2" data-name="&lt;复合路径&gt;" class="cls-1" d="M11.8,9.06h2.52v5.58H17V9.06h2.53V23H17V17.17H14.32V23H11.8Z"/><path id="_复合路径_3" data-name="&lt;复合路径&gt;" class="cls-1" d="M21.72,23V9.27A11.68,11.68,0,0,1,24.36,9a7.89,7.89,0,0,1,2.08.24,3.16,3.16,0,0,1,1.45.84,3.21,3.21,0,0,1,.84,1.33A5.26,5.26,0,0,1,29,13.13a4.91,4.91,0,0,1-1.1,3.35,3.63,3.63,0,0,1-1.44,1,4.66,4.66,0,0,1-1.72.34l-.5,0V23Zm2.52-11.7v4.32l.42,0A1.59,1.59,0,0,0,26,15a2.72,2.72,0,0,0,.46-1.65,4,4,0,0,0-.06-.69,2.46,2.46,0,0,0-.18-.6,1.65,1.65,0,0,0-.31-.47,1.3,1.3,0,0,0-.47-.3,1.83,1.83,0,0,0-1.24,0Z"/></g></svg>