<svg xmlns="http://www.w3.org/2000/svg" viewBox="0 0 32 32"><defs><style>.a{fill:#1ba1e2;}.b{fill:#1b5eab;}.c{fill:#424242;}.d{fill:#dcdbdd;}</style></defs><title>file.sourcemap</title><path class="a" d="M30,8.27V16a2,2,0,0,1-2.07,2h-8A1.91,1.91,0,0,1,18,16V6a1.91,1.91,0,0,1,1.93-2h6.69ZM28,16V8H26V6H20V16Z"/><path class="b" d="M28,21v3l-2-2v3a3,3,0,0,1-3,3H9a3,3,0,0,1-3-3V22L4,24V21l3-3,3,3v3L8,22v3a1,1,0,0,0,1,1H23a1,1,0,0,0,1-1V22l-2,2V21l3-3Z"/><path class="c" d="M28,12v4H20V6h6V8h2Zm-2,2V12H22v2Zm0-3.92V8H22v2.09Z"/><rect class="a" x="22" y="12" width="4" height="2"/><rect class="a" x="21.99" y="7.99" width="3.99" height="2.09"/><path class="d" d="M14,8.27V16a2,2,0,0,1-2.07,2h-8A1.91,1.91,0,0,1,2,16V6A1.91,1.91,0,0,1,3.93,4h6.69ZM12,16V8H10V6H4V16Z"/><path class="c" d="M12,12v4H4V6h6V8h2Zm-2,2V12H6v2Zm0-3.92V8H6v2.09Z"/><rect class="d" x="6" y="12" width="4" height="2"/><rect class="d" x="5.99" y="7.99" width="3.99" height="2.09"/></svg>