<svg id="Bases" xmlns="http://www.w3.org/2000/svg" viewBox="0 0 32 32"><defs><style>.cls-1{fill:#1b5eab;}.cls-2{fill:#dcdbdd;}</style></defs><title>file.zip</title><path id="_复合路径_" data-name="&lt;复合路径&gt;" class="cls-1" d="M29,4H14L12,8H5A1,1,0,0,0,4,9V25a1,1,0,0,0,1,1H29a1,1,0,0,0,1-1V5A1,1,0,0,0,29,4ZM28,8H15l1-2H28Z"/><rect id="_矩形_" data-name="&lt;矩形&gt;" class="cls-2" x="9" y="9" width="2" height="2"/><rect id="_矩形_2" data-name="&lt;矩形&gt;" class="cls-2" x="11" y="11" width="2" height="2"/><rect id="_矩形_3" data-name="&lt;矩形&gt;" class="cls-2" x="9" y="13" width="2" height="2"/><rect id="_矩形_4" data-name="&lt;矩形&gt;" class="cls-2" x="11" y="15" width="2" height="2"/><rect id="_矩形_5" data-name="&lt;矩形&gt;" class="cls-2" x="9" y="17" width="2" height="2"/><rect id="_矩形_6" data-name="&lt;矩形&gt;" class="cls-2" x="11" y="19" width="2" height="2"/><rect id="_矩形_7" data-name="&lt;矩形&gt;" class="cls-2" x="9" y="21" width="2" height="2"/><rect id="_矩形_8" data-name="&lt;矩形&gt;" class="cls-2" x="11" y="23" width="2" height="2"/></svg>