<svg id="Bases" xmlns="http://www.w3.org/2000/svg" viewBox="0 0 32 32"><defs><style>.cls-1{fill:#fff;}.cls-2{fill:#2a2a2a;}</style></defs><title>file.cr</title><path class="cls-1" d="M27.2,19.06l-8.13,8.12a.11.11,0,0,1-.11,0l-11.11-3s-.08,0-.08-.08l-3-11.09a.1.1,0,0,1,0-.11l8.13-8.12a.11.11,0,0,1,.11,0l11.11,3s.08,0,.08.08l3,11.09a.08.08,0,0,1,0,.11Z"/><path class="cls-2" d="M25.28,18.53l-6.74,6.73a.09.09,0,0,1-.09,0L9.24,22.82s-.07,0-.07-.07L6.7,13.56a.08.08,0,0,1,0-.09l6.74-6.73a.09.09,0,0,1,.09,0l9.21,2.47s.07,0,.07.07l2.47,9.19a.07.07,0,0,1,0,.09Zm-9-7.32-9,2.41a0,0,0,0,0,0,0l6.62,6.6s0,0,0,0l2.43-9s0,0,0,0Z"/></svg>