<svg id="Bases" xmlns="http://www.w3.org/2000/svg" viewBox="0 0 32 32"><defs><style>.cls-1{fill:#8ac4e6;}.cls-2{fill:#dfdcdb;}.cls-3{fill:#111;}.cls-4{fill:#fff;}.cls-5{fill:#b6927f;}.cls-6{fill:#231815;}.cls-7{fill:#3a88bd;}</style></defs><title>file.go</title><g id="_编组_" data-name="&lt;编组&gt;"><path id="_路径_" data-name="&lt;路径&gt;" class="cls-1" d="M24.37,7.89c-.56-1.17-1.94-.14-2.29-.5A8,8,0,0,0,16.47,5h-.93A7.86,7.86,0,0,0,9.92,7.39c-.35.36-1.72-.67-2.29.5C7,9.25,9,9.39,8.86,10a18.72,18.72,0,0,0,.08,4.31c.25,2.7-1.76,9.18,2.42,11.78a12.29,12.29,0,0,0,4.76.81h0a10.89,10.89,0,0,0,4.5-.81c4.18-2.6,2.17-9.08,2.42-11.78A18.72,18.72,0,0,0,23.14,10C23,9.39,25,9.25,24.37,7.89Z"/><g id="_编组_2" data-name="&lt;编组&gt;"><path id="_路径_2" data-name="&lt;路径&gt;" class="cls-2" d="M18.95,8.72C16.12,9,16.5,12,17.59,13a2.26,2.26,0,0,0,3.91-1.81A2.63,2.63,0,0,0,18.95,8.72Z"/><ellipse id="_路径_3" data-name="&lt;路径&gt;" class="cls-3" cx="19.13" cy="11.28" rx="0.97" ry="0.98"/><circle id="_路径_4" data-name="&lt;路径&gt;" class="cls-4" cx="18.88" cy="10.86" r="0.31"/></g><g id="_编组_3" data-name="&lt;编组&gt;"><path id="_路径_5" data-name="&lt;路径&gt;" class="cls-5" d="M16,13.21c-1.35.2-1.84.59-1.73,1.21.17,1,3.36.89,3.46.05S16.54,13.14,16,13.21Z"/><path id="_路径_6" data-name="&lt;路径&gt;" class="cls-6" d="M15.13,13.62c-.23.84,1.84.71,1.79.17,0-.31-.31-.72-1-.7A.74.74,0,0,0,15.13,13.62Z"/><path id="_路径_7" data-name="&lt;路径&gt;" class="cls-2" d="M15.2,15c-.07,0-.2.87.18.91a3.22,3.22,0,0,0,1.15,0,.58.58,0,0,0,.11-.85A2.93,2.93,0,0,0,15.2,15Z"/></g><g id="_编组_4" data-name="&lt;编组&gt;"><path id="_路径_8" data-name="&lt;路径&gt;" class="cls-2" d="M13.05,8.72C15.88,9,15.5,12,14.41,13a2.26,2.26,0,0,1-3.91-1.81A2.63,2.63,0,0,1,13.05,8.72Z"/><ellipse id="_路径_9" data-name="&lt;路径&gt;" class="cls-3" cx="12.87" cy="11.28" rx="0.97" ry="0.98"/><circle id="_路径_10" data-name="&lt;路径&gt;" class="cls-4" cx="13.12" cy="10.86" r="0.31"/></g><path id="_路径_11" data-name="&lt;路径&gt;" class="cls-5" d="M23.21,20c.93,0,.47-2-.1-1.6-.28.2-.33.65-.33,1C22.77,19.66,22.94,20,23.21,20Z"/><path id="_路径_12" data-name="&lt;路径&gt;" class="cls-5" d="M8.79,20c-.93,0-.47-2,.1-1.6.28.2.33.65.33,1C9.23,19.66,9.06,20,8.79,20Z"/><path id="_路径_13" data-name="&lt;路径&gt;" class="cls-5" d="M21.44,26.19c-.51-.76-1-.17-1.7.21-.35.18.58.82,1.61.34C21.61,26.61,21.61,26.45,21.44,26.19Z"/><path id="_路径_14" data-name="&lt;路径&gt;" class="cls-5" d="M10.56,26.28c.51-.76,1-.17,1.7.21.35.18-.58.82-1.61.34C10.39,26.7,10.39,26.53,10.56,26.28Z"/><path id="_路径_15" data-name="&lt;路径&gt;" class="cls-7" d="M22.78,8.1c0,.18.18.16.27.7,0,.2.76-.3.46-.67S22.83,7.92,22.78,8.1Z"/><path id="_路径_16" data-name="&lt;路径&gt;" class="cls-7" d="M9.22,8.1c0,.18-.18.16-.27.7,0,.2-.76-.3-.46-.67S9.17,7.92,9.22,8.1Z"/></g></svg>