<svg id="Bases" xmlns="http://www.w3.org/2000/svg" viewBox="0 0 32 32"><defs><style>.cls-1{fill:#5fb4cb;}.cls-2{fill:#eea400;}.cls-3{fill:#596277;}.cls-4{fill:#8cd636;}</style></defs><title>file.elm</title><polygon class="cls-1" points="16 16.55 6.55 26 25.45 26 16 16.55"/><polygon class="cls-2" points="21.81 21.26 26 25.45 26 17.07 21.81 21.26"/><polygon class="cls-3" points="15.45 16 6 6.55 6 25.45 15.45 16"/><polygon class="cls-1" points="26 14.89 26 6 17.11 6 26 14.89"/><polygon class="cls-4" points="21.28 11.27 25.99 15.98 21.26 20.71 16.55 16 21.28 11.27"/><polygon class="cls-4" points="6.55 6 10.9 10.35 20.36 10.35 16.01 6 6.55 6"/><polygon class="cls-2" points="16 15.45 20.32 11.13 11.68 11.13 16 15.45"/></svg>