<svg id="Bases" xmlns="http://www.w3.org/2000/svg" viewBox="0 0 32 32"><defs><style>.cls-1{fill:#879636;}</style></defs><title>file.python</title><g id="_编组_" data-name="&lt;编组&gt;"><g id="_编组_2" data-name="&lt;编组&gt;"><path class="cls-1" d="M5,23V9.29A26.29,26.29,0,0,1,9.28,9a6.83,6.83,0,0,1,4.28,1.11,3.67,3.67,0,0,1,1.1,1.37,4.25,4.25,0,0,1,.4,1.84,5.17,5.17,0,0,1-.33,1.88,3.6,3.6,0,0,1-1,1.42,5.14,5.14,0,0,1-2,1.1,8.54,8.54,0,0,1-2.59.37A5.6,5.6,0,0,1,8.14,18v5ZM8.14,11.49V15.6a5.2,5.2,0,0,0,1.06.08,3,3,0,0,0,2-.6,2,2,0,0,0,.73-1.65,1.84,1.84,0,0,0-.65-1.5,2.82,2.82,0,0,0-1.84-.54A5.69,5.69,0,0,0,8.14,11.49ZM23,23H19.89V17.31L15.47,9H19.1l1.41,3.44q.69,1.6,1.08,2.66h0q.31-.88,1.06-2.66L24.11,9h3.55L23,17.21Z"/></g></g></svg>