<svg id="Bases" xmlns="http://www.w3.org/2000/svg" viewBox="0 0 32 32"><defs><style>.cls-1{fill:#cc4e51;}</style></defs><title>file.ruby</title><g id="_编组_" data-name="&lt;编组&gt;"><g id="_编组_2" data-name="&lt;编组&gt;"><path id="_复合路径_" data-name="&lt;复合路径&gt;" class="cls-1" d="M4.91,23V9.34A24.81,24.81,0,0,1,9,9a11.22,11.22,0,0,1,2.59.26,4.38,4.38,0,0,1,1.77.83,3.52,3.52,0,0,1,1.26,2.92,3.48,3.48,0,0,1-.21,1.2,3.38,3.38,0,0,1-.55,1,4.16,4.16,0,0,1-.76.73,3.52,3.52,0,0,1-.86.47v.07a2.42,2.42,0,0,1,1.11.92,5.52,5.52,0,0,1,.7,1.65l.38,1.51q.26,1,.42,1.61a5.37,5.37,0,0,0,.28.81H12a18.07,18.07,0,0,1-.92-3.23,5.75,5.75,0,0,0-.33-1.08,2,2,0,0,0-.46-.68,1.55,1.55,0,0,0-.61-.35,3.14,3.14,0,0,0-.83-.11h-.9V23Zm3-11.51v3.8h1.2a2.68,2.68,0,0,0,1.77-.54,1.8,1.8,0,0,0,.64-1.46A1.75,1.75,0,0,0,11,11.89a2.51,2.51,0,0,0-1.65-.49A6.17,6.17,0,0,0,7.93,11.49ZM17,22.94V9.34q.64-.12,1.74-.2T20.94,9a13.21,13.21,0,0,1,2.35.17,5,5,0,0,1,1.65.61,3,3,0,0,1,1.6,2.73,2.94,2.94,0,0,1-.23,1.17,3,3,0,0,1-.74,1,4,4,0,0,1-1.25.76v0a3.69,3.69,0,0,1,1.94,1.21A3.29,3.29,0,0,1,27,18.94a3.68,3.68,0,0,1-1.4,3q-1.53,1.25-5.3,1.25A23,23,0,0,1,17,22.94Zm3-11.53v3.23h1a3.08,3.08,0,0,0,1.82-.46,1.46,1.46,0,0,0,.63-1.25,1.39,1.39,0,0,0-.56-1.19,2.66,2.66,0,0,0-1.6-.41A8.11,8.11,0,0,0,20,11.41Zm0,5.46v3.91a11.06,11.06,0,0,0,1.18,0,4.19,4.19,0,0,0,1-.11,2.75,2.75,0,0,0,.82-.35,1.62,1.62,0,0,0,.58-.63,2,2,0,0,0,.21-.93,1.78,1.78,0,0,0-.21-.88,1.62,1.62,0,0,0-.59-.6,2.94,2.94,0,0,0-.86-.34,4.87,4.87,0,0,0-1.07-.11Z"/></g></g></svg>