<svg id="Bases" xmlns="http://www.w3.org/2000/svg" viewBox="0 0 32 32"><defs><style>.cls-1{fill:#dcdbdd;}.cls-2{fill:#0095d7;}</style></defs><title>file.scheme</title><path id="_复合路径_" data-name="&lt;复合路径&gt;" class="cls-1" d="M6.53,9H9a10.88,10.88,0,0,0-1.61,3.09A12.05,12.05,0,0,0,6.78,16a11.93,11.93,0,0,0,.6,3.9A10.9,10.9,0,0,0,9,23H6.53a11.12,11.12,0,0,1-.71-.93,10.13,10.13,0,0,1-.68-1.15,10.23,10.23,0,0,1-.59-1.39,10.41,10.41,0,0,1-.4-1.64A11.33,11.33,0,0,1,4,16,10.5,10.5,0,0,1,6.53,9Z"/><path id="_复合路径_2" data-name="&lt;复合路径&gt;" class="cls-2" d="M18.07,22.94l-1.32-4.39q-.29-1-.55-2.07h-.1q-.16.79-.47,2l-1.28,4.45H11.25L14.61,14a1.31,1.31,0,0,0,.1-.5,2,2,0,0,0-.1-.51,3.74,3.74,0,0,0-.87-1.38,1.64,1.64,0,0,0-1.15-.52h-.43l.27-2.29a2.88,2.88,0,0,1,1-.12,3.24,3.24,0,0,1,.88.12,3.12,3.12,0,0,1,.76.32,3.33,3.33,0,0,1,.66.52,5.19,5.19,0,0,1,.57.68,7.41,7.41,0,0,1,.5.83q.25.47.45.93t.41,1l3.61,9.82Z"/><path id="_复合路径_3" data-name="&lt;复合路径&gt;" class="cls-1" d="M25.47,23H23a10.88,10.88,0,0,0,1.61-3.09,12.05,12.05,0,0,0,.6-3.92,11.93,11.93,0,0,0-.6-3.9A10.9,10.9,0,0,0,23,9h2.47a11.12,11.12,0,0,1,.71.93,10.13,10.13,0,0,1,.68,1.15,10.23,10.23,0,0,1,.59,1.39,10.41,10.41,0,0,1,.4,1.64A11.33,11.33,0,0,1,28,16,10.5,10.5,0,0,1,25.47,23Z"/></svg>