<svg id="Bases" xmlns="http://www.w3.org/2000/svg" viewBox="0 0 32 32"><defs><style>.cls-1{fill:#f76037;}</style></defs><title>file.fst</title><g id="_编组_" data-name="&lt;编组&gt;"><polygon class="cls-1" points="6 23 6 9 14.54 9 14.54 11.6 9.16 11.6 9.16 14.8 14.18 14.8 14.18 17.37 9.16 17.37 9.16 23 6 23"/></g><path class="cls-1" d="M22.07,6.32l2,1.12-2.2,2.48V10L25,9.28V11.5l-3.18-.62v.06L24,13.36,22,14.5,21,11.36l0,0-1.1,3.1-1.88-1.14,2.2-2.48,0,0L17,11.5V9.28l3.06.7,0-.06L17.93,7.44l2-1.12,1,3.1h0Z"/></svg>