<svg id="Bases" xmlns="http://www.w3.org/2000/svg" viewBox="0 0 32 32"><defs><style>.cls-1{fill:#f77737;}</style></defs><title>file.jsx</title><path class="cls-1" d="M6.28,17.79V9.1h3v8.71a8.81,8.81,0,0,1-.22,2.05,4.83,4.83,0,0,1-.61,1.5,3.42,3.42,0,0,1-1,1,4.12,4.12,0,0,1-1.32.56,7,7,0,0,1-1.62.17A8.53,8.53,0,0,1,3.37,23a5.86,5.86,0,0,1-1.06-.24l.34-2.51a4.71,4.71,0,0,0,1.55.24,3,3,0,0,0,.71-.08,1.66,1.66,0,0,0,.57-.27,1.49,1.49,0,0,0,.43-.5,2.77,2.77,0,0,0,.27-.78A5.63,5.63,0,0,0,6.28,17.79Z"/><path class="cls-1" d="M11.22,22.13l.54-2.52a6.29,6.29,0,0,0,1.37.6,5.23,5.23,0,0,0,1.57.24,2.13,2.13,0,0,0,1.38-.4A1.32,1.32,0,0,0,16.57,19a1.37,1.37,0,0,0-.44-1,5.06,5.06,0,0,0-1.53-.85q-3.24-1.34-3.24-4a4.16,4.16,0,0,1,.31-1.61,3.8,3.8,0,0,1,.87-1.29A4,4,0,0,1,14,9.31,5.34,5.34,0,0,1,15.81,9a6.14,6.14,0,0,1,3,.69l-.6,2.45a4.8,4.8,0,0,0-2.44-.64,1.9,1.9,0,0,0-1.26.38,1.17,1.17,0,0,0-.45.93,1.24,1.24,0,0,0,.09.47,1.33,1.33,0,0,0,.23.38,2,2,0,0,0,.44.35q.29.18.6.34l.82.37a5.54,5.54,0,0,1,2.3,1.64,3.88,3.88,0,0,1,.74,2.4,4.71,4.71,0,0,1-.18,1.31,3.82,3.82,0,0,1-1.49,2.07,4.31,4.31,0,0,1-1.33.6,6.39,6.39,0,0,1-1.73.22,7.07,7.07,0,0,1-1.87-.25A5.36,5.36,0,0,1,11.22,22.13Z"/><path class="cls-1" d="M29.69,23h-3l-1-2.54q-.25-.58-1-2.51h0c0,.16-.09.31-.14.45l-.18.52-.16.44-.21.56-.21.54-1,2.54h-3L23,15.91,19.81,9h3l1,2.56q.47,1.16.88,2.33h0q.32-1,.79-2.33l1-2.56h3l-3.27,6.84Z"/></svg>