<svg id="Bases" xmlns="http://www.w3.org/2000/svg" xmlns:xlink="http://www.w3.org/1999/xlink" viewBox="0 0 32 32"><defs><style>.cls-1{fill:url(#未命名的渐变_5);}.cls-2{fill:url(#未命名的渐变_5-2);}.cls-3{fill:url(#未命名的渐变_5-3);}</style><linearGradient id="未命名的渐变_5" x1="-405.38" y1="-2.49" x2="-405.32" y2="-2.49" gradientTransform="translate(103785 415) scale(256 160)" gradientUnits="userSpaceOnUse"><stop offset="0" stop-color="#c40000"/><stop offset="1" stop-color="red"/></linearGradient><linearGradient id="未命名的渐变_5-2" x1="-405.38" y1="-1.74" x2="-405.32" y2="-1.74" gradientTransform="translate(103785 287) scale(256 160)" xlink:href="#未命名的渐变_5"/><linearGradient id="未命名的渐变_5-3" x1="-405.38" y1="-3.25" x2="-405.32" y2="-3.25" gradientTransform="translate(103785 543) scale(256 160)" xlink:href="#未命名的渐变_5"/></defs><title>file.scala</title><g id="_编组_" data-name="&lt;编组&gt;"><path id="_路径_" data-name="&lt;路径&gt;" class="cls-1" d="M8,15.08v5.54c0-.46,16-1.38,16-3.69h0V11.38c0,2.31-16,3.23-16,3.69"/><path id="_路径_2" data-name="&lt;路径&gt;" class="cls-2" d="M8,7.69v5.54c0-.46,16-1.38,16-3.69h0V4C24,6.31,8,7.23,8,7.69"/><path id="_路径_3" data-name="&lt;路径&gt;" class="cls-3" d="M8,22.46V28c0-.46,16-1.38,16-3.69h0V18.77C24,21.08,8,22,8,22.46"/></g></svg>