<svg xmlns="http://www.w3.org/2000/svg" viewBox="0 0 32 32"><defs><style>.a{fill:#1b5eab;}.b{fill:#dcdbdd;}</style></defs><title>file.zip</title><path class="a" d="M29,4H14L12,8H5A1,1,0,0,0,4,9V25a1,1,0,0,0,1,1H29a1,1,0,0,0,1-1V5A1,1,0,0,0,29,4ZM28,8H15l1-2H28Z"/><rect class="b" x="9" y="9" width="2" height="2"/><rect class="b" x="11" y="11" width="2" height="2"/><rect class="b" x="9" y="13" width="2" height="2"/><rect class="b" x="11" y="15" width="2" height="2"/><rect class="b" x="9" y="17" width="2" height="2"/><rect class="b" x="11" y="19" width="2" height="2"/><rect class="b" x="9" y="21" width="2" height="2"/><rect class="b" x="11" y="23" width="2" height="2"/></svg>