<?xml version="1.0" encoding="iso-8859-1"?>
<!-- Generator: Adobe Illustrator 19.0.0, SVG Export Plug-In . SVG Version: 6.00 Build 0)  -->
<svg version="1.1" id="Layer_1" xmlns="http://www.w3.org/2000/svg" xmlns:xlink="http://www.w3.org/1999/xlink" x="0px" y="0px"
	 viewBox="0 0 509.287 509.287" style="enable-background:new 0 0 509.287 509.287;" xml:space="preserve">
<circle style="fill:#619F38;" cx="254.644" cy="254.644" r="254.644"/>
<circle style="fill:#DEF7CD;" cx="254.644" cy="254.644" r="228.874"/>
<circle style="fill:#F2FFDB;" cx="254.644" cy="254.644" r="141.732"/>
<g>
	<path style="fill:#CDE4A7;" d="M279.057,233.96l53.913-31.195c6.781-3.73,8.477-12.885,3.391-18.649
		c-15.597-17.971-36.959-30.856-61.372-35.603c-7.46-1.356-14.58,4.408-14.58,12.207v62.389
		C260.408,232.604,270.58,238.707,279.057,233.96z"/>
	<path style="fill:#CDE4A7;" d="M248.879,223.11v-62.389c0-7.799-7.121-13.563-14.58-12.207
		c-24.413,4.747-45.775,17.293-61.372,35.603c-5.086,5.764-3.391,14.919,3.391,18.649l53.913,31.195
		C238.707,238.707,248.879,232.604,248.879,223.11z"/>
	<path style="fill:#CDE4A7;" d="M284.821,265.494l53.913,31.195c6.781,3.73,15.258,1.017,17.971-6.442
		c4.069-11.189,6.103-23.057,6.103-35.603s-2.034-24.413-6.103-35.603c-2.374-7.121-11.189-10.172-17.971-6.442l-53.913,31.195
		C276.683,248.54,276.683,260.747,284.821,265.494z"/>
	<path style="fill:#CDE4A7;" d="M260.408,286.177v62.389c0,7.799,7.121,13.563,14.58,12.207
		c24.413-4.747,45.775-17.293,61.372-35.603c5.086-5.764,3.391-14.919-3.391-18.649l-53.913-31.195
		C270.58,270.58,260.408,276.683,260.408,286.177z"/>
	<path style="fill:#CDE4A7;" d="M224.466,243.793l-53.913-31.195c-6.781-3.73-15.258-1.017-17.971,6.442
		c-4.069,11.189-6.103,23.057-6.103,35.603s2.034,24.413,6.103,35.603c2.374,7.121,11.189,10.172,17.971,6.442l53.913-31.195
		C232.604,260.747,232.604,248.54,224.466,243.793z"/>
	<path style="fill:#CDE4A7;" d="M230.23,275.327l-53.913,31.195c-6.781,3.73-8.477,12.885-3.391,18.649
		c15.597,17.971,36.959,30.856,61.372,35.603c7.46,1.356,14.58-4.408,14.58-12.207v-62.389
		C248.879,276.683,238.707,270.58,230.23,275.327z"/>
</g>
<g>
</g>
<g>
</g>
<g>
</g>
<g>
</g>
<g>
</g>
<g>
</g>
<g>
</g>
<g>
</g>
<g>
</g>
<g>
</g>
<g>
</g>
<g>
</g>
<g>
</g>
<g>
</g>
<g>
</g>
</svg>
