<svg id="Bases" xmlns="http://www.w3.org/2000/svg" viewBox="0 0 32 32"><defs><style>.cls-1{fill:#dcdbdd;}.cls-2{fill:#ffb612;}</style></defs><title>file.haskell</title><path class="cls-1" d="M6.38,23H8.72c.19,0,.45-.24.76-.7l4.2-6.3-.47-.7L9.47,9.7c-.3-.46-.57-.7-.76-.7H6.38c-.19,0-.13.24.17.7l4.2,6.3-.47.7L6.56,22.3c-.3.45-.36.7-.17.7"/><path class="cls-2" d="M11.17,23H13.5c.19,0,.4-.17.61-.48L17,18.19l.32.48,2.57,3.85c.21.31.42.48.61.48h2.33c.19,0,0-.49-.64-1.4L14.72,10.4c-.61-.91-1-1.4-1.23-1.4H11.17c-.19,0-.13.24.18.7l4.2,6.3-.47.7-3.73,5.6c-.3.45-.36.7-.18.7"/><path class="cls-1" d="M18.29,13.48l1.24,1.86h5.7c.41,0,.63-.07.63-.21V13.48c0-.13-.27-.21-.76-.21H18.15l.14.21"/><path class="cls-1" d="M20.54,16.87l1.24,1.86h3.67c.26,0,.4-.07.4-.21V16.87c0-.13-.19-.21-.54-.21H20.4l.14.21"/></svg>