<svg xmlns="http://www.w3.org/2000/svg" viewBox="0 0 32 32"><defs><style>.a{fill:#dcdbdd;}.b{fill:#f7941e;}.c{fill:#fdb813;}.d{fill:#faa61a;}.e{fill:#f36f21;}.f{fill:#f58220;}.g{fill:#ffcb08;}.h{fill:#fff200;}.i{fill:#f4813c;}.j{fill:#f15922;}</style></defs><title>file.haxe</title><polygon class="a" points="9 11 10.5 12.5 7 16 10.5 19.5 9 21 4 16 9 11"/><polygon class="a" points="23 21 21.5 19.5 25 16 21.5 12.5 23 11 28 16 23 21"/><rect class="b" x="12.25" y="12.25" width="7.5" height="7.5"/><polygon class="c" points="11 11 11.31 13.5 12.25 16 16 12.25 13.5 11.31 11 11"/><polygon class="d" points="11 21 13.5 20.69 16 19.75 12.25 16 11.31 18.5 11 21"/><polygon class="e" points="21 21 20.69 18.5 19.75 16 16 19.75 18.5 20.69 21 21"/><polygon class="f" points="21 11 18.5 11.31 16 12.25 19.75 16 20.69 13.5 21 11"/><polygon class="g" points="11 11 16 12.25 13.5 11 11 11"/><polygon class="h" points="11 11 11 13.5 12.25 16 11 11"/><polygon class="h" points="11 21 12.25 16 11 18.5 11 21"/><polygon class="i" points="11 21 13.5 21 16 19.75 11 21"/><polygon class="b" points="21 21 16 19.75 18.5 21 21 21"/><polygon class="j" points="21 21 21 18.5 19.75 16 21 21"/><polygon class="j" points="21 11 19.75 16 21 13.5 21 11"/><polygon class="g" points="21 11 18.5 11 16 12.25 21 11"/></svg>