<?xml version="1.0" encoding="UTF-8"?> <svg id="Bases" version="1.1" viewBox="0 0 32 32" xmlns="http://www.w3.org/2000/svg" xmlns:cc="http://creativecommons.org/ns#" xmlns:dc="http://purl.org/dc/elements/1.1/" xmlns:rdf="http://www.w3.org/1999/02/22-rdf-syntax-ns#"> <metadata> <rdf:RDF> <cc:Work rdf:about=""> <dc:format>image/svg+xml</dc:format> <dc:type rdf:resource="http://purl.org/dc/dcmitype/StillImage"/> <dc:title>file.cr</dc:title> </cc:Work> </rdf:RDF> </metadata> <defs> <style>.cls-1{fill:#dcdbdd;}.cls-2{fill:#1ba1e2;}</style> </defs> <title>file.cr</title> <style type="text/css">.st0{fill:none;}</style> <path d="m27.202 19.058-8.1335 8.1172c-0.03254 0.03254-0.08134 0.04879-0.11387 0.03254l-11.11-2.9768c-0.048801-0.01626-0.081335-0.0488-0.081335-0.08133l-2.9931-11.094c-0.016272-0.04879 0-0.08133 0.032536-0.11387l8.1335-8.1172c0.03254-0.032536 0.08133-0.048797 0.11387-0.032536l11.11 2.9768c0.0488 0.016268 0.08133 0.048797 0.08133 0.081335l2.9768 11.094c0.03254 0.0488 0.01627 0.08133-0.01626 0.11387z" fill="#fff" stroke-width=".16267"/> <path d="m26.488 18.863-7.615 7.5998c-0.03046 0.03046-0.07615 0.04568-0.10661 0.03046l-10.402-2.7871c-0.045687-0.01523-0.07615-0.04569-0.07615-0.07615l-2.8023-10.387c-0.015231-0.04569 0-0.07615 0.030463-0.10661l7.615-7.5998c0.03046-0.030463 0.07615-0.045686 0.10661-0.030463l10.402 2.7871c0.04569 0.015231 0.07615 0.045686 0.07615 0.07615l2.7871 10.387c0.03046 0.04568 0.01523 0.07615-0.01523 0.10661zm-10.204-8.2699-10.219 2.7262c-0.015231 0-0.030463 0.03046-0.015231 0.04568l7.4779 7.4627c0.01523 0.01523 0.04569 0.01523 0.04569-0.01523l2.7414-10.204c0.01523 0-0.01523-0.03046-0.03046-0.01523z" stroke-width=".1523"/> </svg>