<svg id="Bases" xmlns="http://www.w3.org/2000/svg" viewBox="0 0 32 32"><defs><style>.cls-1{fill:#e83a70;}</style></defs><title>file.erlang</title><g id="_编组_" data-name="&lt;编组&gt;"><path id="_路径_" data-name="&lt;路径&gt;" class="cls-1" d="M8.45,23a10.47,10.47,0,0,1-2.7-7.33A10.32,10.32,0,0,1,8,9H5V23H8.45Z"/><path id="_路径_2" data-name="&lt;路径&gt;" class="cls-1" d="M24.22,23a14.44,14.44,0,0,0,2-2.79L22.9,18.54c-1.16,1.9-2.87,3.65-5.22,3.67-3.43,0-4.77-3-4.76-6.75h12.8a6.5,6.5,0,0,0,0-.83A8.78,8.78,0,0,0,24.12,9H27V23H24.22Z"/><path id="_路径_3" data-name="&lt;路径&gt;" class="cls-1" d="M13.12,12.21a3.05,3.05,0,0,1,3.07-2.87A2.74,2.74,0,0,1,19,12.21Z"/></g></svg>