<svg id="Bases" xmlns="http://www.w3.org/2000/svg" viewBox="0 0 32 32"><defs><style>.cls-1{fill:#497ecf;}</style></defs><title>file.tsx</title><path class="cls-1" d="M5.31,23V11.66H2.5V9h8.4v2.66H8V23Z"/><path class="cls-1" d="M11.5,22.15,12,19.63a6.23,6.23,0,0,0,1.36.6,5.15,5.15,0,0,0,1.56.25,2.1,2.1,0,0,0,1.37-.4A1.32,1.32,0,0,0,16.82,19a1.38,1.38,0,0,0-.44-1,5,5,0,0,0-1.52-.85q-3.22-1.34-3.22-4a4.2,4.2,0,0,1,.31-1.62,3.81,3.81,0,0,1,.87-1.3,3.91,3.91,0,0,1,1.4-.86A5.25,5.25,0,0,1,16.05,9a6.05,6.05,0,0,1,3,.69l-.59,2.46A4.72,4.72,0,0,0,16,11.5a1.88,1.88,0,0,0-1.26.38,1.18,1.18,0,0,0-.44.93,1.26,1.26,0,0,0,.08.47,1.37,1.37,0,0,0,.23.38,1.94,1.94,0,0,0,.43.35c.19.12.39.23.6.34l.81.37a5.49,5.49,0,0,1,2.28,1.65,3.9,3.9,0,0,1,.73,2.41,4.76,4.76,0,0,1-.18,1.31,3.84,3.84,0,0,1-1.48,2.08,4.28,4.28,0,0,1-1.32.6,6.29,6.29,0,0,1-1.72.22A7,7,0,0,1,13,22.75,5.34,5.34,0,0,1,11.5,22.15Z"/><path class="cls-1" d="M29.6,23h-3l-1-2.54q-.25-.58-1-2.51h0c0,.16-.09.31-.14.45l-.18.52-.16.44-.21.56-.21.54L22.6,23h-3L23,15.92,19.72,9h3l1,2.56q.47,1.16.88,2.33h0q.32-1,.79-2.33l1-2.56h3l-3.27,6.84Z"/></svg>