<svg id="Bases" xmlns="http://www.w3.org/2000/svg" viewBox="0 0 32 32"><defs><style>.cls-1{fill:#f77737;}</style></defs><title>file.js</title><g id="_编组_" data-name="&lt;编组&gt;"><g id="_编组_2" data-name="&lt;编组&gt;"><path id="_复合路径_" data-name="&lt;复合路径&gt;" class="cls-1" d="M10,17.69V9h3v8.71a8.74,8.74,0,0,1-.22,2.05,4.81,4.81,0,0,1-.62,1.5,3.41,3.41,0,0,1-1,1,4.13,4.13,0,0,1-1.32.56A7.07,7.07,0,0,1,8.24,23a8.41,8.41,0,0,1-1.18-.09A5.83,5.83,0,0,1,6,22.68l.34-2.51a4.76,4.76,0,0,0,1.56.24,2.93,2.93,0,0,0,.71-.08,1.67,1.67,0,0,0,.57-.27,1.5,1.5,0,0,0,.43-.5,2.76,2.76,0,0,0,.27-.78A5.58,5.58,0,0,0,10,17.69Z"/></g><g id="_编组_3" data-name="&lt;编组&gt;"><path id="_复合路径_2" data-name="&lt;复合路径&gt;" class="cls-1" d="M15.76,22.13l.62-2.52a7.83,7.83,0,0,0,1.58.6,6.85,6.85,0,0,0,1.8.25,2.7,2.7,0,0,0,1.58-.4A1.25,1.25,0,0,0,21.9,19a1.29,1.29,0,0,0-.51-1,6,6,0,0,0-1.75-.85q-3.72-1.34-3.72-4a3.7,3.7,0,0,1,.36-1.61,3.84,3.84,0,0,1,1-1.29,4.68,4.68,0,0,1,1.61-.86A6.92,6.92,0,0,1,21,9a7.9,7.9,0,0,1,3.44.69l-.68,2.45A6.13,6.13,0,0,0,21,11.5a2.41,2.41,0,0,0-1.45.38,1.12,1.12,0,0,0-.42,1.4,1.35,1.35,0,0,0,.27.38,2.19,2.19,0,0,0,.5.35c.22.12.45.23.69.34l.94.37a6.36,6.36,0,0,1,2.64,1.64,3.54,3.54,0,0,1,.84,2.4,4.15,4.15,0,0,1-.21,1.31,3.6,3.6,0,0,1-.64,1.15,4.13,4.13,0,0,1-1.06.92,5.3,5.3,0,0,1-1.53.6,8.34,8.34,0,0,1-2,.22,9.24,9.24,0,0,1-2.14-.25A6.73,6.73,0,0,1,15.76,22.13Z"/></g></g></svg>