<svg id="Bases" xmlns="http://www.w3.org/2000/svg" viewBox="0 0 32 32"><defs><style>.cls-1{fill:#2a2a2a;}.cls-2{fill:#dcdbdd;}</style></defs><title>file.lib</title><g id="_编组_" data-name="&lt;编组&gt;"><g id="_编组_2" data-name="&lt;编组&gt;"><rect id="_路径_" data-name="&lt;路径&gt;" class="cls-1" x="24" y="24" width="4" height="2"/><rect id="_路径_2" data-name="&lt;路径&gt;" class="cls-1" x="24" y="20" width="4" height="2"/><rect id="_路径_3" data-name="&lt;路径&gt;" class="cls-1" x="24" y="8" width="4" height="4"/><rect id="_路径_4" data-name="&lt;路径&gt;" class="cls-1" x="14" y="6" width="4" height="2"/><rect id="_路径_5" data-name="&lt;路径&gt;" class="cls-1" x="14" y="20" width="4" height="2"/><rect id="_路径_6" data-name="&lt;路径&gt;" class="cls-1" x="14" y="24" width="4" height="2"/><rect id="_路径_7" data-name="&lt;路径&gt;" class="cls-1" x="4" y="24" width="4" height="2"/><rect id="_路径_8" data-name="&lt;路径&gt;" class="cls-1" x="4" y="20" width="4" height="2"/><rect id="_路径_9" data-name="&lt;路径&gt;" class="cls-1" x="4" y="8" width="4" height="4"/><path id="_复合路径_" data-name="&lt;复合路径&gt;" class="cls-2" d="M24,8v4h4V8Zm4,14V20H24v2ZM22,6h8V28H22Zm6,20V24H24v2Z"/><path id="_复合路径_2" data-name="&lt;复合路径&gt;" class="cls-2" d="M18,6H14V8h4Zm0,16V20H14v2Zm0,4V24H14v2ZM20,4V28H12V4Z"/><path id="_复合路径_3" data-name="&lt;复合路径&gt;" class="cls-2" d="M8,8H4v4H8ZM8,22V20H4v2Zm2,6H2V6h8ZM4,24v2H8V24Z"/></g></g></svg>