<svg xmlns="http://www.w3.org/2000/svg" viewBox="0 0 32 32"><defs><style>.icon-folder{fill:#dcb67a;}.cls-1{fill:#018fd4;}.cls-2{fill:#252526;}.cls-3{fill:#1b9ad9;}.cls-4{fill:#007cb9;}.cls-5{fill:#34a3dd;}</style></defs><title>folder.vs.open</title><g id="Bases"><g id="_编组_" data-name="&lt;编组&gt;"><path id="_复合路径_" data-name="&lt;复合路径&gt;" class="icon-folder" d="M28,4a2,2,0,0,1,2,2V24a1.92,1.92,0,0,1-2,2V6H16l-2,4H6v6H22l6,10H6L0,16H4V10C4,8,6.47,8,6,8h7l2-4Z"/></g></g><g id="Overlays"><g id="_编组_2" data-name="&lt;编组&gt;"><g id="_编组_3" data-name="&lt;编组&gt;"><g id="_编组_4" data-name="&lt;编组&gt;"><path class="cls-1" d="M17.06,31a1.54,1.54,0,0,1-.67-.16l-1.6-.74-.92-.42a1.17,1.17,0,0,1-.81-.79,1,1,0,0,1,.28-1l.28-.25,2.84-2.73,2.19-2.09.12-.11a1,1,0,0,1,.25-.3l.14-.12.21-.17,1.91-1.84L26,15.72a1.2,1.2,0,0,1,1.41-.27l2.17,1,.77.36a1,1,0,0,1,.58.94V28.55A1,1,0,0,1,29,29a1.56,1.56,0,0,1-.18-.88V20.19l-3.57,3.41a1,1,0,0,1-.57.58l-1.83,1.74a1,1,0,0,1-.41.37l-.56.53Q20,28.67,18.07,30.52A1.43,1.43,0,0,1,17.06,31Z"/><path class="cls-2" d="M26.89,16.33l.1,0,3,1.37c0,.15,0,.29,0,.44q0,5,0,10v.43a.71.71,0,0,1-.06-.42q0-3.89,0-7.78,0-1.09,0-2.17c0-.06,0-.15-.05-.18h0c-.05,0-.09.05-.13.09L26.8,20.78,24.5,23c-.08.07-.2.13-.15.27h0a.27.27,0,0,0-.19.1l-2.09,2s0,0,0,.06-.21.14-.29.22q-2.19,2.09-4.37,4.18a.45.45,0,0,1-.31.16.57.57,0,0,1-.24-.07c-.84-.4-1.69-.77-2.53-1.16-.1,0-.23,0-.27-.18l.3-.27,2.84-2.73,2.19-2.09c.11-.11.26-.19.31-.35s.28-.22.41-.34L22,20.93l3.67-3.48,1.05-1c.06-.06.11-.11.19-.11m0-2a2.2,2.2,0,0,0-1.57.66l-.24.23-.81.78L21.6,18.54l-1,.95-.51.49-1.4,1.36-.13.11-.16.13A2,2,0,0,0,18,22l0,0-1.64,1.57-.54.51-.67.64-2.18,2.09-.15.13-.11.1a2,2,0,0,0-.57,2.08,2.19,2.19,0,0,0,1.43,1.43l.86.39L16,31.7a2.51,2.51,0,0,0,1.1.26,2.42,2.42,0,0,0,1.7-.72q1.94-1.88,3.91-3.74l.41-.39a2,2,0,0,0,.57-.53L25.29,25a2,2,0,0,0,.83-.82l1.55-1.48.19-.18q0,2.78,0,5.56a2.56,2.56,0,0,0,.3,1.4,2,2,0,0,0,3.76-.95V18.16c0-.08,0-.15,0-.23v-.16a2,2,0,0,0-1.16-1.88l-.73-.33-2.21-1a2.22,2.22,0,0,0-1-.22Zm-.64,8.25h0Zm-3.88,4.79h0Z"/></g><g id="_编组_5" data-name="&lt;编组&gt;"><path class="cls-3" d="M26.9,31a1.14,1.14,0,0,1-.86-.4,1,1,0,0,1-.17-1.06l0-5.21V21.09a1,1,0,0,1,.26-1l3-2.83A1,1,0,0,1,30.65,17a1.25,1.25,0,0,1,.34,1v3.31q0,3.47,0,6.94a1.38,1.38,0,0,1-.88,1.35l-1.69.76-.93.42A1.14,1.14,0,0,1,26.9,31Z"/><path class="cls-2" d="M29.94,17.72c.09.1.05.22.05.32,0,3.42,0,6.84,0,10.26a.4.4,0,0,1-.28.43c-.88.39-1.75.79-2.63,1.19-.06,0-.12.08-.19.08a.15.15,0,0,1-.11-.06.62.62,0,0,0,.08-.29q0-2.06,0-4.12,0-2.22,0-4.43c0-.11,0-.23,0-.32l2.84-2.71s.07-.09.13-.09h0c.07,0,0,.12.05.18q0,1.09,0,2.17,0,3.89,0,7.78a.71.71,0,0,0,.06.42v-.43q0-5,0-10c0-.15,0-.29,0-.44m0-2a2,2,0,0,0-1.65.86l-.06.06-2.34,2.24-.47.45a2,2,0,0,0-.57,1.89q0,1.72,0,3.45v4.71a2,2,0,0,0,.42,1.88A2.15,2.15,0,0,0,26.9,32,2.22,2.22,0,0,0,28,31.71l.87-.4,1.67-.75A2.38,2.38,0,0,0,32,28.3q0-3.47,0-6.94V18.11a2.22,2.22,0,0,0-.62-1.78,2,2,0,0,0-1.43-.6Z"/></g><g id="_编组_6" data-name="&lt;编组&gt;"><path class="cls-4" d="M14,29.56a1,1,0,0,1-1-.92l1-.08-1,0a2.7,2.7,0,0,1,0-.29V18.05a2.75,2.75,0,0,1,0-.32,1.08,1.08,0,0,1,.66-.87,1.21,1.21,0,0,1,.4-.07.9.9,0,0,1,.63.24l.58.55.59.57c.27.27.54.54.83.79a9.5,9.5,0,0,1,1.21,1.24,1,1,0,0,1,.21.62s0,1.64,0,2.13l0,2.61a1,1,0,0,1-.31.73L15,29l-.32.29A1,1,0,0,1,14,29.56Z"/><path class="cls-2" d="M14,17.75l.58.56c.48.46.94.94,1.44,1.39a8.55,8.55,0,0,1,1.09,1.11c0,.71,0,1.43,0,2.14,0,.87,0,1.74,0,2.61l-2.84,2.73-.3.27c0-.09,0-.18,0-.27q0-5.12,0-10.24c0-.1,0-.2,0-.3m0-2a2,2,0,0,0-2,1.81v0A3.7,3.7,0,0,0,12,18q0,5.12,0,10.24a3.73,3.73,0,0,0,0,.39,2,2,0,0,0,1.26,1.71,2.07,2.07,0,0,0,.76.15,2,2,0,0,0,1.32-.5l.08-.07.26-.24,2.2-2.12.64-.62a2,2,0,0,0,.61-1.46v-.79c0-.6,0-1.21,0-1.81s0-1,0-1.47v-.66a2,2,0,0,0-.43-1.24,10.59,10.59,0,0,0-1.34-1.37c-.26-.23-.51-.48-.78-.75l-.6-.59-.39-.37-.18-.18A2,2,0,0,0,14,15.75Z"/></g><g id="_编组_7" data-name="&lt;编组&gt;"><path class="cls-5" d="M19.66,24.12a1,1,0,0,1-.69-.27L16.7,21.7a1,1,0,0,1-.34-.28,7.69,7.69,0,0,0-1-1c-.32-.28-.62-.58-.92-.87L13.93,19l-.59-.56a1,1,0,0,1,0-1.49,3,3,0,0,1,.87-.48l.21-.09,1.13-.52.88-.4a1.43,1.43,0,0,1,.61-.15,1.27,1.27,0,0,1,.9.38l3.57,3.43,1.11,1.07a1,1,0,0,1,0,1.44L20.76,23.5c-.11.11-.23.2-.35.3l-.11.09A1,1,0,0,1,19.66,24.12Z"/><path class="cls-2" d="M17.09,16.34a.29.29,0,0,1,.2.1L22,20.93l-1.91,1.84c-.13.12-.27.23-.41.34L17.43,21c-.09-.08-.15-.21-.29-.22a8.56,8.56,0,0,0-1.09-1.11c-.5-.44-1-.93-1.44-1.39L14,17.75a3.7,3.7,0,0,1,.87-.44c.67-.32,1.34-.61,2-.92a.45.45,0,0,1,.18-.05m0-2a2.4,2.4,0,0,0-1,.24l-.87.4L14,15.51l-.16.07a4,4,0,0,0-1.14.65,2,2,0,0,0-.09,3l.18.17.41.39.53.52c.3.3.61.61,1,.92a6.77,6.77,0,0,1,.84.85,2,2,0,0,0,.52.47l1.67,1.58.51.49a2,2,0,0,0,2.64.09l.1-.08c.15-.12.29-.23.43-.36l1.42-1.37.5-.48a2,2,0,0,0,0-2.88l-1-.94L18.68,15a2.25,2.25,0,0,0-1.59-.66Z"/></g><g id="_编组_8" data-name="&lt;编组&gt;"><path class="cls-5" d="M26.79,30.94a1,1,0,0,1-.68-.27l-.5-.47-1.06-1-3.2-3.08a1,1,0,0,1-.27-1,.87.87,0,0,1,.29-.52l2.1-2a1.24,1.24,0,0,1,.87-.37h.13a1,1,0,0,1,.53.23c.53.45,1,.93,1.5,1.39l.75.72,0,0a1,1,0,0,1,.56.9l0,4.11a1.6,1.6,0,0,1-.19.74,1,1,0,0,1-.72.54Z"/><path class="cls-2" d="M24.34,23.25h0c.77.65,1.47,1.38,2.21,2.07.09.08.15.2.29.22q0,2.06,0,4.12a.62.62,0,0,1-.08.29l-1.55-1.46L22,25.4s0-.05,0-.06l2.09-2a.27.27,0,0,1,.19-.1m0-2a2.24,2.24,0,0,0-1.56.64l-2.1,2a2.13,2.13,0,0,0-.6,1.12,2,2,0,0,0,.57,1.83l.93.9,2.27,2.19,1.09,1,.48.45a2,2,0,0,0,3.16-.56,2.58,2.58,0,0,0,.3-1.19V25.53a2,2,0,0,0-1-1.7l-.7-.68c-.49-.48-1-1-1.55-1.44a2,2,0,0,0-1.07-.46Z"/></g></g><g id="_编组_9" data-name="&lt;编组&gt;"><path id="_路径_" data-name="&lt;路径&gt;" class="cls-1" d="M22,25.4c-.14,0-.21.14-.29.22q-2.19,2.09-4.37,4.18a.41.41,0,0,1-.55.09c-.84-.4-1.69-.77-2.53-1.16-.1,0-.23,0-.27-.18l.3-.27,2.84-2.73,2.19-2.09c.11-.11.26-.19.31-.35s.28-.22.41-.34L22,20.93l3.67-3.48,1.05-1c.08-.08.15-.15.29-.09l3,1.37c0,.15,0,.29,0,.44q0,5,0,10v.43a.71.71,0,0,1-.06-.42q0-3.89,0-7.78,0-1.09,0-2.17c0-.06,0-.15-.05-.18s-.12,0-.17.08L26.8,20.78,24.5,23c-.08.07-.2.13-.15.27a.26.26,0,0,0-.21.09l-2.09,2S22,25.38,22,25.4Z"/><path id="_路径_2" data-name="&lt;路径&gt;" class="cls-3" d="M26.8,20.78l2.84-2.71s.09-.12.17-.08,0,.12.05.18q0,1.09,0,2.17,0,3.89,0,7.78a.71.71,0,0,0,.06.42v-.43q0-5,0-10c0-.15,0-.29,0-.44.09.1.05.22.05.32,0,3.42,0,6.84,0,10.26a.4.4,0,0,1-.28.43c-.88.39-1.75.79-2.63,1.19-.09,0-.19.15-.3,0a.62.62,0,0,0,.08-.29q0-2.06,0-4.12,0-2.22,0-4.43C26.85,21,26.9,20.88,26.8,20.78Z"/><path id="_路径_3" data-name="&lt;路径&gt;" class="cls-4" d="M17.16,25.55l-2.84,2.73-.3.27c0-.09,0-.18,0-.27q0-5.12,0-10.24c0-.1,0-.2,0-.3l.58.56c.48.46.94.94,1.44,1.39a8.55,8.55,0,0,1,1.09,1.11c0,.71,0,1.43,0,2.14C17.14,23.81,17.15,24.68,17.16,25.55Z"/><path id="_路径_4" data-name="&lt;路径&gt;" class="cls-5" d="M17.14,20.8a8.55,8.55,0,0,0-1.09-1.11c-.5-.44-1-.93-1.44-1.39L14,17.75a3.7,3.7,0,0,1,.87-.44c.67-.32,1.34-.61,2-.92a.29.29,0,0,1,.39,0L22,20.93l-1.91,1.84c-.13.12-.27.23-.41.34L17.43,21C17.35,20.94,17.28,20.81,17.14,20.8Z"/><path id="_路径_5" data-name="&lt;路径&gt;" class="cls-5" d="M26.86,25.54q0,2.06,0,4.12a.62.62,0,0,1-.08.29l-1.55-1.46L22,25.4s0-.05,0-.06l2.09-2a.26.26,0,0,1,.21-.09c.77.65,1.47,1.38,2.21,2.07C26.65,25.4,26.71,25.53,26.86,25.54Z"/></g></g></g></svg>