<svg xmlns="http://www.w3.org/2000/svg" viewBox="0 0 32 32"><defs><style>.a{fill:#dcb67a;}.b{fill:#2a2a2a;}.c{fill:#fff;}.d{fill:#252526;}.e{fill:#f05133;}</style></defs><title>folder.git.close</title><path class="a" d="M30,5V25a1,1,0,0,1-1,1H5a1,1,0,0,1-1-1V9A1,1,0,0,1,5,8h7l2-4H29A1,1,0,0,1,30,5ZM28,8V6H16L15,8Z"/><polygon class="b" points="28.01 6 28.01 8 15.02 8 16.02 6 28.01 6"/><path class="c" d="M22,31.25a1.84,1.84,0,0,1-1.3-.54l-7.42-7.42a1.85,1.85,0,0,1,0-2.61l7.39-7.39a1.84,1.84,0,0,1,2.61,0l7.42,7.42a1.85,1.85,0,0,1,0,2.61l-7.39,7.39A1.84,1.84,0,0,1,22,31.25Z"/><path class="d" d="M22,13.5a1.09,1.09,0,0,1,.77.32l7.42,7.42a1.1,1.1,0,0,1,0,1.55l-7.39,7.39a1.1,1.1,0,0,1-1.55,0l-7.42-7.42a1.1,1.1,0,0,1,0-1.55l7.39-7.39A1.09,1.09,0,0,1,22,13.5M22,12a2.58,2.58,0,0,0-1.84.76l-7.39,7.39a2.6,2.6,0,0,0,0,3.67l7.42,7.42a2.6,2.6,0,0,0,3.67,0l7.39-7.39a2.6,2.6,0,0,0,0-3.67l-7.42-7.42A2.57,2.57,0,0,0,22,12Z"/><path class="e" d="M30.18,22.79l-7.39,7.39a1.1,1.1,0,0,1-1.55,0l-7.42-7.42a1.1,1.1,0,0,1,0-1.55l5.09-5.09L20.84,18a1.3,1.3,0,0,0,.28,1.42c.13.13.09.07.25.13v4.71a.92.92,0,0,0-.32.26,1.35,1.35,0,0,0,.9,2.37,1.39,1.39,0,0,0,.28,0,1.29,1.29,0,0,0,.88-2,1.35,1.35,0,0,0-.49-.48V19.84l1.76,1.76a1.31,1.31,0,1,0,.78-.73L23.27,19a1.3,1.3,0,0,0-1.64-1.66l-2-2,1.54-1.54a1.09,1.09,0,0,1,1.55,0l7.42,7.42A1.1,1.1,0,0,1,30.18,22.79Z"/></svg>