<svg xmlns="http://www.w3.org/2000/svg" viewBox="0 0 32 32"><defs><style>.icon-folder{fill:#dcb67a;}.cls-1{fill:#f77737;}.cls-2{fill:#252526;}</style></defs><title>folder.js.open</title><g id="Bases"><g id="_编组_" data-name="&lt;编组&gt;"><path id="_复合路径_" data-name="&lt;复合路径&gt;" class="icon-folder" d="M28,4a2,2,0,0,1,2,2V24a1.92,1.92,0,0,1-2,2V6H16l-2,4H6v6H22l6,10H6L0,16H4V10C4,8,6.47,8,6,8h7l2-4Z"/></g></g><g id="Overlays"><g id="_编组_2" data-name="&lt;编组&gt;"><g id="_编组_3" data-name="&lt;编组&gt;"><path class="cls-1" d="M13.24,31a9.42,9.42,0,0,1-1.32-.1,6.83,6.83,0,0,1-1.24-.28l-.78-.27L10.35,27l1.32-.81a3.79,3.79,0,0,0,1.23.19,2,2,0,0,0,.47,0,.68.68,0,0,0,.24-.11.51.51,0,0,0,.14-.17,1.75,1.75,0,0,0,.16-.49,4.63,4.63,0,0,0,.08-.9V15h5v9.71A9.76,9.76,0,0,1,18.78,27,5.81,5.81,0,0,1,18,28.81a4.41,4.41,0,0,1-1.29,1.29,5.15,5.15,0,0,1-1.64.7A8.11,8.11,0,0,1,13.24,31Z"/><path class="cls-2" d="M18,16v8.71a8.74,8.74,0,0,1-.22,2.05,4.81,4.81,0,0,1-.62,1.5,3.41,3.41,0,0,1-1,1,4.13,4.13,0,0,1-1.32.56,7.07,7.07,0,0,1-1.63.17,8.41,8.41,0,0,1-1.18-.09A5.83,5.83,0,0,1,11,29.68l.34-2.51a4.76,4.76,0,0,0,1.56.24,2.93,2.93,0,0,0,.71-.08,1.67,1.67,0,0,0,.57-.27,1.5,1.5,0,0,0,.43-.5,2.76,2.76,0,0,0,.27-.78,5.58,5.58,0,0,0,.1-1.1V16h3m2-2H13V24.69a3.6,3.6,0,0,1-.06.7v0h0a2.79,2.79,0,0,1-.91-.14L9.36,26.89,9,29.41,8.8,31l1.56.53a7.73,7.73,0,0,0,1.43.32,10.43,10.43,0,0,0,1.46.11,9.09,9.09,0,0,0,2.09-.23,6.15,6.15,0,0,0,2-.84,5.41,5.41,0,0,0,1.57-1.58,6.82,6.82,0,0,0,.89-2.13A10.76,10.76,0,0,0,20,24.71V14Z"/></g><g id="_编组_4" data-name="&lt;编组&gt;"><path class="cls-1" d="M24.58,31a10.27,10.27,0,0,1-2.38-.28A7.62,7.62,0,0,1,20.28,30l-.67-.37.8-3.26,1.44-.65a6.86,6.86,0,0,0,1.37.52,5.87,5.87,0,0,0,1.54.21,1.85,1.85,0,0,0,1-.21A.26.26,0,0,0,25.9,26a.3.3,0,0,0-.14-.27A5,5,0,0,0,24.31,25c-2.91-1-4.39-2.72-4.39-5a4.7,4.7,0,0,1,.45-2,4.85,4.85,0,0,1,1.26-1.63,5.69,5.69,0,0,1,2-1A7.94,7.94,0,0,1,26,15a8.92,8.92,0,0,1,3.88.79l.76.36-.91,3.26L28.33,20A5.1,5.1,0,0,0,26,19.5a1.54,1.54,0,0,0-.86.18c-.11.08-.11.11-.11.12a.29.29,0,0,0,.08.15,1.28,1.28,0,0,0,.27.18q.29.16.61.3l.89.36a7.25,7.25,0,0,1,3,1.93A4.53,4.53,0,0,1,31,25.77a5.17,5.17,0,0,1-.26,1.63,4.61,4.61,0,0,1-.81,1.47A5.14,5.14,0,0,1,28.61,30a6.33,6.33,0,0,1-1.81.72A9.39,9.39,0,0,1,24.58,31Z"/><path class="cls-2" d="M26,16a7.9,7.9,0,0,1,3.44.69l-.68,2.45A6.13,6.13,0,0,0,26,18.5a2.41,2.41,0,0,0-1.45.38,1.12,1.12,0,0,0-.42,1.4,1.35,1.35,0,0,0,.27.38,2.19,2.19,0,0,0,.5.35c.22.12.45.23.69.34l.94.37a6.36,6.36,0,0,1,2.64,1.64,3.54,3.54,0,0,1,.84,2.4,4.15,4.15,0,0,1-.21,1.31,3.6,3.6,0,0,1-.64,1.15,4.13,4.13,0,0,1-1.06.92,5.3,5.3,0,0,1-1.53.6,8.34,8.34,0,0,1-2,.22,9.24,9.24,0,0,1-2.14-.25,6.73,6.73,0,0,1-1.67-.59l.62-2.52a7.83,7.83,0,0,0,1.58.6,6.85,6.85,0,0,0,1.8.25,2.7,2.7,0,0,0,1.58-.4A1.25,1.25,0,0,0,26.9,26a1.29,1.29,0,0,0-.51-1,6,6,0,0,0-1.75-.85q-3.72-1.34-3.72-4a3.7,3.7,0,0,1,.36-1.61,3.84,3.84,0,0,1,1-1.29,4.68,4.68,0,0,1,1.61-.86A6.92,6.92,0,0,1,26,16m0-2a8.94,8.94,0,0,0-2.74.41A6.68,6.68,0,0,0,21,15.64a5.84,5.84,0,0,0-1.52,2,5.7,5.7,0,0,0-.55,2.47,5.62,5.62,0,0,0,3,5l-2.48,1.12-.62,2.52-.37,1.49,1.34.74a8.59,8.59,0,0,0,2.18.79,11.28,11.28,0,0,0,2.61.31A10.37,10.37,0,0,0,27,31.7a7.3,7.3,0,0,0,2.1-.84,6.14,6.14,0,0,0,1.57-1.36,5.6,5.6,0,0,0,1-1.78A6.17,6.17,0,0,0,32,25.77a5.5,5.5,0,0,0-1.33-3.71,6.94,6.94,0,0,0-1.92-1.52l2-.87.68-2.45.45-1.62-1.51-.72A9.91,9.91,0,0,0,26,14Z"/></g></g></g></svg>