<svg xmlns="http://www.w3.org/2000/svg" viewBox="0 0 32 32"><defs><style>.icon-folder{fill:#dcb67a;}.a{fill:#424242;}.b{fill:#252526;}.c{fill:#f0400a;}</style></defs><title>folder.include.open</title><path class="icon-folder" d="M28,4a2,2,0,0,1,2,2V24a1.92,1.92,0,0,1-2,2V6H16l-2,4H6v6H22l6,10H6L0,16H4V10C4,8,6.47,8,6,8h7l2-4Z"/><path class="a" d="M6,16V10h8l2-4H28V26L22,16Z"/><path class="b" d="M24.71,17.46,22,20.17V20H16v.17l-2.71-2.71L5.76,25l7,7h1.07L16,29.83V30h6v-.17L24.17,32h1.07L32,25.24v-.48Z"/><path class="c" d="M14.71,28.29,11.41,25l3.29-3.29-1.41-1.41L8.59,25l4.71,4.71ZM29.41,25l-4.71-4.71-1.41,1.41L26.59,25l-3.29,3.29,1.41,1.41ZM22,24H20V22H18v2H16v2h2v2h2V26h2Z"/></svg>