<svg xmlns="http://www.w3.org/2000/svg" viewBox="0 0 32 32"><defs><style>.icon-folder{fill:#dcb67a;}.cls-1{fill:#252526;}.cls-2{fill:#dcdbdd;}</style></defs><title>folder.dist.open</title><g id="Bases"><g id="_编组_" data-name="&lt;编组&gt;"><path id="_复合路径_" data-name="&lt;复合路径&gt;" class="icon-folder" d="M28,4a2,2,0,0,1,2,2V24a1.92,1.92,0,0,1-2,2V6H16l-2,4H6v6H22l6,10H6L0,16H4V10C4,8,6.47,8,6,8h7l2-4Z"/></g></g><g id="Overlays"><g id="_编组_2" data-name="&lt;编组&gt;"><polygon id="_路径_" data-name="&lt;路径&gt;" class="cls-1" points="18 17 25 13 32 17 32 32 18 32 18 17"/><path id="_复合路径_2" data-name="&lt;复合路径&gt;" class="cls-2" d="M30,18l-3.15-2L25,20l-1.55-4L20,18l3,2H20V30H30V20H27ZM24,28H22V26h2Zm0-4H22V22h2Zm4,4H26V26h2Zm0-6v2H26V22Z"/></g></g></svg>