<svg xmlns="http://www.w3.org/2000/svg" viewBox="0 0 32 32"><defs><style>.icon-folder{fill:#dcb67a;}.a{fill:#252526;}.b{fill:#57aa54;}</style></defs><title>folder.src.close</title><path class="icon-folder" d="M29,4H14L12,8H5A1,1,0,0,0,4,9V25a1,1,0,0,0,1,1H29a1,1,0,0,0,1-1V5A1,1,0,0,0,29,4ZM28,8H15l1-2H28Z"/><path class="a" d="M20,32a3.92,3.92,0,0,1-4-4V18a3.92,3.92,0,0,1,4-4h8.75L32,18.12V28a3.92,3.92,0,0,1-4,4Z"/><path class="b" d="M26.63,16h-6.7A1.91,1.91,0,0,0,18,18V28a1.91,1.91,0,0,0,1.93,2h8A2,2,0,0,0,30,28V20.27ZM28,24h0v4H20V18h6v2h2Z"/><rect class="b" x="21.99" y="19.99" width="3.99" height="2.09"/><rect class="b" x="22" y="24" width="4" height="2"/></svg>