<svg xmlns="http://www.w3.org/2000/svg" viewBox="0 0 32 32"><defs><style>.icon-folder{fill:#dcb67a;}.cls-1{fill:#497ecf;}.cls-2{fill:#252526;}</style></defs><title>folder.ts.open</title><g id="Bases"><g id="_编组_" data-name="&lt;编组&gt;"><path id="_复合路径_" data-name="&lt;复合路径&gt;" class="icon-folder" d="M28,4a2,2,0,0,1,2,2V24a1.92,1.92,0,0,1-2,2V6H16l-2,4H6v6H22l6,10H6L0,16H4V10C4,8,6.47,8,6,8h7l2-4Z"/></g></g><g id="Overlays"><g id="_编组_2" data-name="&lt;编组&gt;"><path class="cls-1" d="M24.13,31a11.81,11.81,0,0,1-2.54-.27A8.54,8.54,0,0,1,19.54,30l-.72-.37.88-3.3,1.4-.64a7.93,7.93,0,0,0,1.51.53,6.93,6.93,0,0,0,1.71.22,2.14,2.14,0,0,0,1.17-.23c.15-.1.15-.16.15-.24s0-.13-.16-.25a5.68,5.68,0,0,0-1.6-.7c-3.13-1-4.72-2.72-4.72-5a4.48,4.48,0,0,1,.5-2.07A4.89,4.89,0,0,1,21,16.38a6.23,6.23,0,0,1,2.07-1A9.09,9.09,0,0,1,25.69,15a10.16,10.16,0,0,1,4.13.78l.81.36-1,3.3-1.38.62a6.12,6.12,0,0,0-2.61-.55,1.8,1.8,0,0,0-1,.2.42.42,0,0,0-.12.11.29.29,0,0,0,.08.12,1.44,1.44,0,0,0,.31.19c.21.1.44.21.67.3l1,.36a7.86,7.86,0,0,1,3.26,1.91A4.37,4.37,0,0,1,31,25.78a4.88,4.88,0,0,1-.28,1.65,4.55,4.55,0,0,1-.88,1.48A5.46,5.46,0,0,1,28.43,30a7.09,7.09,0,0,1-1.93.71A10.74,10.74,0,0,1,24.13,31ZM10.4,31V19.66H7V15H19v4.66H15.6V31Z"/><path class="cls-2" d="M25.69,16a9.14,9.14,0,0,1,3.73.69l-.74,2.46a7.08,7.08,0,0,0-3-.65,2.76,2.76,0,0,0-1.57.38,1.11,1.11,0,0,0-.55.93,1,1,0,0,0,.11.47,1.35,1.35,0,0,0,.29.38,2.39,2.39,0,0,0,.54.35c.24.12.49.23.75.34l1,.37a7,7,0,0,1,2.85,1.65A3.39,3.39,0,0,1,30,25.78a3.87,3.87,0,0,1-.22,1.31,3.54,3.54,0,0,1-.69,1.15,4.43,4.43,0,0,1-1.15.92,6.06,6.06,0,0,1-1.65.6,9.73,9.73,0,0,1-2.15.22,10.77,10.77,0,0,1-2.32-.25,7.67,7.67,0,0,1-1.81-.6l.67-2.52a8.88,8.88,0,0,0,1.71.6,7.92,7.92,0,0,0,2,.25,3.11,3.11,0,0,0,1.72-.4,1.23,1.23,0,0,0,.6-1.08,1.26,1.26,0,0,0-.55-1,6.76,6.76,0,0,0-1.89-.85q-4-1.34-4-4a3.48,3.48,0,0,1,.39-1.62,3.89,3.89,0,0,1,1.09-1.3,5.21,5.21,0,0,1,1.74-.86,8.05,8.05,0,0,1,2.3-.31M18,16v2.66H14.6V30H11.4V18.66H8V16H18m7.69-2a10.08,10.08,0,0,0-2.87.39,7.21,7.21,0,0,0-2.41,1.2q-.22.17-.42.35V14H6v6.66H9.4V32h7.2V20.66h1.61a5.63,5.63,0,0,0,3,4.31l-2.5,1.15-.67,2.52-.41,1.56,1.43.74a9.51,9.51,0,0,0,2.3.77,12.82,12.82,0,0,0,2.75.3,11.77,11.77,0,0,0,2.59-.27,8.06,8.06,0,0,0,2.2-.81,6.45,6.45,0,0,0,1.67-1.34,5.54,5.54,0,0,0,1.07-1.8,5.89,5.89,0,0,0,.34-2A5.41,5.41,0,0,0,30.55,22a7.22,7.22,0,0,0-1.9-1.42l1.95-.87.74-2.46.51-1.69-1.61-.72A11.15,11.15,0,0,0,25.69,14Z"/></g></g></svg>