<svg xmlns="http://www.w3.org/2000/svg" viewBox="0 0 32 32"><defs><style>.icon-folder{fill:#dcb67a;}.a{fill:#424242;}.b{fill:#252526;}.c{fill:#dcdbdd;}</style></defs><title>folder.dist.open</title><path class="icon-folder" d="M28,4a2,2,0,0,1,2,2V24a1.92,1.92,0,0,1-2,2V6H16l-2,4H6v6H22l6,10H6L0,16H4V10C4,8,6.47,8,6,8h7l2-4Z"/><path class="a" d="M6,16V10h8l2-4H28V26L22,16Z"/><polygon class="b" points="18 17 25 13 32 17 32 32 18 32 18 17"/><path class="c" d="M30,18l-3.15-2L25,20l-1.55-4L20,18l3,2H20V30H30V20H27ZM24,28H22V26h2Zm0-4H22V22h2Zm4,4H26V26h2Zm0-6v2H26V22Z"/></svg>