<svg xmlns="http://www.w3.org/2000/svg" viewBox="0 0 32 32"><defs><style>.icon-folder{fill:#dcb67a;}.cls-1{fill:#fff;}.cls-2{fill:#252526;}.cls-3{fill:#f05133;}</style></defs><title>folder.git.open</title><g id="Bases"><g id="_编组_" data-name="&lt;编组&gt;"><path id="_复合路径_" data-name="&lt;复合路径&gt;" class="icon-folder" d="M28,4a2,2,0,0,1,2,2V24a1.92,1.92,0,0,1-2,2V6H16l-2,4H6v6H22l6,10H6L0,16H4V10C4,8,6.47,8,6,8h7l2-4Z"/></g></g><g id="Overlays"><g id="_编组_2" data-name="&lt;编组&gt;"><g id="_编组_3" data-name="&lt;编组&gt;"><path class="cls-1" d="M22,31.25a1.84,1.84,0,0,1-1.3-.54l-7.42-7.42a1.85,1.85,0,0,1,0-2.61l7.39-7.39a1.84,1.84,0,0,1,2.61,0l7.42,7.42a1.85,1.85,0,0,1,0,2.61l-7.39,7.39A1.84,1.84,0,0,1,22,31.25Z"/><path class="cls-2" d="M22,13.5a1.09,1.09,0,0,1,.77.32l7.42,7.42a1.1,1.1,0,0,1,0,1.55l-7.39,7.39a1.1,1.1,0,0,1-1.55,0l-7.42-7.42a1.1,1.1,0,0,1,0-1.55l7.39-7.39A1.09,1.09,0,0,1,22,13.5M22,12a2.58,2.58,0,0,0-1.84.76l-7.39,7.39a2.6,2.6,0,0,0,0,3.67l7.42,7.42a2.6,2.6,0,0,0,3.67,0l7.39-7.39a2.6,2.6,0,0,0,0-3.67l-7.42-7.42A2.57,2.57,0,0,0,22,12Z"/></g><g id="_编组_4" data-name="&lt;编组&gt;"><path class="cls-3" d="M30.18,22.79l-7.39,7.39a1.1,1.1,0,0,1-1.55,0l-7.42-7.42a1.1,1.1,0,0,1,0-1.55l5.09-5.09L20.84,18a1.3,1.3,0,0,0,.28,1.42c.13.13.09.07.25.13v4.71a.92.92,0,0,0-.32.26,1.35,1.35,0,0,0,.9,2.37,1.39,1.39,0,0,0,.28,0,1.29,1.29,0,0,0,.88-2,1.35,1.35,0,0,0-.49-.48V19.84l1.76,1.76a1.31,1.31,0,1,0,.78-.73L23.27,19a1.3,1.3,0,0,0-1.64-1.66l-2-2,1.54-1.54a1.09,1.09,0,0,1,1.55,0l7.42,7.42A1.1,1.1,0,0,1,30.18,22.79Z"/></g></g></g></svg>