<svg xmlns="http://www.w3.org/2000/svg" viewBox="0 0 32 32"><defs><style>.cls-1{fill:#dcb67a;}.cls-2{fill:#252526;}.cls-3{fill:#f0400a;}</style></defs><title>folder.include.close</title><g id="Bases"><path class="cls-1" d="M30,5V25a1,1,0,0,1-1,1H5a1,1,0,0,1-1-1V9A1,1,0,0,1,5,8h7l2-4H29A1,1,0,0,1,30,5ZM28,8V6H16L15,8Z"/></g><g id="Overlays"><path class="cls-2" d="M24.71,17.46,22,20.17V20H16v.17l-2.71-2.71L5.76,25l7,7h1.07L16,29.83V30h6v-.17L24.17,32h1.07L32,25.24v-.48Z"/><path class="cls-3" d="M14.71,28.29,11.41,25l3.29-3.29-1.41-1.41L8.59,25l4.71,4.71ZM29.41,25l-4.71-4.71-1.41,1.41L26.59,25l-3.29,3.29,1.41,1.41ZM22,24H20V22H18v2H16v2h2v2h2V26h2Z"/></g></svg>