<svg xmlns="http://www.w3.org/2000/svg" viewBox="0 0 32 32"><defs><style>.a{fill:#2a2a2a;}.b{fill:#dcb67a;}.c{fill:#252526;}.d{fill:#dcdbdd;}</style></defs><title>folder.dist.close</title><polygon class="a" points="28.01 6 28.01 8 15.02 8 16.02 6 28.01 6"/><path class="b" d="M28,6H16L15,8H28ZM14,4H29a1,1,0,0,1,1,1V25a1,1,0,0,1-1,1H5a1,1,0,0,1-1-1V9A1,1,0,0,1,5,8h7Z"/><polygon class="c" points="18 17 25 13 32 17 32 32 18 32 18 17"/><path class="d" d="M30,18l-3.15-2L25,20l-1.55-4L20,18l3,2H20V30H30V20H27ZM24,28H22V26h2Zm0-4H22V22h2Zm4,4H26V26h2Zm0-6v2H26V22Z"/></svg>