<svg xmlns="http://www.w3.org/2000/svg" viewBox="0 0 32 32"><defs><style>.icon-folder{fill:#dcb67a;}.a{fill:#252526;}.b{fill:#dcdbdd;}</style></defs><title>folder.dist.close</title><path class="icon-folder" d="M29,4H14L12,8H5A1,1,0,0,0,4,9V25a1,1,0,0,0,1,1H29a1,1,0,0,0,1-1V5A1,1,0,0,0,29,4ZM28,8H15l1-2H28Z"/><polygon class="a" points="18 17 25 13 32 17 32 32 18 32 18 17"/><path class="b" d="M30,18l-3.15-2L25,20l-1.55-4L20,18l3,2H20V30H30V20H27ZM24,28H22V26h2Zm0-4H22V22h2Zm4,4H26V26h2Zm0-6v2H26V22Z"/></svg>