<svg id="Bases" xmlns="http://www.w3.org/2000/svg" viewBox="0 0 32 32"><defs><style>.cls-1{fill:#018fd4;}.cls-2{fill:#1b9ad9;}.cls-3{fill:#007cb9;}.cls-4{fill:#34a3dd;}</style></defs><title>logo.vs</title><g id="_编组_" data-name="&lt;编组&gt;"><path id="_路径_" data-name="&lt;路径&gt;" class="cls-1" d="M16.06,19.35c-.2,0-.31.2-.44.33Q12.34,22.81,9.07,26a.62.62,0,0,1-.83.14c-1.26-.6-2.53-1.16-3.8-1.74-.14-.07-.34-.07-.41-.27l.45-.41,4.26-4.1L12,16.45c.17-.16.39-.28.46-.53s.43-.33.62-.51L16,12.65l5.5-5.22L23,5.92c.12-.12.22-.23.43-.13,1.47.69,3,1.37,4.43,2,0,.22,0,.44,0,.66q0,7.46,0,14.93v.65a1.07,1.07,0,0,1-.09-.63q0-5.83,0-11.67,0-1.63,0-3.26c0-.1,0-.22-.08-.27s-.18.05-.25.12L23.2,12.43l-3.44,3.29c-.11.11-.3.19-.22.41a.39.39,0,0,0-.31.14l-3.14,3S16.07,19.32,16.06,19.35Z"/><path id="_路径_2" data-name="&lt;路径&gt;" class="cls-2" d="M23.2,12.43l4.26-4.07c.07-.07.14-.18.25-.12s.07.18.08.27q0,1.63,0,3.26,0,5.83,0,11.67a1.07,1.07,0,0,0,.09.63v-.65q0-7.46,0-14.93c0-.22,0-.44,0-.66.14.14.08.32.08.48,0,5.13,0,10.26,0,15.38a.59.59,0,0,1-.42.64c-1.32.58-2.63,1.19-3.94,1.78-.14.06-.29.22-.45,0a.94.94,0,0,0,.13-.43q0-3.09,0-6.17,0-3.33,0-6.65C23.27,12.75,23.35,12.57,23.2,12.43Z"/><path id="_路径_3" data-name="&lt;路径&gt;" class="cls-3" d="M8.74,19.58l-4.26,4.1L4,24.09c0-.13,0-.27,0-.4Q4,16,4,8.33c0-.15,0-.3,0-.45l.88.84c.73.69,1.41,1.42,2.16,2.08a12.83,12.83,0,0,1,1.63,1.66c0,1.07,0,2.14,0,3.21C8.72,17,8.73,18.28,8.74,19.58Z"/><path id="_路径_4" data-name="&lt;路径&gt;" class="cls-4" d="M8.71,12.46a12.83,12.83,0,0,0-1.63-1.66c-.75-.66-1.43-1.39-2.16-2.08L4,7.88a5.56,5.56,0,0,1,1.3-.65c1-.47,2-.91,3-1.38a.43.43,0,0,1,.58.07q3.5,3.38,7,6.74L13.1,15.41c-.19.18-.41.34-.62.51L9.15,12.78C9,12.66,8.93,12.47,8.71,12.46Z"/><path id="_路径_5" data-name="&lt;路径&gt;" class="cls-4" d="M23.28,19.56q0,3.09,0,6.17a.94.94,0,0,1-.13.43c-.78-.73-1.56-1.45-2.33-2.19l-4.79-4.62s0-.08,0-.1l3.14-3a.39.39,0,0,1,.31-.14c1.16,1,2.2,2.07,3.31,3.11C23,19.36,23.07,19.54,23.28,19.56Z"/></g></svg>